<svg id="Layer_1" data-name="Layer 1" xmlns="http://www.w3.org/2000/svg" viewBox="0 0 185 45.18"><defs><style>.cls-1{fill:#fff;}</style></defs><path class="cls-1" d="M48.453,44.418V20.4h0a4.353,4.353,0,0,1,4.354,4.353V44.418Z" transform="translate(0 -5.91)"/><path class="cls-1" d="M74.292,36.328c0,4.854-3.369,8.507-7.823,8.507a5.912,5.912,0,0,1-4.754-2.1V51.09h0a4.337,4.337,0,0,1-4.337-4.337v-18.5h4.254V30.04a5.86,5.86,0,0,1,4.821-2.219C70.923,27.821,74.292,31.474,74.292,36.328Zm-12.793,0a4.171,4.171,0,1,0,8.323,0,4.171,4.171,0,1,0-8.323,0Z" transform="translate(0 -5.91)"/><path class="cls-1" d="M86.839,27.821a6.02,6.02,0,0,1,6.288,6.3V44.418H88.774V35.527c0-2.335-1.168-3.619-3.153-3.619A3.314,3.314,0,0,0,82.2,35.561v8.857H77.848V20.382h0A4.354,4.354,0,0,1,82.2,24.736V29.99A5.423,5.423,0,0,1,86.839,27.821Z" transform="translate(0 -5.91)"/><path class="cls-1" d="M109.227,44.418V42.633a5.929,5.929,0,0,1-4.838,2.2c-4.453,0-7.823-3.653-7.823-8.507s3.37-8.507,7.823-8.507a5.918,5.918,0,0,1,4.838,2.219V28.255h4.253V44.418Zm-8.207-8.09a4.179,4.179,0,1,0,8.34,0,4.179,4.179,0,1,0-8.34,0Z" transform="translate(0 -5.91)"/><path class="cls-1" d="M147.514,28.172l-.651,4.32a7.061,7.061,0,0,0-2.635-.517c-2.018,0-3.4,1.234-3.4,3.636v8.807h-4.353V28.255h4.22v1.768a5.1,5.1,0,0,1,4.553-2.2A6.607,6.607,0,0,1,147.514,28.172Z" transform="translate(0 -5.91)"/><path class="cls-1" d="M157.891,44.835c-4.053,0-7.656-2.2-7.656-7.306V28.255h4.354v8.891c0,2.585,1.417,3.636,3.3,3.636,1.868,0,3.3-1.051,3.3-3.636V28.255h4.337v9.274C165.531,42.633,161.928,44.835,157.891,44.835Z" transform="translate(0 -5.91)"/><path class="cls-1" d="M185,36.312a12.468,12.468,0,0,1-.084,1.467H173.457a3.9,3.9,0,0,0,4.153,3.353,6.536,6.536,0,0,0,4.087-1.551l2.552,2.8a9.806,9.806,0,0,1-6.889,2.452c-4.954,0-8.39-3.369-8.39-8.457s3.336-8.557,8.174-8.557C181.8,27.821,184.983,31.274,185,36.312Zm-11.526-1.5h7.156c-.4-2.068-1.652-3.236-3.52-3.236C175.059,31.574,173.858,32.809,173.474,34.81Z" transform="translate(0 -5.91)"/><path class="cls-1" d="M128.2,25.419v19h-4.654v-19H116.3a4.353,4.353,0,0,1,4.354-4.353h10.425a4.353,4.353,0,0,1,4.353,4.353H128.2Z" transform="translate(0 -5.91)"/><path class="cls-1" d="M35.76,44.425h4.051A3.565,3.565,0,0,0,42.9,39.077l-7-12.126H29.722l7,12.126C39.142,43.267,35.76,44.425,35.76,44.425Z" transform="translate(0 -5.91)"/><path class="cls-1" d="M29.207,26.059H43.381a5.348,5.348,0,0,0-5.348-5.348H26.119l-8.545,14.8c-.012.117-.32,3.56,4.12,3.562l7.513-13.016Z" transform="translate(0 -5.91)"/><path class="cls-1" d="M17.574,35.513l-2.057,3.564h0A3.566,3.566,0,0,0,18.6,44.425H35.76s3.382-1.158.962-5.348H21.693v0C17.254,39.073,17.562,35.63,17.574,35.513Z" transform="translate(0 -5.91)"/><path class="cls-1" d="M26.89,11.349,24.779,7.693a3.566,3.566,0,0,0-6.176,0L.483,39.077a3.565,3.565,0,0,0,3.088,5.348l18.12-31.384C24.029,8.99,26.889,11.349,26.89,11.349Z" transform="translate(0 -5.91)"/><path class="cls-1" d="M26.89,11.349s-2.861-2.359-5.2,1.692L25.6,19.818h6.175Z" transform="translate(0 -5.91)"/></svg>