<svg width="597" height="597" viewBox="0 0 597 597" fill="none" xmlns="http://www.w3.org/2000/svg">
<path d="M451.95 0H144.62C64.7486 0 0 64.7486 0 144.62V451.95C0 531.821 64.7486 596.57 144.62 596.57H451.95C531.821 596.57 596.57 531.821 596.57 451.95V144.62C596.57 64.7486 531.821 0 451.95 0Z" fill="#1033FF"/>
<path d="M79.5498 169.77H155.94C209.2 169.77 242.25 198.05 242.25 241.02C242.25 262.32 234.17 278.85 220.25 290.24C240.81 302.36 253.3 322.56 253.3 350.1C253.3 396.01 217.68 426.86 164.06 426.86H79.5498V169.77ZM155.94 270.04C179.82 270.04 189.73 260.49 189.73 244.33C189.73 228.17 178.73 218.62 155.94 218.62H132.07V270.04H155.94ZM164.03 377.65C188.27 377.65 200.03 364.79 200.03 347.16C200.03 329.9 188.28 316.31 164.03 316.31H132.03V377.65H164.03Z" fill="white"/>
<path d="M253.27 194.17H300.05L338.87 298.29L374.04 194.17H411.53L446.36 298.29L485.51 194.17H531.96L470.25 362.38H426.46L392.62 259.86L358.77 362.38H314.98L253.27 194.17Z" fill="white"/>
<path d="M500.44 389.83H285.12V426.47H500.44V389.83Z" fill="white"/>
</svg>
