<svg width="2186" height="395" viewBox="0 0 2186 395" fill="none" xmlns="http://www.w3.org/2000/svg">
<path d="M298.487 0.570007H95.5131C42.7627 0.570007 0 43.3327 0 96.0832V299.057C0 351.807 42.7627 394.57 95.5131 394.57H298.487C351.237 394.57 394 351.807 394 299.057V96.0832C394 43.3327 351.237 0.570007 298.487 0.570007Z" fill="#1033FF"/>
<path d="M52.5382 112.693H102.989C138.165 112.693 159.992 131.371 159.992 159.75C159.992 173.817 154.656 184.734 145.462 192.257C159.041 200.261 167.29 213.602 167.29 231.791C167.29 262.112 143.765 282.486 108.352 282.486H52.5382V112.693ZM102.989 178.916C118.761 178.916 125.306 172.609 125.306 161.936C125.306 151.263 118.041 144.956 102.989 144.956H87.2246V178.916H102.989ZM108.332 249.986C124.342 249.986 132.108 241.493 132.108 229.849C132.108 218.45 124.348 209.474 108.332 209.474H87.1982V249.986H108.332Z" fill="white"/>
<path d="M167.27 128.808H198.166L223.804 197.573L247.032 128.808H271.792L294.795 197.573L320.651 128.808H351.329L310.573 239.901H281.652L259.303 172.193L236.947 239.901H208.026L167.27 128.808Z" fill="white"/>
<path d="M330.512 258.03H188.305V282.229H330.512V258.03Z" fill="white"/>
<path d="M494 92.7H559.32C604.85 92.7 633.11 116.88 633.11 153.62C633.11 171.83 626.21 185.96 614.27 195.7C631.86 206.06 642.54 223.33 642.54 246.88C642.54 286.14 612.08 312.51 566.23 312.51H494V92.7ZM559.32 178.43C579.73 178.43 588.21 170.26 588.21 156.43C588.21 142.6 578.79 134.43 559.32 134.43H538.91V178.43H559.32ZM566.23 270.43C586.96 270.43 597 259.43 597 244.36C597 229.6 587 217.98 566.23 217.98H538.91V270.43H566.23Z" fill="#1033FF"/>
<path d="M664.57 232.75C664.57 186.9 698.8 149.85 743.7 149.85C761.8 149.648 779.384 155.878 793.32 167.43V153.3H835.4V312.51H793.27V298.38C779.335 309.935 761.751 316.168 743.65 315.97C698.75 315.97 664.57 278.91 664.57 232.75ZM749.31 274.2C757.466 274.17 765.43 271.727 772.198 267.177C778.967 262.628 784.237 256.176 787.345 248.636C790.452 241.095 791.257 232.804 789.659 224.806C788.061 216.809 784.13 209.464 778.363 203.697C772.596 197.93 765.251 194 757.254 192.401C749.256 190.803 740.965 191.608 733.424 194.715C725.884 197.823 719.432 203.093 714.883 209.862C710.333 216.63 707.89 224.595 707.86 232.75C707.855 238.195 708.923 243.587 711.005 248.618C713.086 253.65 716.139 258.221 719.989 262.071C723.839 265.921 728.41 268.974 733.442 271.055C738.473 273.137 743.865 274.205 749.31 274.2Z" fill="#1033FF"/>
<path d="M855.76 270.44L898.47 263.84C899.41 271.69 907.26 279.84 923.28 279.84C936.15 279.84 944.01 275.13 944.01 266.64C944.01 257.85 933.33 256.91 907.26 249.64C884.97 243.36 862.04 231.11 862.04 199.4C862.04 167.99 890.3 149.78 919.51 149.78C948.72 149.78 973.51 165.48 979.17 189.35L938.98 196.57C938.04 192.49 931.76 185.89 920.45 185.89C910.72 185.89 903.81 191.23 903.81 198.45C903.81 207.24 912.28 209.45 933.33 215.1C955.62 221.38 986.71 228.28 986.71 263.1C986.71 300.16 955.62 315.86 923.28 315.86C890.62 315.97 860.16 303.41 855.76 270.44Z" fill="#1033FF"/>
<path d="M1003.98 232.75C1003.98 186.9 1038.21 149.85 1083.12 149.85C1101.22 149.648 1118.8 155.878 1132.73 167.43V153.3H1174.81V312.51H1132.73V298.38C1118.8 309.935 1101.22 316.168 1083.12 315.97C1038.21 315.97 1003.98 278.91 1003.98 232.75ZM1088.77 274.2C1096.93 274.17 1104.89 271.727 1111.66 267.177C1118.43 262.628 1123.7 256.176 1126.8 248.636C1129.91 241.095 1130.72 232.804 1129.12 224.806C1127.52 216.809 1123.59 209.464 1117.82 203.697C1112.06 197.93 1104.71 194 1096.71 192.401C1088.72 190.803 1080.42 191.608 1072.88 194.715C1065.34 197.823 1058.89 203.093 1054.34 209.862C1049.79 216.63 1047.35 224.595 1047.32 232.75C1047.31 238.195 1048.38 243.587 1050.46 248.618C1052.55 253.65 1055.6 258.221 1059.45 262.071C1063.3 265.921 1067.87 268.974 1072.9 271.055C1077.93 273.137 1083.33 274.205 1088.77 274.2Z" fill="#1033FF"/>
<path d="M1206.21 78.57H1248.29V312.51H1206.21V78.57Z" fill="#1033FF"/>
<path d="M1268.7 153.3H1312.98L1349.72 253.79L1383.01 153.3H1418.49L1451.49 253.79L1488.57 153.3H1532.57L1474.17 312.51H1432.71L1400.71 215.51L1368.71 312.51H1327.26L1268.7 153.3Z" fill="black"/>
<path d="M1537.19 232.75C1537.19 186.9 1571.43 149.85 1616.33 149.85C1634.43 149.648 1652.01 155.878 1665.95 167.43V153.3H1708.02V312.51H1665.95V298.38C1652.01 309.935 1634.43 316.168 1616.33 315.97C1571.43 315.97 1537.19 278.91 1537.19 232.75ZM1621.98 274.2C1630.14 274.17 1638.1 271.727 1644.87 267.177C1651.64 262.628 1656.91 256.176 1660.01 248.636C1663.12 241.095 1663.93 232.804 1662.33 224.806C1660.73 216.809 1656.8 209.464 1651.03 203.697C1645.27 197.93 1637.92 194 1629.92 192.401C1621.93 190.803 1613.63 191.608 1606.09 194.715C1598.55 197.823 1592.1 203.093 1587.55 209.862C1583 216.63 1580.56 224.595 1580.53 232.75C1580.52 238.195 1581.59 243.587 1583.67 248.618C1585.76 253.65 1588.81 258.221 1592.66 262.071C1596.51 265.921 1601.08 268.974 1606.11 271.055C1611.14 273.137 1616.54 274.205 1621.98 274.2Z" fill="black"/>
<path d="M1739.43 78.57H1781.51V312.51H1739.43V78.57Z" fill="black"/>
<path d="M1812.91 78.57H1854.99V312.51H1812.91V78.57Z" fill="black"/>
<path d="M1880.11 232.75C1880.11 186.9 1917.79 149.85 1963.01 149.85C2009.8 149.85 2052.19 190.98 2042.46 248.77H1925.64C1931.29 265.77 1945.42 277.03 1965.84 277.03C1983.74 277.03 1995.67 270.12 2003.2 260.39L2038.06 277.03C2023.93 302.15 1998.81 315.97 1965.84 315.97C1919.99 315.97 1880.11 278.91 1880.11 232.75ZM2000.11 215.17C1995.4 200.09 1983.11 188.79 1963.05 188.79C1945.15 188.79 1932.27 200.41 1926.62 215.17H2000.11Z" fill="black"/>
<path d="M2085.79 256.93V192.56H2059.42V153.3H2085.79V117.82H2127.87V153.3H2171.21V192.56H2127.87V256.93C2127.87 268.86 2134.15 275.77 2145.46 275.77C2152.68 275.77 2157.7 270.77 2159.9 268.24L2185.34 293.67C2176.23 304.03 2161.47 315.03 2141.06 315.03C2107.46 315.03 2085.79 297.75 2085.79 256.93Z" fill="black"/>
</svg>
