<svg width="24" height="24" viewBox="0 0 24 24" fill="none" xmlns="http://www.w3.org/2000/svg">
  <path opacity="0.4" fill-rule="evenodd" clip-rule="evenodd" d="M12 2.4C6.69807 2.4 2.4 6.69807 2.4 12C2.4 17.3019 6.69807 21.6 12 21.6C17.3019 21.6 21.6 17.3019 21.6 12C21.6 6.69807 17.3019 2.4 12 2.4ZM0 12C0 5.37258 5.37258 0 12 0C18.6274 0 24 5.37258 24 12C24 18.6274 18.6274 24 12 24C5.37258 24 0 18.6274 0 12Z" fill="#27272A"/>
  <path fill-rule="evenodd" clip-rule="evenodd" d="M10.8 1.2C10.8 0.537258 11.3373 0 12 0C15.1826 0 18.2349 1.26428 20.4853 3.51472C22.7358 5.76515 24 8.8174 24 12C24 12.6627 23.4628 13.2 22.8 13.2C22.1373 13.2 21.6 12.6627 21.6 12C21.6 9.45392 20.5886 7.01212 18.7883 5.21177C16.9879 3.41143 14.5461 2.4 12 2.4C11.3373 2.4 10.8 1.86274 10.8 1.2Z" fill="#27272A"/>
</svg>