<svg width="605" height="544" viewBox="0 0 605 544" fill="none" xmlns="http://www.w3.org/2000/svg">
<g clip-path="url(#clip0_538_32647)">
<g filter="url(#filter0_b_538_32647)">
<rect x="40" y="120" width="169.667" height="384" rx="16" fill="url(#paint0_linear_538_32647)"/>
</g>
<g filter="url(#filter1_b_538_32647)">
<rect x="217.667" y="40" width="169.667" height="384" rx="16" fill="url(#paint1_linear_538_32647)"/>
</g>
<g filter="url(#filter2_b_538_32647)">
<rect x="395.333" y="91.5" width="169.667" height="384" rx="16" fill="url(#paint2_linear_538_32647)"/>
</g>
<mask id="mask0_538_32647" style="mask-type:alpha" maskUnits="userSpaceOnUse" x="-110" y="241" width="849" height="263">
<g clip-path="url(#clip1_538_32647)">
<g style="mix-blend-mode:color-dodge">
<path d="M427.07 247.803C430.13 247.803 431.682 247.024 430.557 246.088L424.473 241H423.363L429.383 246.088C430.251 246.825 429.027 247.506 426.636 247.506C423.591 247.506 421.954 248.285 423.014 249.277L429.753 255.57H418.652L415.806 252.58C414.788 251.517 411.415 250.666 408.255 250.666H394.663L392.436 247.69C391.724 246.74 388.714 245.975 385.718 245.975H359.261C356.912 245.975 354.806 245.38 354.564 244.671L353.354 241.071H352.244L353.411 244.671C353.703 245.578 356.393 246.343 359.403 246.343H385.946C388.309 246.343 390.664 246.939 391.219 247.761L393.404 250.737H352.842C349.682 250.737 347.313 251.588 347.562 252.651L348.095 254.918H334.525C331.942 254.918 329.8 254.21 329.764 253.345L329.209 241.142H328.12L328.512 253.345C328.547 254.451 331.273 255.358 334.589 255.358H348.202L353.183 276.618H322.292L322.612 264.769C322.612 263.351 319.766 262.345 316.208 262.345H298.852L304.274 241.085H303.164L297.471 262.345H282.669L291.394 241.085H290.284L281.275 262.345H266.473L278.499 241.085H277.382L265.064 262.345H247.651L263.513 241.085H262.41L246.263 262.345H229.369L248.96 241.085H247.85L227.975 262.345H212.127L235.233 241.085H234.123L210.739 262.345H200.948C198.165 262.345 196.927 261.509 198.172 260.517L222.31 241.142H221.2L196.799 260.517C195.191 261.792 196.799 262.855 200.357 262.855H210.199L197.347 274.506C195.924 275.796 192.159 276.858 188.985 276.858H183.584C179.535 276.858 174.483 278.276 172.262 280.019L-110 503.972H-105.367L173.863 279.877C175.593 278.46 179.556 277.397 182.752 277.397H188.188C192.259 277.397 197.076 275.98 198.862 274.364L211.558 262.714H227.477L216.802 274.052C215.265 275.696 217.279 277.071 221.342 277.071H234.863L224.018 291.244H182.744C178.19 291.244 172.49 293.016 169.935 295.255L-66.4491 503.972H-61.845L171.828 295.383C173.799 293.626 178.283 292.222 181.869 292.222H223.392L212.241 306.849C210.625 308.975 205.957 310.747 201.873 310.747H191.91C186.694 310.747 180.282 313.071 177.514 316.019L126.868 370.034C121.659 375.604 123.381 380.352 130.974 380.352H164.833L74.2728 503.958H78.877L167.829 380.31H231.063L178.51 503.929H183.143L234.038 380.31H321.808C327.757 380.31 332.717 384.165 332.881 389.111L336.567 503.915H341.2L335.977 389.111C335.685 382.847 329.359 377.985 321.844 377.985H234.97L247.281 348.094H356.371L358.449 360.85C359.275 365.938 365.871 370.261 373.123 370.261H394.08L437.325 503.929H441.979L396.919 370.261H429.241L494.638 503.972H499.271L432.08 370.261H481.452L579.762 503.929H584.394L484.291 370.261H525.793L652.055 503.929H656.687L528.639 370.261H565.985C572.757 370.686 579.444 373.399 585.761 378.283L734.367 503.929H739L588.714 378.325C581.897 372.656 570.767 368.191 563.594 368.191H526.59L507.376 348.136H540.822C547.312 348.136 548.429 344.649 543.519 340.553L444.341 257.611C442.918 256.435 439.104 255.499 435.802 255.499H431.077L424.26 249.206C423.391 248.37 424.665 247.803 427.07 247.803ZM430.237 255.939L446.483 271.047C447.793 272.266 446.369 273.273 443.288 273.273H435.738L419.079 255.882L430.237 255.939ZM487.522 329.81H453.962L448.227 322.142H455.343C460.943 322.142 463.285 319.549 460.644 316.473L436.677 288.424H448.419L487.522 329.81ZM450.162 288.41H458.702C462.189 288.41 466.437 289.728 468.216 291.386L504.16 324.906C507.006 327.585 505.683 329.824 501.093 329.824H489.842L450.162 288.41ZM287.765 305.418H342.246C346.188 305.418 349.675 307.104 350.017 309.23L350.607 312.83H293.401C289.259 312.83 286.356 311.002 286.911 308.833L287.765 305.418ZM342.132 304.397H288.049L295.03 277.128H320.691L320.136 290.833C320.051 293.002 323.772 294.816 328.441 294.816H350.892C355.56 294.816 358.912 293.002 358.371 290.833L354.977 277.128H378.311L387.27 297.296C388.323 299.678 393.198 301.662 398.101 301.662H424.046C427.889 301.662 432.194 303.263 433.681 305.29L445.138 320.881H407.238L405.921 318.259C404.391 315.226 398.898 312.845 393.61 312.845H352.699L352.066 309.245C351.604 306.481 347.149 304.411 342.153 304.411L342.132 304.397ZM276.507 277.142H293.429L286.085 304.411H272.379C268.458 304.411 265.975 302.782 266.751 300.84L276.507 277.142ZM379.869 277.142H392.216C396.279 277.142 398.727 275.725 397.702 274.123L387.412 257.611C386.836 256.69 388.501 255.939 391.12 255.939H397.339L418.567 284.81C419.99 286.766 424.836 288.41 429.291 288.41H434.984L458.545 316.402C460.573 318.812 458.723 320.824 454.368 320.824H447.252L435.589 305.233C433.66 302.668 428.188 300.641 423.32 300.641H397.574C393.76 300.641 389.945 299.096 389.099 297.24L379.869 277.142ZM407.871 322.142H446.028L451.664 329.81H411.721L407.871 322.142ZM409.422 329.81H383.271L382.288 326.89C381.399 324.24 384.267 322.142 388.65 322.142H405.686L409.422 329.81ZM394.116 313.978C398.286 313.978 402.605 315.878 403.772 318.23L405.053 320.852H388.166C382.609 320.852 378.915 323.503 380.033 326.862L380.972 329.782H355.688L352.899 313.95L394.116 313.978ZM381.427 331.213L386.352 346.435H358.599L355.916 331.213H381.427ZM383.747 331.213H410.113L417.563 346.435H388.878L383.747 331.213ZM412.425 331.213H452.696L463.897 346.435H420.082L412.425 331.213ZM455.016 331.213H488.867L503.249 346.435H466.423L455.016 331.213ZM436.023 287.616L426.359 276.277C425.242 274.973 426.878 273.939 429.974 273.939H434.792L447.672 287.616H436.023ZM429.405 273.329C425.469 273.329 423.377 274.647 424.779 276.306L434.286 287.644H428.65C425.185 287.644 421.413 286.369 420.26 284.81L398.648 255.939H417.784L434.208 273.329H429.405ZM408.597 251.006C411.08 251.006 413.735 251.672 414.525 252.509L417.371 255.499H398.314L394.948 251.006H408.597ZM348.821 252.509C348.608 251.672 350.465 251.006 352.949 251.006H393.689L396.998 255.499H390.807C387.483 255.499 385.348 256.435 386.067 257.611L396.137 274.123C396.919 275.399 394.998 276.476 391.824 276.476H379.563L370.59 256.874C370.063 255.712 366.953 254.791 363.651 254.791H349.419L348.821 252.509ZM349.49 255.216H363.815C366.412 255.216 368.853 255.953 369.252 256.86L377.962 276.476H354.77L349.49 255.216ZM353.333 277.142L356.585 290.89C356.976 292.577 354.35 293.994 350.714 293.994H328.441C324.804 293.994 321.879 292.577 321.929 290.89L322.292 277.185L353.333 277.142ZM316.172 262.714C318.969 262.714 321.211 263.564 321.154 264.627L320.677 276.476H295.194L298.716 262.714H316.172ZM297.3 262.714L293.6 276.476H276.777L282.47 262.714H297.3ZM281.026 262.714L275.176 276.476H258.382L266.21 262.714H281.026ZM264.751 262.714L256.76 276.476H236.97L247.267 262.714H264.751ZM221.905 276.476C218.738 276.476 217.151 275.399 218.346 274.123L228.886 262.784H245.865L235.383 276.547L221.905 276.476ZM236.457 277.142H256.382L249.843 288.396C248.896 290.025 245.21 291.372 241.645 291.372H225.818L236.457 277.142ZM132.995 378.028C127.11 378.028 125.701 374.371 129.708 370.034L179.628 316.019C181.762 313.695 186.822 311.852 190.935 311.852H200.969C206.221 311.852 212.205 309.571 214.233 306.849L225.185 292.222H241.118C245.701 292.222 250.412 290.479 251.593 288.396L257.998 277.142H274.927L264.836 300.811C263.776 303.306 266.971 305.404 272.009 305.404H285.815L284.89 308.819C284.142 311.654 287.836 313.95 293.159 313.95H350.799L353.376 329.782H263.157C257.293 329.782 251.273 332.715 249.672 336.471L245.452 346.393H201.246C194.842 346.393 187.092 349.922 183.783 354.429L166.527 377.985L132.995 378.028ZM232.024 378.028H169.466L186.409 354.486C188.964 350.928 195.084 348.136 200.129 348.136H244.733L232.024 378.028ZM247.978 346.435L252.063 336.514C253.28 333.566 258.012 331.227 262.645 331.227H353.617L356.094 346.449L247.978 346.435ZM372.646 368.191C367.024 368.191 361.858 364.861 361.161 360.892L358.912 348.136H386.9L393.397 368.191H372.646ZM396.208 368.191L389.447 348.136H418.389L428.209 368.191H396.208ZM431.02 368.191L420.936 348.136H465.142L479.901 368.191H431.02ZM523.807 368.191H482.712L467.689 348.136H504.85L523.807 368.191ZM436.279 255.939C438.897 255.939 441.901 256.69 442.996 257.611L541.093 340.497C544.878 343.686 543.939 346.379 538.958 346.379H505.775L491.187 331.156H502.53C508.437 331.156 510.109 328.322 506.394 324.835L470.024 291.329C467.732 289.218 462.331 287.559 457.926 287.559H449.422L436.343 273.91H443.929C447.885 273.91 449.693 272.607 447.999 271.076L431.547 255.91L436.279 255.939Z" fill="white"/>
</g>
</g>
</mask>
<g mask="url(#mask0_538_32647)">
<g filter="url(#filter3_b_538_32647)">
<rect x="40" y="120" width="169.667" height="384" rx="16" fill="url(#paint3_linear_538_32647)"/>
</g>
<g filter="url(#filter4_b_538_32647)">
<rect x="217.667" y="40" width="169.667" height="384" rx="16" fill="url(#paint4_linear_538_32647)"/>
</g>
<g filter="url(#filter5_b_538_32647)">
<rect x="395.333" y="91.5" width="169.667" height="384" rx="16" fill="url(#paint5_linear_538_32647)"/>
</g>
</g>
<g clip-path="url(#clip2_538_32647)">
<path d="M424.655 197.564L415.393 174.219L465.566 153.93L465.615 153.938C474.012 150.601 484.618 152.793 495.472 161.314C517.275 178.399 531.702 214.451 527.791 241.833C525.831 255.554 519.624 264.496 511.194 267.858L460.64 288.264L451.145 264.29C434.973 247.666 424.223 220.665 424.655 197.564Z" fill="url(#paint6_linear_538_32647)"/>
<path d="M445.025 181.685C466.828 198.77 481.256 234.812 477.343 262.204C473.43 289.596 452.62 297.947 430.857 280.868C409.093 263.789 394.627 227.73 398.538 200.348C402.45 172.966 423.263 164.595 445.025 181.685Z" fill="#3856BF"/>
<path d="M484.98 259.305C484.372 263.562 486.302 266.029 489.302 264.831C492.301 263.634 495.157 259.203 495.765 254.946C496.373 250.689 494.444 248.212 491.504 249.418C488.563 250.624 485.585 255.068 484.98 259.305Z" fill="#3856BF"/>
<path d="M506.5 251.994C505.892 256.251 507.831 258.73 510.82 257.531C513.81 256.332 516.736 251.901 517.344 247.644C517.952 243.387 516.013 240.908 513.024 242.108C510.034 243.307 507.112 247.708 506.5 251.994Z" fill="#3856BF"/>
<path d="M486.5 259.976C485.892 264.233 487.822 266.701 490.763 265.495C493.703 264.288 496.677 259.875 497.285 255.618C497.893 251.361 495.964 248.883 492.964 250.081C489.965 251.279 487.108 255.72 486.5 259.976Z" fill="#28BDE0"/>
<path d="M508.074 252.643C507.466 256.9 509.405 259.379 512.394 258.18C515.384 256.981 518.31 252.55 518.918 248.293C519.526 244.036 517.587 241.557 514.596 242.767C511.605 243.976 508.682 248.387 508.074 252.643Z" fill="#28BDE0"/>
<path d="M415.681 195.464C436.309 211.653 450.025 245.826 446.318 271.773C442.612 297.719 422.882 305.649 402.254 289.459C381.626 273.27 367.921 239.098 371.627 213.152C375.334 187.205 395.062 179.285 415.681 195.464Z" fill="#E0E0E0"/>
<path d="M159.442 290.392C188.524 280.92 222.419 266.75 235.722 261.66C251.93 255.47 271.322 243.33 280.735 242.705L296.679 284.187L373.596 317.397L243.323 362.256L235.567 366.199C218.87 374.683 205.715 382.411 188.184 392.766L159.442 290.392Z" fill="#FFBDA7"/>
<path d="M255.113 319.817C267.87 327.458 277.77 322.791 277.77 322.791C277.77 322.791 270.101 341.898 253.477 354.888C248.927 358.45 250.534 359.084 255.26 358.173L302.218 342.011L317.287 301.788L296.679 284.187C296.119 286.056 292.653 288.965 292.653 288.965C289.952 297.476 286.475 305.72 282.266 313.594C282.266 313.594 270.023 324.199 255.113 319.817Z" fill="#F0997A"/>
<path d="M444.094 284.587C444.094 284.587 406.469 297.789 398.439 307.188C390.409 316.587 369.226 351.31 360.164 358.107C351.102 364.904 330.726 378.63 320.538 383.266C309.865 388.116 305.846 388.814 297.622 385.569C292.454 387.306 280.005 388.679 277.073 381.765C270.596 385.244 257.706 382.988 255.468 376.658C250.244 378.72 236.082 374.334 235.563 366.158L243.319 362.215C252.846 355.414 264.895 346.801 269.879 340.341C281.202 326.554 292.557 300.457 296.675 284.146L280.731 242.664C280.129 242.709 279.531 242.789 278.939 242.903L278.044 243.089C270.11 244.885 257.601 251.836 245.433 257.461C250.57 252.195 257.286 245.204 264.44 238.327C281.739 221.605 285.79 221.174 311.584 217.605C343.444 213.227 355.504 208.778 362.796 206.88C375.382 203.627 410.512 184.341 410.512 184.341L444.094 284.587Z" fill="#FFD7CA"/>
<path d="M443.383 284.819C459.462 280.534 466.358 254.02 458.784 225.597C451.21 197.174 432.036 177.606 415.957 181.89C399.877 186.175 392.982 212.69 400.556 241.112C408.129 269.535 427.304 289.103 443.383 284.819Z" fill="#FFD7CA"/>
<path d="M296.559 338.415C280.227 359.76 258.929 372.87 247.486 372.498C238.939 372.226 235.569 366.189 235.569 366.189C236.101 374.346 250.26 378.753 255.474 376.69C261.935 376.219 283.696 360.578 296.559 338.415Z" fill="#F5BAA5"/>
<path d="M315.808 345.872C306.373 358.252 285.044 374.549 273.675 378.4C267.039 380.655 258.797 379.801 255.474 376.689C257.737 382.983 270.616 385.247 277.079 381.796C292.763 373.212 306.071 360.868 315.808 345.872Z" fill="#F5BAA5"/>
<path d="M335.384 353.941C324.181 365.473 307.79 377.395 296.356 381.701C284.922 386.007 278.961 383.257 277.085 381.756C279.967 388.663 292.457 387.286 297.633 385.56C301.594 384.348 325.704 368.953 335.384 353.941Z" fill="#F5BAA5"/>
<path d="M185.898 393.565C201.977 389.28 208.872 362.765 201.298 334.342C193.725 305.92 174.55 286.351 158.471 290.636C142.392 294.921 135.497 321.435 143.07 349.858C150.644 378.281 169.818 397.849 185.898 393.565Z" fill="#F0997A"/>
<path d="M330.567 380.871C324.99 376.851 323.359 370.305 328.418 364.522C333.476 358.739 340.987 360.257 345.633 363.799C342.811 357.032 344.083 351.315 348.919 347.157C353.756 342.999 362.504 343.986 367.192 348.504C362.421 340.61 361.678 335.201 365.919 329.13C370.161 323.059 379.267 322.955 384.864 327.896C391.917 334.177 392.45 339.425 388.578 345.387C384.706 351.35 377.612 355.327 370.898 351.488C373.167 357.874 371.309 362.75 367.272 366.264C363.234 369.779 355.479 373.863 349.679 368.994C350.212 373.747 348.282 377.36 344.824 380.351C341.366 383.342 336.088 384.861 330.567 380.871Z" fill="#FFBDA7"/>
<path d="M405.518 335.705C400.704 335.179 391.071 330.763 384.617 326.447C384.617 326.447 394.331 312.399 395.942 310.316C398.023 307.333 400.665 304.784 403.721 302.811L415.033 311.66L405.518 335.705Z" fill="#F0997A"/>
<path d="M418.018 324.996C415.308 335.124 410.122 337.272 402.442 335.034C398.98 334.024 392.436 327.927 393.837 318.966C394.865 312.334 402.781 306.919 409.633 308.878C416.213 310.757 420.564 315.369 418.018 324.996Z" fill="#FFBDA7"/>
<path opacity="0.2" d="M372.622 346.492C374.724 341.035 380.567 335.354 385.57 334.2C391.633 341.258 381.66 353.228 372.622 346.492Z" fill="white"/>
<path opacity="0.3" d="M386.26 335.167C386.052 334.835 385.821 334.518 385.567 334.219C380.566 335.354 374.724 341.035 372.619 346.512C372.892 346.722 373.179 346.905 373.456 347.086C375.909 342.073 382.244 336.27 386.26 335.167Z" fill="white"/>
<path opacity="0.2" d="M402.016 328.821C402.031 322.985 405.444 315.573 409.696 312.746C417.9 317.12 412.915 331.863 402.016 328.821Z" fill="white"/>
<path opacity="0.3" d="M410.689 313.362C410.374 313.128 410.043 312.915 409.699 312.726C405.444 315.573 402.031 322.985 402.019 328.801C402.34 328.896 402.666 328.973 402.996 329.032C403.51 323.519 407.351 315.865 410.689 313.362Z" fill="white"/>
<path opacity="0.2" d="M351.301 363.296C353.899 358.475 360.066 354.123 364.907 353.966C369.882 361.778 359.139 371.436 351.301 363.296Z" fill="white"/>
<path opacity="0.3" d="M365.467 354.996C365.307 354.639 365.12 354.295 364.907 353.966C360.066 354.123 353.902 358.455 351.301 363.296C351.547 363.553 351.788 363.78 352.039 363.997C354.907 359.69 361.538 355.344 365.467 354.996Z" fill="white"/>
<path opacity="0.2" d="M332.919 377.984C334.79 373.726 339.712 369.61 343.809 369.145C348.542 375.468 340.113 384.335 332.919 377.984Z" fill="white"/>
<path opacity="0.3" d="M344.344 369.989C344.182 369.698 344.003 369.416 343.809 369.145C339.707 369.569 334.79 373.726 332.919 377.984C333.134 378.176 333.36 378.36 333.58 378.523C335.725 374.678 341.042 370.548 344.344 369.989Z" fill="white"/>
<path d="M384.042 327.284C378.407 322.964 369.886 323.353 365.877 329.144C361.678 335.201 362.421 340.61 367.15 348.519C362.501 344.006 353.712 343.023 348.877 347.171C344.042 351.319 342.769 357.047 345.59 363.814C340.944 360.271 333.445 358.745 328.375 364.536C324.523 368.946 324.558 373.79 327.264 377.621C326.452 375.218 326.496 372.609 327.387 370.234C328.278 367.86 329.963 365.866 332.155 364.591C338.235 361.066 344.457 367.076 346.847 364.912C349.237 362.749 346.191 354.02 351.912 349.332C357.632 344.644 364.944 351.093 367.954 349.603C370.965 348.114 365.792 340.062 367.976 334.252C369.188 331.202 371.559 328.756 374.57 327.451C377.581 326.145 380.987 326.085 384.042 327.284Z" fill="#F0997A"/>
<path d="M377.518 284.35C376.832 280.949 372.798 278.787 364.268 269.053C356.009 259.62 349.737 250.562 340.105 247.701C335.579 246.358 323.028 245.403 309.972 244.518C298.777 243.757 285.081 242.407 280.735 242.705C283.891 256.601 290.412 270.776 296.679 284.187C306.093 285.532 323.804 283.96 333.686 278.776C343.915 286.298 345.987 289.897 356.937 292.795C370.826 296.476 378.278 288.226 377.518 284.35Z" fill="#FFBDA7"/>
<path d="M357.445 273.755C357.445 273.755 366.936 281.778 370.371 283.329C375.381 285.59 377.518 284.35 377.518 284.35C377.518 284.35 378.225 282.017 371.564 275.893C364.903 269.77 363.748 268.453 363.748 268.453C363.748 268.453 360.893 268.57 357.445 273.755Z" fill="#FFBDA7"/>
<path opacity="0.2" d="M357.445 273.755C357.445 273.755 366.936 281.778 370.371 283.329C375.381 285.59 377.518 284.35 377.518 284.35C377.518 284.35 378.225 282.017 371.564 275.893C364.903 269.77 363.748 268.453 363.748 268.453C363.748 268.453 360.893 268.57 357.445 273.755Z" fill="white"/>
<path opacity="0.2" d="M359.162 275.172C361.792 274.179 364.295 272.875 366.616 271.287C364.278 269.054 363.748 268.453 363.748 268.453C363.748 268.453 360.893 268.57 357.445 273.755L359.162 275.172Z" fill="white"/>
<path d="M357.681 292.961C357.434 292.92 357.188 292.865 356.947 292.796C345.997 289.898 343.918 286.278 333.696 278.777C323.802 283.97 306.103 285.533 296.689 284.188C295.812 287.71 294.609 291.679 293.093 295.857L288.02 301.597C291.649 293.095 294.231 284.423 293.315 282.777C292.398 281.131 288.759 278.459 286.816 272.757C289.374 275.214 291.633 277.789 294.669 279.586C294.865 279.705 295.063 279.804 295.269 279.914C298.777 281.49 302.58 282.299 306.426 282.286C320.088 282.389 329.111 278.061 331.759 276.712C330.635 274.339 330.13 271.719 330.29 269.098C332.661 275.063 335.648 277.49 338.257 280.014C344.868 286.484 353.945 291.822 357.681 292.961Z" fill="#F0997A"/>
<path d="M471.661 261.604C469.804 274.602 463.927 283.076 455.925 286.267L430.506 296.475C438.545 293.31 444.445 284.819 446.307 271.781C450.015 245.825 436.308 211.663 415.688 195.485C405.496 187.493 395.536 185.373 387.612 188.444L412.645 178.393C416.118 177.056 419.882 176.656 423.558 177.234C429.023 178.015 434.946 180.679 440.941 185.384C461.652 201.485 475.37 235.638 471.661 261.604Z" fill="#F5F5F5"/>
<path d="M471.661 261.604C469.804 274.602 463.927 283.076 455.925 286.267L430.506 296.475C438.544 293.31 444.444 284.819 446.307 271.781C446.885 267.555 447.052 263.282 446.806 259.024L472.149 248.855C472.404 253.111 472.241 257.381 471.661 261.604Z" fill="#EBEBEB"/>
<path d="M168.44 296.001C189.068 312.191 202.773 346.362 199.067 372.309C195.36 398.255 175.642 406.177 155.014 389.987C134.386 373.797 120.681 339.626 124.387 313.679C128.094 287.732 147.822 279.813 168.44 296.001Z" fill="#E0E0E0"/>
<path d="M224.42 362.132C222.564 375.13 216.686 383.604 208.685 386.795L183.266 397.003C191.303 393.847 197.203 385.356 199.065 372.319C202.773 346.362 189.068 312.191 168.448 296.012C158.256 288.021 148.284 285.909 140.362 288.97L165.403 278.93C168.876 277.593 172.64 277.194 176.317 277.772C181.781 278.552 187.704 281.217 193.699 285.922C214.412 302.012 228.128 336.175 224.42 362.132Z" fill="#F5F5F5"/>
<path d="M224.421 362.132C222.564 375.13 216.686 383.604 208.685 386.795L183.266 397.003C191.303 393.847 197.203 385.356 199.065 372.319C199.644 368.092 199.812 363.82 199.564 359.561L224.908 349.383C225.164 353.638 225 357.908 224.421 362.132Z" fill="#EBEBEB"/>
<path d="M101.591 328.222L92.3295 304.877L142.501 284.598C150.907 281.264 161.514 283.456 172.36 291.965C194.161 309.06 208.6 345.103 204.687 372.495C202.727 386.216 196.52 395.158 188.08 398.519L137.501 418.961L128.086 394.919C111.899 378.333 101.159 351.333 101.591 328.222Z" fill="url(#paint7_linear_538_32647)"/>
<path d="M121.962 312.343C143.763 329.437 158.192 365.48 154.279 392.872C150.366 420.264 129.556 428.615 107.792 411.536C86.0288 394.456 71.5525 358.397 75.4654 331.005C79.3783 303.613 100.198 295.263 121.962 312.343Z" fill="#3856BF"/>
<path d="M161.857 389.954C161.249 394.211 163.188 396.69 166.178 395.491C169.168 394.292 172.094 389.861 172.702 385.604C173.31 381.347 171.371 378.868 168.38 380.077C165.389 381.287 162.467 385.688 161.857 389.954Z" fill="#3856BF"/>
<path d="M183.441 382.623C182.833 386.88 184.762 389.357 187.763 388.15C190.764 386.942 193.618 382.521 194.226 378.264C194.834 374.007 192.905 371.53 189.965 372.736C187.025 373.942 184.048 378.376 183.441 382.623Z" fill="#3856BF"/>
<path d="M163.427 390.633C162.819 394.89 164.758 397.369 167.748 396.17C170.737 394.97 173.663 390.54 174.271 386.283C174.879 382.026 172.94 379.547 169.949 380.756C166.958 381.965 164.035 386.376 163.427 390.633Z" fill="#28BDE0"/>
<path d="M185.009 383.312C184.401 387.568 186.33 390.046 189.272 388.83C192.213 387.614 195.186 383.21 195.794 378.953C196.402 374.696 194.473 372.218 191.474 373.416C188.474 374.614 185.617 379.055 185.009 383.312Z" fill="#28BDE0"/>
</g>
<path fill-rule="evenodd" clip-rule="evenodd" d="M285.998 156.623L297.201 150.114C297.688 149.833 298.092 149.427 298.373 148.938C298.654 148.449 298.802 147.894 298.802 147.33C298.802 146.765 298.654 146.21 298.373 145.722C298.092 145.233 297.688 144.827 297.201 144.545L287.599 138.968C287.113 138.686 286.709 138.279 286.428 137.79C286.147 137.301 285.999 136.747 285.998 136.182V121.314C285.998 120.749 286.147 120.194 286.428 119.705C286.709 119.216 287.113 118.81 287.599 118.528L302 110.164L313.607 103.423C314.052 103.165 314.557 103.029 315.071 103.029C315.585 103.029 316.089 103.165 316.534 103.423C316.979 103.681 317.349 104.053 317.606 104.501C317.863 104.948 317.998 105.456 317.998 105.973V117.6C317.998 118.164 317.851 118.718 317.571 119.207C317.29 119.695 316.887 120.101 316.401 120.383L306.795 125.96C306.31 126.243 305.907 126.649 305.626 127.138C305.346 127.627 305.199 128.182 305.199 128.746C305.199 129.31 305.346 129.865 305.626 130.354C305.907 130.843 306.31 131.249 306.795 131.533L316.401 137.109C316.887 137.392 317.29 137.799 317.57 138.288C317.85 138.777 317.998 139.331 317.998 139.896V154.764C317.998 155.328 317.85 155.883 317.57 156.372C317.29 156.861 316.887 157.267 316.401 157.55L302 165.914L290.797 172.418C290.311 172.701 289.759 172.85 289.197 172.85C288.636 172.85 288.084 172.702 287.597 172.419C287.111 172.137 286.707 171.73 286.426 171.241C286.145 170.752 285.998 170.196 285.998 169.631V156.607V156.623ZM285.998 175.204L300.399 183.568C300.885 183.851 301.437 184 301.998 184C302.56 184 303.111 183.851 303.597 183.568L317.998 175.204L332.399 166.841C332.886 166.559 333.29 166.153 333.571 165.664C333.853 165.175 334 164.62 334 164.055V149.187C333.999 148.622 333.851 148.067 333.57 147.578C333.289 147.089 332.885 146.683 332.399 146.4L322.797 140.823C322.311 140.541 321.908 140.135 321.628 139.646C321.348 139.157 321.2 138.603 321.2 138.039C321.2 137.475 321.348 136.92 321.628 136.432C321.908 135.943 322.311 135.537 322.797 135.254L332.399 129.677C332.885 129.395 333.289 128.989 333.57 128.5C333.851 128.01 333.999 127.456 334 126.891V112.023C334 111.458 333.853 110.903 333.571 110.414C333.29 109.925 332.886 109.519 332.399 109.237L317.998 100.873L303.346 92.364C302.937 92.1255 302.473 92 302 92C301.527 92 301.063 92.1255 300.654 92.364L285.998 100.873L271.597 109.237C271.111 109.519 270.707 109.925 270.426 110.414C270.146 110.903 269.999 111.458 270 112.023V126.891C270 127.456 270.148 128.01 270.428 128.499C270.708 128.988 271.111 129.395 271.597 129.677L281.203 135.254C281.689 135.537 282.092 135.943 282.372 136.432C282.652 136.92 282.8 137.475 282.8 138.039C282.8 138.603 282.652 139.157 282.372 139.646C282.092 140.135 281.689 140.541 281.203 140.823L271.597 146.4C271.111 146.683 270.708 147.09 270.428 147.579C270.148 148.068 270 148.622 270 149.187V164.055C269.999 164.619 270.146 165.174 270.426 165.664C270.707 166.153 271.111 166.559 271.597 166.841L285.998 175.204Z" fill="#836EF9"/>
</g>
<defs>
<filter id="filter0_b_538_32647" x="-10" y="70" width="269.667" height="484" filterUnits="userSpaceOnUse" color-interpolation-filters="sRGB">
<feFlood flood-opacity="0" result="BackgroundImageFix"/>
<feGaussianBlur in="BackgroundImageFix" stdDeviation="25"/>
<feComposite in2="SourceAlpha" operator="in" result="effect1_backgroundBlur_538_32647"/>
<feBlend mode="normal" in="SourceGraphic" in2="effect1_backgroundBlur_538_32647" result="shape"/>
</filter>
<filter id="filter1_b_538_32647" x="167.667" y="-10" width="269.667" height="484" filterUnits="userSpaceOnUse" color-interpolation-filters="sRGB">
<feFlood flood-opacity="0" result="BackgroundImageFix"/>
<feGaussianBlur in="BackgroundImageFix" stdDeviation="25"/>
<feComposite in2="SourceAlpha" operator="in" result="effect1_backgroundBlur_538_32647"/>
<feBlend mode="normal" in="SourceGraphic" in2="effect1_backgroundBlur_538_32647" result="shape"/>
</filter>
<filter id="filter2_b_538_32647" x="345.333" y="41.5" width="269.667" height="484" filterUnits="userSpaceOnUse" color-interpolation-filters="sRGB">
<feFlood flood-opacity="0" result="BackgroundImageFix"/>
<feGaussianBlur in="BackgroundImageFix" stdDeviation="25"/>
<feComposite in2="SourceAlpha" operator="in" result="effect1_backgroundBlur_538_32647"/>
<feBlend mode="normal" in="SourceGraphic" in2="effect1_backgroundBlur_538_32647" result="shape"/>
</filter>
<filter id="filter3_b_538_32647" x="-10" y="70" width="269.667" height="484" filterUnits="userSpaceOnUse" color-interpolation-filters="sRGB">
<feFlood flood-opacity="0" result="BackgroundImageFix"/>
<feGaussianBlur in="BackgroundImageFix" stdDeviation="25"/>
<feComposite in2="SourceAlpha" operator="in" result="effect1_backgroundBlur_538_32647"/>
<feBlend mode="normal" in="SourceGraphic" in2="effect1_backgroundBlur_538_32647" result="shape"/>
</filter>
<filter id="filter4_b_538_32647" x="167.667" y="-10" width="269.667" height="484" filterUnits="userSpaceOnUse" color-interpolation-filters="sRGB">
<feFlood flood-opacity="0" result="BackgroundImageFix"/>
<feGaussianBlur in="BackgroundImageFix" stdDeviation="25"/>
<feComposite in2="SourceAlpha" operator="in" result="effect1_backgroundBlur_538_32647"/>
<feBlend mode="normal" in="SourceGraphic" in2="effect1_backgroundBlur_538_32647" result="shape"/>
</filter>
<filter id="filter5_b_538_32647" x="345.333" y="41.5" width="269.667" height="484" filterUnits="userSpaceOnUse" color-interpolation-filters="sRGB">
<feFlood flood-opacity="0" result="BackgroundImageFix"/>
<feGaussianBlur in="BackgroundImageFix" stdDeviation="25"/>
<feComposite in2="SourceAlpha" operator="in" result="effect1_backgroundBlur_538_32647"/>
<feBlend mode="normal" in="SourceGraphic" in2="effect1_backgroundBlur_538_32647" result="shape"/>
</filter>
<linearGradient id="paint0_linear_538_32647" x1="124.833" y1="120" x2="124.833" y2="504" gradientUnits="userSpaceOnUse">
<stop stop-color="white" stop-opacity="0.5"/>
<stop offset="1" stop-color="#BAADFF" stop-opacity="0.5"/>
</linearGradient>
<linearGradient id="paint1_linear_538_32647" x1="302.5" y1="40" x2="302.5" y2="424" gradientUnits="userSpaceOnUse">
<stop stop-color="white" stop-opacity="0.5"/>
<stop offset="1" stop-color="#BAADFF" stop-opacity="0.5"/>
</linearGradient>
<linearGradient id="paint2_linear_538_32647" x1="480.167" y1="91.5" x2="480.167" y2="475.5" gradientUnits="userSpaceOnUse">
<stop stop-color="white" stop-opacity="0.5"/>
<stop offset="1" stop-color="#BAADFF" stop-opacity="0.5"/>
</linearGradient>
<linearGradient id="paint3_linear_538_32647" x1="124.833" y1="120" x2="124.833" y2="504" gradientUnits="userSpaceOnUse">
<stop stop-color="white" stop-opacity="0.2"/>
<stop offset="1" stop-color="#836EF9" stop-opacity="0.5"/>
</linearGradient>
<linearGradient id="paint4_linear_538_32647" x1="302.5" y1="40" x2="302.5" y2="424" gradientUnits="userSpaceOnUse">
<stop stop-color="white" stop-opacity="0.2"/>
<stop offset="1" stop-color="#836EF9" stop-opacity="0.5"/>
</linearGradient>
<linearGradient id="paint5_linear_538_32647" x1="480.167" y1="91.5" x2="480.167" y2="475.5" gradientUnits="userSpaceOnUse">
<stop stop-color="white" stop-opacity="0.2"/>
<stop offset="1" stop-color="#836EF9" stop-opacity="0.5"/>
</linearGradient>
<linearGradient id="paint6_linear_538_32647" x1="479.447" y1="153.037" x2="460.14" y2="288.192" gradientUnits="userSpaceOnUse">
<stop stop-color="#41AFE1"/>
<stop offset="1" stop-color="#3E6FCA"/>
</linearGradient>
<linearGradient id="paint7_linear_538_32647" x1="156.363" y1="283.701" x2="137.05" y2="418.897" gradientUnits="userSpaceOnUse">
<stop stop-color="#41AFE1"/>
<stop offset="1" stop-color="#3E6FCA"/>
</linearGradient>
<clipPath id="clip0_538_32647">
<rect width="605" height="544" fill="white"/>
</clipPath>
<clipPath id="clip1_538_32647">
<rect width="849" height="263" fill="white" transform="translate(-110 241)"/>
</clipPath>
<clipPath id="clip2_538_32647">
<rect width="435.22" height="314.43" fill="white" transform="translate(108.464 100) rotate(8.12955)"/>
</clipPath>
</defs>
</svg>
