<svg width="1449" height="5083" viewBox="0 0 1449 5083" fill="none" xmlns="http://www.w3.org/2000/svg">
<path d="M892.169 1.07345C992.669 -0.427063 1194.53 19.8408 1071.32 175.576C917.316 370.245 1462.95 522.44 1374.94 370.245C1286.94 218.049 618.101 391.481 1159.33 649.86C1592.31 856.563 741.307 910.598 261.682 911.778C93.8183 919.448 -163.822 996.388 148.525 1242.78C538.959 1550.78 1245.37 1681.76 1202.35 1869.39C1159.33 2057.02 -384.689 2873.07 148.525 2873.07C1321.67 2873.07 252.813 3344.97 713.669 3505.07C854.214 3553.9 1448.62 3471.24 1417.67 3781.07C1360.01 4358.35 -59.1312 4084.27 97.6688 4401.07C293.669 4797.07 1417.67 4945.07 1447.67 5081.07" stroke="white" stroke-width="2" stroke-linecap="square"/>
<path d="M516.219 531.962C516.52 531.045 517.817 531.045 518.118 531.962L522.827 546.278C522.926 546.579 523.162 546.816 523.464 546.915L537.78 551.623C538.697 551.925 538.697 553.222 537.78 553.523L523.464 558.232C523.162 558.331 522.926 558.567 522.827 558.869L518.118 573.185C517.817 574.102 516.52 574.102 516.219 573.185L511.51 558.869C511.411 558.567 511.174 558.331 510.873 558.232L496.557 553.523C495.64 553.222 495.64 551.925 496.557 551.623L510.873 546.915C511.174 546.816 511.411 546.579 511.51 546.278L516.219 531.962Z" fill="white"/>
<path d="M1060.54 157.466C1060.67 156.51 1061.95 156.277 1062.41 157.125L1069.61 170.366C1069.76 170.645 1070.03 170.835 1070.35 170.879L1085.28 172.945C1086.23 173.077 1086.47 174.353 1085.62 174.814L1072.38 182.012C1072.1 182.163 1071.91 182.439 1071.86 182.753L1069.8 197.681C1069.67 198.637 1068.39 198.869 1067.93 198.022L1060.73 184.781C1060.58 184.502 1060.3 184.312 1059.99 184.268L1045.06 182.202C1044.11 182.07 1043.87 180.794 1044.72 180.333L1057.96 173.135C1058.24 172.984 1058.43 172.708 1058.47 172.394L1060.54 157.466Z" fill="white"/>
<path d="M1158.94 811.665C1159.72 811.1 1160.77 811.862 1160.48 812.781L1156.72 824.493C1156.63 824.795 1156.68 825.126 1156.87 825.383L1164.07 835.353C1164.63 836.135 1163.87 837.185 1162.95 836.891L1151.24 833.141C1150.94 833.044 1150.61 833.096 1150.35 833.282L1140.38 840.482C1139.6 841.047 1138.55 840.285 1138.84 839.366L1142.59 827.654C1142.69 827.352 1142.63 827.021 1142.45 826.764L1135.25 816.794C1134.68 816.012 1135.45 814.962 1136.37 815.256L1148.08 819.006C1148.38 819.103 1148.71 819.051 1148.97 818.865L1158.94 811.665Z" fill="white"/>
<path d="M846.712 1423.45C846.372 1422.55 847.383 1421.74 848.193 1422.26L855.85 1427.23C856.116 1427.4 856.449 1427.44 856.746 1427.33L865.291 1424.12C866.195 1423.78 867.007 1424.79 866.482 1425.6L861.511 1433.25C861.339 1433.52 861.302 1433.85 861.414 1434.15L864.626 1442.7C864.966 1443.6 863.955 1444.41 863.146 1443.89L855.489 1438.92C855.222 1438.74 854.889 1438.71 854.592 1438.82L846.047 1442.03C845.144 1442.37 844.331 1441.36 844.856 1440.55L849.827 1432.89C850 1432.63 850.036 1432.29 849.924 1432L846.712 1423.45Z" fill="white"/>
<path d="M298.102 3011.06C298.874 3010.48 299.938 3011.22 299.66 3012.14L297.948 3017.85C297.857 3018.16 297.916 3018.49 298.106 3018.74L301.685 3023.51C302.264 3024.28 301.522 3025.34 300.598 3025.07L294.888 3023.35C294.584 3023.26 294.255 3023.32 294.001 3023.51L289.234 3027.09C288.462 3027.67 287.399 3026.93 287.676 3026L289.388 3020.29C289.479 3019.99 289.421 3019.66 289.23 3019.41L285.652 3014.64C285.072 3013.87 285.814 3012.8 286.739 3013.08L292.448 3014.79C292.752 3014.88 293.081 3014.83 293.335 3014.64L298.102 3011.06Z" fill="white"/>
<path d="M434.091 1204.24C434.705 1203.49 435.913 1203.96 435.861 1204.93L435.541 1210.88C435.524 1211.2 435.658 1211.5 435.903 1211.71L440.503 1215.5C441.248 1216.11 440.777 1217.32 439.813 1217.27L433.861 1216.95C433.544 1216.93 433.238 1217.06 433.036 1217.31L429.245 1221.91C428.631 1222.65 427.423 1222.18 427.475 1221.22L427.796 1215.27C427.813 1214.95 427.678 1214.64 427.433 1214.44L422.833 1210.65C422.089 1210.04 422.56 1208.83 423.523 1208.88L429.475 1209.2C429.792 1209.22 430.098 1209.08 430.3 1208.84L434.091 1204.24Z" fill="white"/>
<path d="M533.292 1903.5C533.218 1902.53 534.416 1902.04 535.046 1902.77L538.94 1907.28C539.147 1907.52 539.457 1907.65 539.773 1907.62L545.716 1907.17C546.679 1907.1 547.177 1908.29 546.446 1908.92L541.933 1912.82C541.693 1913.02 541.565 1913.33 541.589 1913.65L542.044 1919.59C542.118 1920.56 540.92 1921.05 540.29 1920.32L536.396 1915.81C536.189 1915.57 535.879 1915.44 535.563 1915.47L529.62 1915.92C528.658 1915.99 528.16 1914.8 528.89 1914.17L533.403 1910.27C533.644 1910.07 533.771 1909.76 533.747 1909.44L533.292 1903.5Z" fill="white"/>
<path d="M147.168 2143.57C147.679 2142.7 148.999 2143.05 149.028 2144.05L149.467 2159.67C149.476 2159.98 149.633 2160.28 149.892 2160.46L161.763 2168.78C162.521 2169.31 162.213 2170.5 161.293 2170.59L146.876 2172.1C146.561 2172.13 146.281 2172.31 146.12 2172.58L138.148 2186.02C137.637 2186.88 136.316 2186.54 136.288 2185.54L135.849 2169.92C135.84 2169.6 135.682 2169.31 135.423 2169.13L123.553 2160.81C122.795 2160.28 123.103 2159.09 124.023 2159L138.44 2157.49C138.754 2157.46 139.035 2157.28 139.196 2157.01L147.168 2143.57Z" fill="white"/>
<path d="M1213.85 2303.44C1213.89 2302.48 1215.14 2302.13 1215.68 2302.94L1224.69 2316.47C1224.87 2316.73 1225.16 2316.9 1225.48 2316.91L1241.72 2317.69C1242.68 2317.74 1243.03 2318.99 1242.22 2319.52L1228.69 2328.54C1228.43 2328.71 1228.26 2329 1228.25 2329.32L1227.47 2345.56C1227.42 2346.52 1226.17 2346.87 1225.64 2346.07L1216.62 2332.54C1216.45 2332.27 1216.16 2332.11 1215.84 2332.09L1199.6 2331.31C1198.64 2331.27 1198.29 2330.02 1199.09 2329.48L1212.62 2320.47C1212.89 2320.29 1213.05 2320 1213.07 2319.68L1213.85 2303.44Z" fill="white"/>
<path d="M703.719 3259.96C704.021 3259.05 705.318 3259.05 705.619 3259.96L706.492 3262.61C706.591 3262.92 706.827 3263.15 707.129 3263.25L709.781 3264.12C710.698 3264.43 710.698 3265.72 709.781 3266.02L707.129 3266.9C706.827 3266.99 706.591 3267.23 706.492 3267.53L705.619 3270.19C705.318 3271.1 704.021 3271.1 703.719 3270.19L702.847 3267.53C702.748 3267.23 702.511 3266.99 702.21 3266.9L699.558 3266.02C698.641 3265.72 698.641 3264.43 699.558 3264.12L702.21 3263.25C702.511 3263.15 702.748 3262.92 702.847 3262.61L703.719 3259.96Z" fill="white"/>
<path d="M811.583 2643.88C812.137 2643.09 813.378 2643.46 813.402 2644.43L813.47 2647.22C813.477 2647.53 813.635 2647.83 813.896 2648.01L816.182 2649.61C816.972 2650.17 816.597 2651.41 815.632 2651.43L812.842 2651.5C812.524 2651.51 812.229 2651.67 812.047 2651.93L810.445 2654.21C809.891 2655 808.65 2654.63 808.626 2653.66L808.558 2650.87C808.551 2650.56 808.393 2650.26 808.133 2650.08L805.846 2648.48C805.056 2647.92 805.431 2646.68 806.396 2646.66L809.186 2646.59C809.504 2646.58 809.799 2646.42 809.981 2646.16L811.583 2643.88Z" fill="white"/>
<path d="M988.719 2004.96C989.021 2004.05 990.318 2004.05 990.619 2004.96L993.471 2013.63C993.571 2013.94 993.807 2014.17 994.109 2014.27L1002.78 2017.12C1003.7 2017.43 1003.7 2018.72 1002.78 2019.02L994.109 2021.88C993.807 2021.97 993.571 2022.21 993.471 2022.51L990.619 2031.19C990.318 2032.1 989.021 2032.1 988.719 2031.19L985.867 2022.51C985.768 2022.21 985.532 2021.97 985.23 2021.88L976.558 2019.02C975.641 2018.72 975.641 2017.43 976.558 2017.12L985.23 2014.27C985.532 2014.17 985.768 2013.94 985.867 2013.63L988.719 2004.96Z" fill="white"/>
<path d="M1340.97 1831.38C1340.8 1830.43 1341.95 1829.82 1342.65 1830.49L1356.13 1843.35C1356.36 1843.56 1356.68 1843.66 1357 1843.61L1375.35 1840.39C1376.3 1840.22 1376.91 1841.36 1376.25 1842.06L1363.39 1855.55C1363.17 1855.78 1363.07 1856.1 1363.12 1856.41L1366.35 1874.77C1366.51 1875.72 1365.37 1876.33 1364.67 1875.66L1351.18 1862.8C1350.95 1862.58 1350.63 1862.49 1350.32 1862.54L1331.97 1865.76C1331.02 1865.93 1330.4 1864.78 1331.07 1864.09L1343.93 1850.6C1344.15 1850.37 1344.25 1850.05 1344.19 1849.74L1340.97 1831.38Z" fill="white"/>
<path d="M199.719 3421.89C200.021 3420.97 201.317 3420.97 201.619 3421.89L207.441 3439.59C207.54 3439.89 207.777 3440.13 208.078 3440.23L225.781 3446.05C226.697 3446.35 226.697 3447.65 225.781 3447.95L208.078 3453.77C207.777 3453.87 207.54 3454.11 207.441 3454.41L201.619 3472.11C201.317 3473.03 200.021 3473.03 199.719 3472.11L193.897 3454.41C193.798 3454.11 193.561 3453.87 193.26 3453.77L175.557 3447.95C174.641 3447.65 174.641 3446.35 175.557 3446.05L193.26 3440.23C193.561 3440.13 193.798 3439.89 193.897 3439.59L199.719 3421.89Z" fill="white"/>
<path d="M234.719 3899.96C235.021 3899.04 236.317 3899.04 236.619 3899.96L242.441 3917.66C242.54 3917.97 242.777 3918.2 243.078 3918.3L260.781 3924.12C261.697 3924.42 261.697 3925.72 260.781 3926.02L243.078 3931.85C242.777 3931.94 242.54 3932.18 242.441 3932.48L236.619 3950.18C236.317 3951.1 235.021 3951.1 234.719 3950.18L228.897 3932.48C228.798 3932.18 228.561 3931.94 228.26 3931.85L210.557 3926.02C209.641 3925.72 209.641 3924.42 210.557 3924.12L228.26 3918.3C228.561 3918.2 228.798 3917.97 228.897 3917.66L234.719 3899.96Z" fill="white"/>
<path d="M888.719 4075.96C889.021 4075.04 890.317 4075.04 890.619 4075.96L896.441 4093.66C896.54 4093.97 896.777 4094.2 897.078 4094.3L914.781 4100.12C915.697 4100.42 915.697 4101.72 914.781 4102.02L897.078 4107.85C896.777 4107.94 896.54 4108.18 896.441 4108.48L890.619 4126.18C890.317 4127.1 889.021 4127.1 888.719 4126.18L882.897 4108.48C882.798 4108.18 882.561 4107.94 882.26 4107.85L864.557 4102.02C863.641 4101.72 863.641 4100.42 864.557 4100.12L882.26 4094.3C882.561 4094.2 882.798 4093.97 882.897 4093.66L888.719 4075.96Z" fill="white"/>
<path d="M1301.72 3935.96C1302.02 3935.04 1303.32 3935.04 1303.62 3935.96L1304.49 3938.61C1304.59 3938.92 1304.83 3939.15 1305.13 3939.25L1307.78 3940.12C1308.7 3940.42 1308.7 3941.72 1307.78 3942.02L1305.13 3942.9C1304.83 3942.99 1304.59 3943.23 1304.49 3943.53L1303.62 3946.18C1303.32 3947.1 1302.02 3947.1 1301.72 3946.18L1300.85 3943.53C1300.75 3943.23 1300.51 3942.99 1300.21 3942.9L1297.56 3942.02C1296.64 3941.72 1296.64 3940.42 1297.56 3940.12L1300.21 3939.25C1300.51 3939.15 1300.75 3938.92 1300.85 3938.61L1301.72 3935.96Z" fill="white"/>
<path d="M552.719 4747.96C553.021 4747.04 554.317 4747.04 554.619 4747.96L560.441 4765.66C560.54 4765.97 560.777 4766.2 561.078 4766.3L578.781 4772.12C579.697 4772.42 579.697 4773.72 578.781 4774.02L561.078 4779.85C560.777 4779.94 560.54 4780.18 560.441 4780.48L554.619 4798.18C554.317 4799.1 553.021 4799.1 552.719 4798.18L546.897 4780.48C546.798 4780.18 546.561 4779.94 546.26 4779.85L528.557 4774.02C527.641 4773.72 527.641 4772.42 528.557 4772.12L546.26 4766.3C546.561 4766.2 546.798 4765.97 546.897 4765.66L552.719 4747.96Z" fill="white"/>
<path d="M496.719 4783.96C497.021 4783.04 498.317 4783.04 498.619 4783.96L504.441 4801.66C504.54 4801.97 504.777 4802.2 505.078 4802.3L522.781 4808.12C523.697 4808.42 523.697 4809.72 522.781 4810.02L505.078 4815.85C504.777 4815.94 504.54 4816.18 504.441 4816.48L498.619 4834.18C498.317 4835.1 497.021 4835.1 496.719 4834.18L490.897 4816.48C490.798 4816.18 490.561 4815.94 490.26 4815.85L472.557 4810.02C471.641 4809.72 471.641 4808.42 472.557 4808.12L490.26 4802.3C490.561 4802.2 490.798 4801.97 490.897 4801.66L496.719 4783.96Z" fill="white"/>
<path d="M112.719 4947.96C113.021 4947.04 114.317 4947.04 114.619 4947.96L116.481 4953.62C116.58 4953.93 116.817 4954.16 117.119 4954.26L122.781 4956.12C123.697 4956.42 123.697 4957.72 122.781 4958.02L117.119 4959.89C116.817 4959.98 116.58 4960.22 116.481 4960.52L114.619 4966.18C114.317 4967.1 113.021 4967.1 112.719 4966.18L110.857 4960.52C110.758 4960.22 110.521 4959.98 110.219 4959.89L104.557 4958.02C103.641 4957.72 103.641 4956.42 104.557 4956.12L110.219 4954.26C110.521 4954.16 110.758 4953.93 110.857 4953.62L112.719 4947.96Z" fill="white"/>
<path d="M1204.72 4983.96C1205.02 4983.04 1206.32 4983.04 1206.62 4983.96L1210.46 4995.64C1210.56 4995.95 1210.8 4996.18 1211.1 4996.28L1222.78 5000.12C1223.7 5000.42 1223.7 5001.72 1222.78 5002.02L1211.1 5005.87C1210.8 5005.96 1210.56 5006.2 1210.46 5006.5L1206.62 5018.18C1206.32 5019.1 1205.02 5019.1 1204.72 5018.18L1200.88 5006.5C1200.78 5006.2 1200.54 5005.96 1200.24 5005.87L1188.56 5002.02C1187.64 5001.72 1187.64 5000.42 1188.56 5000.12L1200.24 4996.28C1200.54 4996.18 1200.78 4995.95 1200.88 4995.64L1204.72 4983.96Z" fill="white"/>
<path d="M1239.27 3529.4C1239.24 3528.44 1240.46 3528 1241.06 3528.76L1242.78 3530.95C1242.97 3531.2 1243.28 3531.35 1243.59 3531.34L1246.38 3531.26C1247.35 3531.23 1247.79 3532.45 1247.03 3533.05L1244.83 3534.77C1244.58 3534.96 1244.44 3535.27 1244.45 3535.58L1244.52 3538.37C1244.55 3539.34 1243.33 3539.78 1242.74 3539.02L1241.02 3536.82C1240.82 3536.57 1240.52 3536.43 1240.2 3536.43L1237.41 3536.51C1236.45 3536.54 1236.01 3535.32 1236.77 3534.73L1238.97 3533.01C1239.22 3532.81 1239.36 3532.51 1239.35 3532.19L1239.27 3529.4Z" fill="white"/>
<path d="M212.219 851.962C212.52 851.045 213.817 851.045 214.118 851.962L215.857 857.248C215.956 857.549 216.193 857.786 216.494 857.885L221.78 859.623C222.697 859.925 222.697 861.222 221.78 861.523L216.494 863.262C216.193 863.361 215.956 863.598 215.857 863.899L214.118 869.185C213.817 870.102 212.52 870.102 212.219 869.185L210.48 863.899C210.381 863.598 210.144 863.361 209.843 863.262L204.557 861.523C203.64 861.222 203.64 859.925 204.557 859.623L209.843 857.885C210.144 857.786 210.381 857.549 210.48 857.248L212.219 851.962Z" fill="white"/>
</svg>
