<svg width="1440" height="4216" viewBox="0 0 1440 4216" fill="none" xmlns="http://www.w3.org/2000/svg">
<g clip-path="url(#clip0_366_540)">
<g filter="url(#filter0_f_366_540)">
<circle cx="1440" cy="2406" r="800" fill="url(#paint0_radial_366_540)" fill-opacity="0.4"/>
</g>
<g filter="url(#filter1_f_366_540)">
<circle cx="469" cy="134" r="1000" fill="url(#paint1_radial_366_540)" fill-opacity="0.4"/>
</g>
<path d="M887.5 0.073454C988 -1.42706 1189.86 18.8408 1066.66 174.576C912.647 369.245 1458.28 521.44 1370.27 369.245C1282.27 217.049 613.432 390.481 1154.66 648.86C1587.64 855.563 736.638 909.598 257.013 910.778C89.1493 918.448 -168.491 995.388 143.856 1241.78C534.29 1549.78 1240.71 1680.76 1197.68 1868.39C1154.66 2056.02 -389.358 2872.07 143.856 2872.07C1317 2872.07 248.144 3343.97 709 3504.07C849.545 3552.9 1443.95 3470.24 1413 3780.07C1355.34 4357.35 -63.8002 4083.27 92.9998 4400.07C289 4796.07 1413 4944.07 1443 5080.07" stroke="white" stroke-width="2" stroke-linecap="square"/>
<path d="M511.55 530.962C511.851 530.045 513.148 530.045 513.449 530.962L518.158 545.278C518.257 545.579 518.494 545.816 518.795 545.915L533.111 550.623C534.028 550.925 534.028 552.222 533.111 552.523L518.795 557.232C518.494 557.331 518.257 557.567 518.158 557.869L513.449 572.185C513.148 573.102 511.851 573.102 511.55 572.185L506.841 557.869C506.742 557.567 506.505 557.331 506.204 557.232L491.888 552.523C490.971 552.222 490.971 550.925 491.888 550.623L506.204 545.915C506.505 545.816 506.742 545.579 506.841 545.278L511.55 530.962Z" fill="white"/>
<path d="M1055.87 156.466C1056 155.51 1057.28 155.277 1057.74 156.125L1064.94 169.366C1065.09 169.645 1065.37 169.835 1065.68 169.879L1080.61 171.945C1081.56 172.077 1081.8 173.353 1080.95 173.814L1067.71 181.012C1067.43 181.163 1067.24 181.439 1067.2 181.753L1065.13 196.681C1065 197.637 1063.72 197.869 1063.26 197.022L1056.06 183.781C1055.91 183.502 1055.64 183.312 1055.32 183.268L1040.39 181.202C1039.44 181.07 1039.2 179.794 1040.05 179.333L1053.29 172.135C1053.57 171.984 1053.76 171.708 1053.81 171.394L1055.87 156.466Z" fill="white"/>
<path d="M1154.27 810.665C1155.05 810.1 1156.1 810.862 1155.81 811.781L1152.06 823.493C1151.96 823.795 1152.01 824.126 1152.2 824.383L1159.4 834.353C1159.96 835.135 1159.2 836.185 1158.28 835.891L1146.57 832.141C1146.27 832.044 1145.94 832.096 1145.68 832.282L1135.71 839.482C1134.93 840.047 1133.88 839.285 1134.17 838.366L1137.92 826.654C1138.02 826.352 1137.97 826.021 1137.78 825.764L1130.58 815.794C1130.02 815.012 1130.78 813.962 1131.7 814.256L1143.41 818.006C1143.71 818.103 1144.04 818.051 1144.3 817.865L1154.27 810.665Z" fill="white"/>
<path d="M842.043 1422.45C841.704 1421.55 842.714 1420.74 843.524 1421.26L851.181 1426.23C851.447 1426.4 851.78 1426.44 852.077 1426.33L860.623 1423.12C861.526 1422.78 862.339 1423.79 861.813 1424.6L856.843 1432.25C856.67 1432.52 856.634 1432.85 856.745 1433.15L859.958 1441.7C860.297 1442.6 859.287 1443.41 858.477 1442.89L850.82 1437.92C850.553 1437.74 850.221 1437.71 849.924 1437.82L841.378 1441.03C840.475 1441.37 839.662 1440.36 840.188 1439.55L845.158 1431.89C845.331 1431.63 845.367 1431.29 845.255 1431L842.043 1422.45Z" fill="white"/>
<path d="M293.433 3010.06C294.205 3009.48 295.269 3010.22 294.991 3011.14L293.279 3016.85C293.188 3017.16 293.247 3017.49 293.437 3017.74L297.016 3022.51C297.595 3023.28 296.853 3024.34 295.929 3024.07L290.219 3022.35C289.915 3022.26 289.586 3022.32 289.332 3022.51L284.565 3026.09C283.793 3026.67 282.73 3025.93 283.007 3025L284.719 3019.29C284.81 3018.99 284.752 3018.66 284.561 3018.41L280.983 3013.64C280.403 3012.87 281.145 3011.8 282.07 3012.08L287.779 3013.79C288.083 3013.88 288.412 3013.83 288.666 3013.64L293.433 3010.06Z" fill="white"/>
<path d="M429.422 1203.24C430.036 1202.49 431.244 1202.96 431.192 1203.93L430.872 1209.88C430.855 1210.2 430.989 1210.5 431.234 1210.71L435.834 1214.5C436.578 1215.11 436.108 1216.32 435.144 1216.27L429.192 1215.95C428.875 1215.93 428.569 1216.06 428.367 1216.31L424.576 1220.91C423.962 1221.65 422.754 1221.18 422.806 1220.22L423.126 1214.27C423.143 1213.95 423.009 1213.64 422.764 1213.44L418.164 1209.65C417.419 1209.04 417.89 1207.83 418.854 1207.88L424.806 1208.2C425.123 1208.22 425.429 1208.08 425.631 1207.84L429.422 1203.24Z" fill="white"/>
<path d="M528.623 1902.5C528.549 1901.53 529.747 1901.04 530.377 1901.77L534.271 1906.28C534.478 1906.52 534.788 1906.65 535.104 1906.62L541.047 1906.17C542.01 1906.1 542.508 1907.29 541.777 1907.92L537.264 1911.82C537.024 1912.02 536.896 1912.33 536.92 1912.65L537.375 1918.59C537.449 1919.56 536.251 1920.05 535.621 1919.32L531.727 1914.81C531.52 1914.57 531.21 1914.44 530.894 1914.47L524.951 1914.92C523.989 1914.99 523.491 1913.8 524.221 1913.17L528.734 1909.27C528.975 1909.07 529.102 1908.76 529.078 1908.44L528.623 1902.5Z" fill="white"/>
<path d="M142.499 2142.57C143.01 2141.7 144.331 2142.05 144.359 2143.05L144.798 2158.67C144.807 2158.98 144.965 2159.28 145.224 2159.46L157.094 2167.78C157.852 2168.31 157.544 2169.5 156.624 2169.59L142.207 2171.1C141.893 2171.13 141.612 2171.31 141.451 2171.58L133.479 2185.02C132.968 2185.88 131.648 2185.54 131.619 2184.54L131.18 2168.92C131.171 2168.6 131.014 2168.31 130.755 2168.13L118.884 2159.81C118.127 2159.28 118.434 2158.09 119.354 2158L133.771 2156.49C134.086 2156.46 134.366 2156.28 134.527 2156.01L142.499 2142.57Z" fill="white"/>
<path d="M1209.18 2302.44C1209.22 2301.48 1210.47 2301.13 1211.01 2301.94L1220.02 2315.47C1220.2 2315.73 1220.49 2315.9 1220.81 2315.91L1237.05 2316.69C1238.01 2316.74 1238.36 2317.99 1237.55 2318.52L1224.02 2327.54C1223.76 2327.71 1223.59 2328 1223.58 2328.32L1222.8 2344.56C1222.75 2345.52 1221.5 2345.87 1220.97 2345.07L1211.96 2331.54C1211.78 2331.27 1211.49 2331.11 1211.17 2331.09L1194.93 2330.31C1193.97 2330.27 1193.62 2329.02 1194.42 2328.48L1207.96 2319.47C1208.22 2319.29 1208.38 2319 1208.4 2318.68L1209.18 2302.44Z" fill="white"/>
<path d="M699.051 3258.96C699.352 3258.05 700.649 3258.05 700.95 3258.96L701.823 3261.61C701.922 3261.92 702.158 3262.15 702.46 3262.25L705.112 3263.12C706.029 3263.43 706.029 3264.72 705.112 3265.02L702.46 3265.9C702.158 3265.99 701.922 3266.23 701.823 3266.53L700.95 3269.19C700.649 3270.1 699.352 3270.1 699.051 3269.19L698.178 3266.53C698.079 3266.23 697.843 3265.99 697.541 3265.9L694.889 3265.02C693.972 3264.72 693.972 3263.43 694.889 3263.12L697.541 3262.25C697.843 3262.15 698.079 3261.92 698.178 3261.61L699.051 3258.96Z" fill="white"/>
<path d="M806.914 2642.88C807.468 2642.09 808.709 2642.46 808.733 2643.43L808.801 2646.22C808.808 2646.53 808.966 2646.83 809.227 2647.01L811.513 2648.61C812.303 2649.17 811.928 2650.41 810.964 2650.43L808.173 2650.5C807.855 2650.51 807.56 2650.67 807.378 2650.93L805.776 2653.21C805.222 2654 803.981 2653.63 803.958 2652.66L803.89 2649.87C803.882 2649.56 803.724 2649.26 803.464 2649.08L801.177 2647.48C800.387 2646.92 800.762 2645.68 801.727 2645.66L804.518 2645.59C804.835 2645.58 805.13 2645.42 805.312 2645.16L806.914 2642.88Z" fill="white"/>
<path d="M984.051 2003.96C984.352 2003.05 985.649 2003.05 985.95 2003.96L988.803 2012.63C988.902 2012.94 989.138 2013.17 989.44 2013.27L998.112 2016.12C999.029 2016.43 999.029 2017.72 998.112 2018.02L989.44 2020.88C989.138 2020.97 988.902 2021.21 988.803 2021.51L985.95 2030.19C985.649 2031.1 984.352 2031.1 984.051 2030.19L981.198 2021.51C981.099 2021.21 980.863 2020.97 980.561 2020.88L971.889 2018.02C970.972 2017.72 970.972 2016.43 971.889 2016.12L980.561 2013.27C980.863 2013.17 981.099 2012.94 981.198 2012.63L984.051 2003.96Z" fill="white"/>
<path d="M1336.3 1830.38C1336.14 1829.43 1337.28 1828.82 1337.98 1829.49L1351.46 1842.35C1351.69 1842.56 1352.01 1842.66 1352.33 1842.61L1370.68 1839.39C1371.63 1839.22 1372.24 1840.36 1371.58 1841.06L1358.72 1854.55C1358.5 1854.78 1358.4 1855.1 1358.46 1855.41L1361.68 1873.77C1361.84 1874.72 1360.7 1875.33 1360 1874.66L1346.51 1861.8C1346.29 1861.58 1345.96 1861.49 1345.65 1861.54L1327.3 1864.76C1326.35 1864.93 1325.73 1863.78 1326.4 1863.09L1339.26 1849.6C1339.48 1849.37 1339.58 1849.05 1339.52 1848.74L1336.3 1830.38Z" fill="white"/>
<path d="M195.05 3420.89C195.352 3419.97 196.648 3419.97 196.95 3420.89L202.772 3438.59C202.871 3438.89 203.108 3439.13 203.409 3439.23L221.112 3445.05C222.028 3445.35 222.028 3446.65 221.112 3446.95L203.409 3452.77C203.108 3452.87 202.871 3453.11 202.772 3453.41L196.95 3471.11C196.648 3472.03 195.352 3472.03 195.05 3471.11L189.228 3453.41C189.129 3453.11 188.892 3452.87 188.591 3452.77L170.888 3446.95C169.972 3446.65 169.972 3445.35 170.888 3445.05L188.591 3439.23C188.892 3439.13 189.129 3438.89 189.228 3438.59L195.05 3420.89Z" fill="white"/>
<path d="M230.05 3898.96C230.352 3898.04 231.648 3898.04 231.95 3898.96L237.772 3916.66C237.871 3916.97 238.108 3917.2 238.409 3917.3L256.112 3923.12C257.028 3923.42 257.028 3924.72 256.112 3925.02L238.409 3930.85C238.108 3930.94 237.871 3931.18 237.772 3931.48L231.95 3949.18C231.648 3950.1 230.352 3950.1 230.05 3949.18L224.228 3931.48C224.129 3931.18 223.892 3930.94 223.591 3930.85L205.888 3925.02C204.972 3924.72 204.972 3923.42 205.888 3923.12L223.591 3917.3C223.892 3917.2 224.129 3916.97 224.228 3916.66L230.05 3898.96Z" fill="white"/>
<path d="M884.05 4074.96C884.352 4074.04 885.648 4074.04 885.95 4074.96L891.772 4092.66C891.871 4092.97 892.108 4093.2 892.409 4093.3L910.112 4099.12C911.028 4099.42 911.028 4100.72 910.112 4101.02L892.409 4106.85C892.108 4106.94 891.871 4107.18 891.772 4107.48L885.95 4125.18C885.648 4126.1 884.352 4126.1 884.05 4125.18L878.228 4107.48C878.129 4107.18 877.892 4106.94 877.591 4106.85L859.888 4101.02C858.972 4100.72 858.972 4099.42 859.888 4099.12L877.591 4093.3C877.892 4093.2 878.129 4092.97 878.228 4092.66L884.05 4074.96Z" fill="white"/>
<path d="M1297.05 3934.96C1297.35 3934.04 1298.65 3934.04 1298.95 3934.96L1299.82 3937.61C1299.92 3937.92 1300.16 3938.15 1300.46 3938.25L1303.11 3939.12C1304.03 3939.42 1304.03 3940.72 1303.11 3941.02L1300.46 3941.9C1300.16 3941.99 1299.92 3942.23 1299.82 3942.53L1298.95 3945.18C1298.65 3946.1 1297.35 3946.1 1297.05 3945.18L1296.18 3942.53C1296.08 3942.23 1295.84 3941.99 1295.54 3941.9L1292.89 3941.02C1291.97 3940.72 1291.97 3939.42 1292.89 3939.12L1295.54 3938.25C1295.84 3938.15 1296.08 3937.92 1296.18 3937.61L1297.05 3934.96Z" fill="white"/>
<path d="M1234.6 3528.4C1234.57 3527.44 1235.79 3527 1236.39 3527.76L1238.11 3529.95C1238.3 3530.2 1238.61 3530.35 1238.92 3530.34L1241.72 3530.26C1242.68 3530.23 1243.12 3531.45 1242.36 3532.05L1240.16 3533.77C1239.91 3533.96 1239.77 3534.27 1239.78 3534.58L1239.86 3537.37C1239.88 3538.34 1238.66 3538.78 1238.07 3538.02L1236.35 3535.82C1236.15 3535.57 1235.85 3535.43 1235.53 3535.43L1232.74 3535.51C1231.78 3535.54 1231.34 3534.32 1232.1 3533.73L1234.3 3532.01C1234.55 3531.81 1234.69 3531.51 1234.68 3531.19L1234.6 3528.4Z" fill="white"/>
<path d="M207.55 850.962C207.851 850.045 209.148 850.045 209.45 850.962L211.188 856.248C211.287 856.549 211.524 856.786 211.826 856.885L217.111 858.623C218.028 858.925 218.028 860.222 217.111 860.523L211.826 862.262C211.524 862.361 211.287 862.598 211.188 862.899L209.45 868.185C209.148 869.102 207.851 869.102 207.55 868.185L205.811 862.899C205.712 862.598 205.476 862.361 205.174 862.262L199.888 860.523C198.971 860.222 198.971 858.925 199.888 858.623L205.174 856.885C205.476 856.786 205.712 856.549 205.811 856.248L207.55 850.962Z" fill="white"/>
</g>
<defs>
<filter id="filter0_f_366_540" x="140" y="1106" width="2600" height="2600" filterUnits="userSpaceOnUse" color-interpolation-filters="sRGB">
<feFlood flood-opacity="0" result="BackgroundImageFix"/>
<feBlend mode="normal" in="SourceGraphic" in2="BackgroundImageFix" result="shape"/>
<feGaussianBlur stdDeviation="250" result="effect1_foregroundBlur_366_540"/>
</filter>
<filter id="filter1_f_366_540" x="-1031" y="-1366" width="3000" height="3000" filterUnits="userSpaceOnUse" color-interpolation-filters="sRGB">
<feFlood flood-opacity="0" result="BackgroundImageFix"/>
<feBlend mode="normal" in="SourceGraphic" in2="BackgroundImageFix" result="shape"/>
<feGaussianBlur stdDeviation="250" result="effect1_foregroundBlur_366_540"/>
</filter>
<radialGradient id="paint0_radial_366_540" cx="0" cy="0" r="1" gradientUnits="userSpaceOnUse" gradientTransform="translate(1440 2406) rotate(135) scale(1131.37 3547.18)">
<stop stop-color="#68C2EF"/>
<stop offset="1" stop-color="#FFEBE2"/>
</radialGradient>
<radialGradient id="paint1_radial_366_540" cx="0" cy="0" r="1" gradientUnits="userSpaceOnUse" gradientTransform="translate(469 134) rotate(135) scale(1414.21 4433.97)">
<stop stop-color="#68C2EF"/>
<stop offset="1" stop-color="#FFEBE2"/>
</radialGradient>
<clipPath id="clip0_366_540">
<rect width="1440" height="4216" fill="white"/>
</clipPath>
</defs>
</svg>
