<svg width="168" height="42" viewBox="0 0 168 42" fill="none" xmlns="http://www.w3.org/2000/svg">
    <path d="M12.8825 15.5366V0L0 21.388L12.8825 15.5366Z" fill="#8891B1"/>
    <path d="M12.8825 29.0089V15.5366L0 21.388L12.8825 29.0089ZM12.8825 15.5366L25.7805 21.388L12.8825 0V15.5366Z" fill="#63688E"/>
    <path d="M12.8826 15.5366V29.0088L25.7806 21.388L12.8826 15.5366Z" fill="#464A75"/>
    <path d="M12.8825 31.4457L0 23.8403L12.8825 42V31.4457Z" fill="#8891B1"/>
    <path d="M25.7806 23.8403L12.8826 31.4457V42L25.7806 23.8403Z" fill="#63688E"/>
    <path d="M47.3239 24.275C47.3239 24.5699 47.06 24.8337 46.7651 24.8337H36.4591C36.723 27.2861 38.6321 29.6763 41.3327 29.6763C43.1798 29.6763 44.5456 28.9623 45.5855 27.4723C45.6942 27.3171 45.8494 27.2085 46.0356 27.2085C46.3305 27.2085 46.5478 27.4257 46.5478 27.7206C46.5478 27.8293 46.5168 27.9069 46.4702 27.9845C45.4303 29.8005 43.366 30.6852 41.3327 30.6852C37.856 30.6852 35.3882 27.581 35.3882 24.2595C35.3882 20.9379 37.856 17.8493 41.3327 17.8493C44.8095 17.8493 47.3239 20.9535 47.3239 24.275ZM46.2064 23.7783C45.9891 21.1552 44.0334 18.9047 41.3327 18.9047C38.6321 18.9047 36.7075 21.1552 36.4591 23.7783H46.2064ZM59.8494 18.02C60.1443 18.02 60.3616 18.2838 60.3616 18.5477C60.3616 18.8426 60.1443 19.0754 59.8494 19.0754H57.0866V29.9712C57.0866 30.2351 56.8538 30.4834 56.5589 30.4834C56.264 30.4834 56.0312 30.2195 56.0312 29.9712V19.0754H53.3771C53.0822 19.0754 52.8649 18.8426 52.8649 18.5477C52.8649 18.2838 53.0822 18.02 53.3771 18.02H56.0312V14.0776C56.0312 13.7827 56.264 13.5654 56.5589 13.5654C56.8538 13.5654 57.0866 13.7827 57.0866 14.0776V18.02H59.8494ZM76.6432 23.3127V29.8936C76.6432 30.1885 76.4724 30.4058 76.2086 30.4058C75.9137 30.4058 75.774 30.1885 75.774 29.8936V23.3127C75.774 21.0932 74.4857 18.8736 72.0024 18.8736C68.8206 18.8736 67.4081 21.6519 67.5789 24.4923C67.5789 24.5699 67.5634 24.8958 67.5634 24.9424V29.8936C67.5634 30.1885 67.4237 30.4058 67.1288 30.4058C66.8339 30.4058 66.6942 30.1885 66.6942 29.8936V8.27275C66.6942 8.0089 66.8339 7.76056 67.1288 7.76056C67.4237 7.76056 67.5634 8.02442 67.5634 8.27275V20.5034C68.6188 18.9202 70.0312 17.8493 71.8782 17.8493C74.9048 17.8493 76.6432 20.5034 76.6432 23.3127ZM95.2374 24.275C95.2374 24.5699 94.9736 24.8337 94.6787 24.8337H84.3727C84.6365 27.2861 86.5456 29.6763 89.2463 29.6763C91.0933 29.6763 92.4591 28.9623 93.4991 27.4723C93.6077 27.3171 93.7629 27.2085 93.9492 27.2085C94.2441 27.2085 94.4614 27.4257 94.4614 27.7206C94.4614 27.8293 94.4303 27.9069 94.3838 27.9845C93.3438 29.8005 91.2795 30.6852 89.2463 30.6852C85.7696 30.6852 83.3017 27.581 83.3017 24.2595C83.3017 20.9379 85.7696 17.8493 89.2463 17.8493C92.723 17.8493 95.2374 20.9535 95.2374 24.275ZM94.1354 23.7783C93.9181 21.1552 91.9625 18.9047 89.2618 18.9047C86.5611 18.9047 84.6365 21.1552 84.3882 23.7783H94.1354ZM107.918 18.5477C107.918 18.8736 107.732 19.0599 107.421 19.1065C104.395 19.5566 103.013 22.0244 103.013 24.9113V29.847C103.013 30.1419 102.781 30.3592 102.486 30.3592C102.191 30.3592 101.958 30.1419 101.958 29.847V18.5787C101.958 18.2838 102.191 18.0665 102.486 18.0665C102.781 18.0665 103.013 18.2838 103.013 18.5787V20.8759C103.883 19.4324 105.574 18.0665 107.344 18.0665C107.608 18.0665 107.918 18.2528 107.918 18.5477ZM124.867 24.275C124.867 24.5699 124.603 24.8337 124.308 24.8337H114.002C114.266 27.2861 116.175 29.6763 118.876 29.6763C120.723 29.6763 122.089 28.9623 123.129 27.4723C123.237 27.3171 123.393 27.2085 123.579 27.2085C123.874 27.2085 124.091 27.4257 124.091 27.7206C124.091 27.8293 124.06 27.9069 124.013 27.9845C122.974 29.8005 120.909 30.6852 118.876 30.6852C115.399 30.6852 112.931 27.581 112.931 24.2595C112.931 20.9379 115.399 17.8493 118.876 17.8493C122.353 17.8337 124.867 20.9535 124.867 24.275ZM123.765 23.7783C123.548 21.1552 121.592 18.9047 118.892 18.9047C116.191 18.9047 114.266 21.1552 114.018 23.7783H123.765ZM141.614 18.6563V29.9557C141.614 30.2506 141.351 30.4679 141.087 30.4679C140.792 30.4679 140.559 30.2506 140.559 29.9557V27.8293C139.69 29.5211 138.184 30.7473 136.26 30.7473C133.186 30.7473 131.479 28.0932 131.479 25.2838V18.6719C131.479 18.408 131.712 18.1597 132.007 18.1597C132.302 18.1597 132.535 18.4235 132.535 18.6719V25.2838C132.535 27.5034 133.792 29.7229 136.275 29.7229C139.752 29.7229 140.574 26.479 140.574 22.8936V18.6874C140.574 18.4235 140.807 18.1752 141.102 18.1752C141.35 18.1442 141.614 18.408 141.614 18.6563ZM167.628 23.2816V29.8936C167.628 30.1885 167.364 30.4058 167.1 30.4058C166.805 30.4058 166.572 30.1885 166.572 29.8936V23.2816C166.572 21.0621 165.315 18.8892 162.832 18.8892C159.727 18.8892 158.532 22.2107 158.532 24.8027V29.8936C158.532 30.1885 158.268 30.4058 158.005 30.4058C157.71 30.4058 157.477 30.1885 157.477 29.8936V23.2816C157.477 21.0621 156.251 18.8892 153.783 18.8892C150.648 18.8892 149.344 21.357 149.452 24.6475V29.8936C149.452 30.1885 149.22 30.4058 148.925 30.4058C148.63 30.4058 148.397 30.1885 148.397 29.8936V18.5943C148.397 18.2994 148.63 18.0821 148.925 18.0821C149.22 18.0821 149.452 18.2994 149.452 18.5943V20.4723C150.322 18.8892 151.951 17.8493 153.798 17.8493C155.909 17.8493 157.539 19.1841 158.206 21.1397C159.06 19.2151 160.721 17.8493 162.863 17.8493C165.905 17.8493 167.628 20.4723 167.628 23.2816Z" fill="#8891B1"/>
    </svg>
    