<svg width="155" height="30" viewBox="0 0 155 30" fill="none" xmlns="http://www.w3.org/2000/svg">
    <g clip-path="url(#clip0_489_21272)">
    <path d="M24.5531 0L15.1873 5.38119V22.1761L10.0198 25.173L4.82073 22.1737V16.1776L10.0198 13.2075L13.3629 15.147V10.2957L9.99068 8.38046L0.627441 13.8224V24.5872L10.0223 30L19.3855 24.5872V7.7947L24.5846 4.79542L29.7813 7.7947V13.7641L24.5846 16.7901L21.2125 14.8335V19.6605L24.5531 21.588L34.0087 16.2067V5.38119L24.5531 0Z" fill="#7B3FE4"/>
    <path fill-rule="evenodd" clip-rule="evenodd" d="M79.5007 23.316H83.6989V0.294067H79.5007V23.316ZM52.5115 6.95128C54.5012 6.95128 56.1509 7.75092 57.4555 9.34778C58.7625 10.9446 59.4136 12.9255 59.4136 15.2905C59.4136 17.6554 58.7602 19.6362 57.4555 21.2331C56.1484 22.8299 54.5012 23.6296 52.5115 23.6296C51.1024 23.6296 49.878 23.1945 48.843 22.322C47.8275 21.43 47.0817 20.2269 46.603 18.7126V29.5382H42.4048V7.26239H46.603V11.8658C47.0792 10.3516 47.8275 9.15819 48.843 8.28807C49.8803 7.39607 51.1024 6.95128 52.5115 6.95128ZM50.9857 19.8015C52.1253 19.8015 53.0897 19.3761 53.8769 18.5255C54.664 17.6554 55.0576 16.5762 55.0576 15.2905C55.0576 14.0047 54.664 12.9669 53.8769 12.1162C53.0897 11.246 52.1253 10.8085 50.9857 10.8085C49.72 10.8085 48.6754 11.2339 47.8445 12.0846C47.0161 12.9352 46.6006 14.0022 46.6006 15.288C46.6006 16.5737 47.0161 17.6529 47.8445 18.523C48.673 19.3737 49.72 19.7991 50.9857 19.7991V19.8015ZM60.5288 15.2905C60.5288 17.6554 61.3475 19.6362 62.985 21.2331C64.6225 22.8299 66.6656 23.6296 69.1122 23.6296C71.5587 23.6296 73.6019 22.8299 75.2394 21.2331C76.8768 19.6362 77.6956 17.6554 77.6956 15.2905C77.6956 12.9255 76.8768 10.9446 75.2394 9.34778C73.6019 7.75092 71.5587 6.95128 69.1122 6.95128C66.6656 6.95128 64.6225 7.75092 62.985 9.34778C61.3475 10.9446 60.5288 12.9255 60.5288 15.2905ZM66.0948 18.5255C65.2857 17.6554 64.8824 16.5762 64.8824 15.2905C64.8824 14.0047 65.2857 12.9669 66.0948 12.1162C66.9038 11.246 67.9096 10.8085 69.1122 10.8085C70.3148 10.8085 71.3207 11.2339 72.1296 12.0846C72.9386 12.9352 73.3419 14.0022 73.3419 15.288C73.3419 16.5737 72.9386 17.6529 72.1296 18.523C71.3207 19.3737 70.3148 19.7991 69.1122 19.7991C67.9096 19.7991 66.9038 19.3737 66.0948 18.523V18.5255ZM122.483 21.2331C120.846 19.6362 120.027 17.6554 120.027 15.2905C120.027 12.9255 120.846 10.9446 122.483 9.34778C124.121 7.75092 126.164 6.95128 128.61 6.95128C131.057 6.95128 133.099 7.75092 134.738 9.34778C136.376 10.9446 137.194 12.9255 137.194 15.2905C137.194 17.6554 136.376 19.6362 134.738 21.2331C133.099 22.8299 131.057 23.6296 128.61 23.6296C126.164 23.6296 124.123 22.8299 122.483 21.2331ZM124.378 15.2905C124.378 16.5762 124.782 17.6554 125.59 18.5255C126.4 19.3761 127.406 19.8015 128.608 19.8015C129.811 19.8015 130.817 19.3761 131.625 18.5255C132.435 17.6554 132.837 16.5762 132.837 15.2905C132.837 14.0047 132.435 12.9352 131.625 12.087C130.817 11.2363 129.811 10.811 128.608 10.811C127.406 10.811 126.4 11.246 125.59 12.1186C124.782 12.9692 124.378 14.0266 124.378 15.2929V15.2905ZM148.367 6.95128C150.15 6.95128 151.582 7.57349 152.657 8.81793C153.756 10.0624 154.304 11.6495 154.304 13.5769V23.3136H150.106V14.3231C150.106 13.2852 149.776 12.4345 149.11 11.771C148.447 11.1075 147.618 10.7745 146.622 10.7745C145.503 10.7745 144.592 11.1075 143.887 11.771C143.183 12.4345 142.83 13.2852 142.83 14.3231V23.3136H138.632V7.26239H142.83V11.37C143.245 10.0016 143.94 8.92244 144.914 8.13494C145.91 7.34746 147.06 6.95371 148.367 6.95371V6.95128ZM93.7837 19.0359L98.0741 7.27697H102.335L93.5043 29.5527H89.243L91.4829 23.8896L84.9208 7.27697H89.4616L93.7837 19.0359ZM114.274 7.26239V11.2849C113.399 8.65994 111.24 7.26239 108.365 7.26239C104.026 7.26239 101.461 11.054 101.461 15.0401C101.461 19.0261 104.007 23.1289 108.365 23.1289C111.24 23.1289 113.399 21.0556 114.274 18.4306V21.5101C114.274 22.8177 113.849 23.8945 112.998 24.7452C112.148 25.5959 111.113 26.0212 109.889 26.0212C108.229 26.0212 106.998 25.1924 106.189 23.5324L102.425 25.523C103.13 26.8306 104.136 27.8757 105.443 28.6656C106.75 29.4531 108.232 29.8469 109.889 29.8469C112.335 29.8469 114.378 29.0496 116.016 27.4504C117.653 25.8535 118.472 23.8726 118.472 21.5077V7.26239H114.274ZM113.062 18.0904C112.253 18.8997 111.237 19.3032 110.015 19.3032C108.793 19.3032 107.838 18.8997 107.029 18.0904C106.22 17.2616 105.817 16.2456 105.817 15.0425C105.817 13.8394 106.22 12.8331 107.029 12.0238C107.838 11.2144 108.832 10.811 110.015 10.811C111.198 10.811 112.255 11.2144 113.062 12.0238C113.871 12.8112 114.274 13.8175 114.274 15.0425C114.274 16.2675 113.871 17.2835 113.062 18.0904Z" fill="#0A0B0D"/>
    </g>
    <defs>
    <clipPath id="clip0_489_21272">
    <rect width="153.684" height="30" fill="white" transform="translate(0.627441)"/>
    </clipPath>
    </defs>
    </svg>
    