<svg width="164" height="234" viewBox="0 0 164 234" fill="none" xmlns="http://www.w3.org/2000/svg">
<path fill-rule="evenodd" clip-rule="evenodd" d="M40.8433 164.028L69.4447 147.508C70.6869 146.793 71.7188 145.763 72.4364 144.522C73.1539 143.282 73.5316 141.874 73.5316 140.44C73.5316 139.007 73.1539 137.599 72.4364 136.358C71.7188 135.117 70.6869 134.087 69.4447 133.372L44.9307 119.217C43.6896 118.499 42.6589 117.468 41.9415 116.227C41.2242 114.986 40.8455 113.578 40.8433 112.144V74.4062C40.8445 72.9724 41.2228 71.5641 41.9402 70.3227C42.6576 69.0813 43.689 68.0504 44.9307 67.3335L81.6967 46.1052L111.33 28.9944C112.466 28.3385 113.755 27.9932 115.066 27.9932C116.378 27.9931 117.667 28.3384 118.803 28.9943C119.939 29.6501 120.883 30.5935 121.539 31.7295C122.195 32.8656 122.54 34.1542 122.54 35.4661V64.9792C122.541 66.411 122.165 67.8177 121.449 69.0577C120.733 70.2976 119.703 71.327 118.463 72.042L93.9386 86.1975C92.6991 86.9158 91.6701 87.9474 90.9548 89.1887C90.2395 90.43 89.863 91.8376 89.863 93.2702C89.863 94.7029 90.2395 96.1104 90.9548 97.3517C91.6701 98.593 92.6991 99.6246 93.9386 100.343L118.463 114.498C119.703 115.217 120.732 116.248 121.447 117.489C122.163 118.731 122.54 120.138 122.54 121.571V159.309C122.54 160.742 122.163 162.15 121.447 163.391C120.732 164.632 119.703 165.664 118.463 166.382L81.6967 187.61L53.0953 204.12C51.8539 204.838 50.4452 205.216 49.0111 205.217C47.577 205.217 46.1681 204.84 44.9261 204.123C43.6841 203.406 42.6528 202.375 41.9361 201.132C41.2194 199.89 40.8425 198.481 40.8433 197.047V163.988V164.028ZM40.8433 211.193L77.6093 232.421C78.8499 233.14 80.2581 233.518 81.6917 233.518C83.1253 233.518 84.5335 233.14 85.774 232.421L122.54 211.193L159.306 189.964C160.549 189.249 161.582 188.219 162.299 186.977C163.017 185.735 163.394 184.326 163.393 182.892V145.154C163.391 143.72 163.012 142.312 162.295 141.071C161.578 139.83 160.547 138.799 159.306 138.081L134.792 123.925C133.552 123.208 132.523 122.178 131.807 120.937C131.092 119.697 130.715 118.29 130.715 116.858C130.715 115.426 131.092 114.019 131.807 112.778C132.523 111.538 133.552 110.507 134.792 109.79L159.306 95.6345C160.547 94.9168 161.578 93.8857 162.295 92.6445C163.012 91.4032 163.391 89.9953 163.393 88.5617V50.8237C163.394 49.3895 163.017 47.9804 162.299 46.7387C161.582 45.4969 160.549 44.4663 159.306 43.751L122.54 22.5227L85.1329 0.923814C84.0888 0.318668 82.9034 0 81.6967 0C80.4899 0 79.3046 0.318668 78.2605 0.923814L40.8433 22.5227L4.07728 43.751C2.83538 44.4668 1.80443 45.4977 1.08852 46.7396C0.372605 47.9815 -0.00286097 49.3903 1.64145e-05 50.8237V88.5617C0.000189264 89.9946 0.376945 91.4022 1.09255 92.6435C1.80816 93.8849 2.83743 94.9163 4.07728 95.6345L28.6014 109.79C29.8411 110.507 30.8704 111.538 31.586 112.778C32.3016 114.019 32.6783 115.426 32.6783 116.858C32.6783 118.29 32.3016 119.697 31.586 120.937C30.8704 122.178 29.8411 123.208 28.6014 123.925L4.07728 138.081C2.83743 138.799 1.80816 139.831 1.09255 141.072C0.376945 142.313 0.000189264 143.721 1.64145e-05 145.154V182.892C-0.00286097 184.325 0.372605 185.734 1.08852 186.976C1.80443 188.218 2.83538 189.249 4.07728 189.964L40.8433 211.193Z" fill="#836EF9"/>
</svg>
