<svg width="180" height="40" viewBox="0 0 180 40" fill="none" xmlns="http://www.w3.org/2000/svg">
    <g clip-path="url(#clip0_146_9912)">
    <path fill-rule="evenodd" clip-rule="evenodd" d="M6.99639 28.0973L11.8958 25.2675C12.1086 25.145 12.2853 24.9686 12.4082 24.7561C12.5311 24.5435 12.5958 24.3023 12.5958 24.0568C12.5958 23.8113 12.5311 23.5701 12.4082 23.3575C12.2853 23.145 12.1086 22.9686 11.8958 22.8461L7.69655 20.4213C7.48396 20.2984 7.30739 20.1217 7.18452 19.9091C7.06164 19.6965 6.99677 19.4553 6.99639 19.2098V12.7453C6.9966 12.4997 7.06139 12.2584 7.18429 12.0458C7.30718 11.8331 7.48385 11.6566 7.69655 11.5337L13.9945 7.89738L19.0706 4.96633C19.2652 4.85397 19.486 4.79482 19.7107 4.79482C19.9354 4.79481 20.1562 4.85395 20.3508 4.9663C20.5454 5.07865 20.707 5.24025 20.8194 5.43485C20.9317 5.62945 20.9909 5.8502 20.9909 6.07491V11.1305C20.9911 11.3757 20.9266 11.6167 20.804 11.8291C20.6814 12.0415 20.505 12.2178 20.2925 12.3403L16.0915 14.7651C15.8792 14.8882 15.7029 15.0649 15.5804 15.2775C15.4579 15.4901 15.3934 15.7313 15.3934 15.9767C15.3934 16.2221 15.4579 16.4632 15.5804 16.6758C15.7029 16.8885 15.8792 17.0652 16.0915 17.1882L20.2925 19.613C20.5049 19.7361 20.6812 19.9127 20.8037 20.1254C20.9263 20.338 20.9909 20.5791 20.9909 20.8246V27.289C20.9909 27.5345 20.9263 27.7756 20.8037 27.9882C20.6812 28.2009 20.5049 28.3776 20.2925 28.5006L13.9945 32.137L9.09515 34.965C8.88249 35.088 8.64118 35.1528 8.39552 35.1529C8.14987 35.153 7.90852 35.0884 7.69576 34.9656C7.48301 34.8428 7.30636 34.6661 7.18358 34.4533C7.06081 34.2405 6.99625 33.9992 6.99639 33.7535V28.0904V28.0973ZM6.99639 36.1766L13.2944 39.813C13.5069 39.936 13.7481 40.0009 13.9937 40.0009C14.2392 40.0009 14.4804 39.936 14.6929 39.813L20.9909 36.1766L27.2889 32.5402C27.5018 32.4177 27.6787 32.2412 27.8016 32.0284C27.9245 31.8157 27.9892 31.5744 27.989 31.3287V24.8642C27.9886 24.6186 27.9238 24.3775 27.8009 24.1649C27.678 23.9522 27.5014 23.7756 27.2889 23.6527L23.0897 21.2279C22.8773 21.105 22.701 20.9285 22.5784 20.716C22.4558 20.5035 22.3913 20.2625 22.3913 20.0172C22.3913 19.7718 22.4558 19.5308 22.5784 19.3183C22.701 19.1058 22.8773 18.9293 23.0897 18.8065L27.2889 16.3817C27.5014 16.2587 27.678 16.0821 27.8009 15.8695C27.9238 15.6569 27.9886 15.4157 27.989 15.1701V8.70565C27.9892 8.45997 27.9245 8.2186 27.8016 8.00589C27.6787 7.79318 27.5018 7.61664 27.2889 7.4941L20.9909 3.85774L14.5831 0.157882C14.4043 0.0542212 14.2012 -0.000366211 13.9945 -0.000366211C13.7878 -0.000366211 13.5847 0.0542212 13.4059 0.157882L6.99639 3.85774L0.698432 7.4941C0.485696 7.61673 0.309096 7.79332 0.186461 8.00605C0.0638266 8.21878 -0.00049008 8.46011 2.81178e-06 8.70565V15.1701C3.24206e-05 15.4156 0.06457 15.6567 0.187153 15.8693C0.309735 16.082 0.486048 16.2586 0.698432 16.3817L4.89937 18.8065C5.11173 18.9293 5.28804 19.1058 5.41062 19.3183C5.53321 19.5308 5.59773 19.7718 5.59773 20.0172C5.59773 20.2625 5.53321 20.5035 5.41062 20.716C5.28804 20.9285 5.11173 21.105 4.89937 21.2279L0.698432 23.6527C0.486048 23.7757 0.309735 23.9524 0.187153 24.165C0.06457 24.3777 3.24206e-05 24.6188 2.81178e-06 24.8642V31.3287C-0.00049008 31.5742 0.0638266 31.8156 0.186461 32.0283C0.309096 32.241 0.485696 32.4176 0.698432 32.5402L6.99639 36.1766Z" fill="#836EF9"/>
    <path d="M49.9084 12.5222C49.7127 12.2871 49.5754 12.1687 49.4965 12.1687C49.4176 12.1687 49.1687 12.1876 48.75 12.2271C48.3313 12.2665 47.8336 12.306 47.2587 12.3455L45.5701 12.4639C45.1566 12.4931 44.6829 12.5325 44.1492 12.5857C44.0009 12.6002 43.8632 12.6694 43.7629 12.7797C43.6627 12.8901 43.6071 13.0338 43.607 13.1829V14.458C43.6073 14.6056 43.6618 14.748 43.7602 14.8581C43.8586 14.9682 43.994 15.0383 44.1407 15.0552L45.3968 15.1942C45.4819 15.2038 45.5639 15.2315 45.6374 15.2755C45.7108 15.3194 45.7741 15.3785 45.8228 15.4489C45.8716 15.5193 45.9047 15.5992 45.92 15.6835C45.9353 15.7677 45.9325 15.8542 45.9116 15.9372L43.3375 26.2337C43.3233 26.2835 43.293 26.3273 43.2515 26.3583C43.21 26.3893 43.1594 26.4058 43.1076 26.4053C43.0502 26.4051 42.9948 26.3844 42.9514 26.347C42.908 26.3095 42.8794 26.2578 42.8708 26.2011L42.356 22.4617C42.3569 22.4475 42.3569 22.4331 42.356 22.4188L40.4683 13.5278C40.4408 13.3974 40.2967 13.2275 40.0358 13.013C39.775 12.7985 39.5056 12.608 39.231 12.4244C39.0744 12.2984 38.8941 12.205 38.7007 12.1498C38.398 12.1741 38.0968 12.2136 37.7981 12.2683L36.1678 12.5222C35.6925 12.5977 35.1193 12.6938 34.4518 12.8088C34.3125 12.8334 34.1863 12.9062 34.0954 13.0144C34.0044 13.1227 33.9544 13.2595 33.9541 13.4009V14.5626C33.9538 14.6931 33.9961 14.8201 34.0744 14.9245C34.1527 15.0288 34.2629 15.1048 34.3883 15.141L35.2755 15.3932C35.3752 15.4219 35.4658 15.4758 35.5386 15.5497C35.6113 15.6237 35.6638 15.7152 35.6908 15.8154L39.4661 29.9764C39.5059 30.1274 39.6032 30.2567 39.7372 30.3368C39.9169 30.4607 40.1104 30.5632 40.3138 30.6423C40.4918 30.6249 40.6688 30.5985 40.8441 30.5633H40.8544C40.9571 30.5453 41.0627 30.5543 41.1608 30.5895C41.2589 30.6247 41.3462 30.6847 41.4141 30.7639C41.482 30.843 41.5281 30.9384 41.5479 31.0408C41.5677 31.1431 41.5605 31.2488 41.5271 31.3476L40.0787 35.6378C40.0513 35.715 40.1182 35.9243 40.2744 36.2658C40.4281 36.5984 40.6053 36.9195 40.8046 37.2269C41.0003 37.5272 41.1393 37.6782 41.2165 37.6782C41.3469 37.6782 41.681 37.6524 42.2187 37.601C42.7564 37.5495 43.345 37.4774 43.9845 37.3847C44.5062 37.3092 45.1354 37.2303 45.8722 37.1479C46.017 37.1317 46.151 37.0634 46.2491 36.9558C46.3473 36.8481 46.403 36.7084 46.4059 36.5627L46.4265 35.5485C46.4288 35.4251 46.3932 35.304 46.3245 35.2014C46.2557 35.0989 46.1571 35.02 46.0421 34.9754L45.0759 34.6064C44.9412 34.5541 44.8297 34.4551 44.7617 34.3276C44.6937 34.2001 44.6737 34.0524 44.7052 33.9114L45.5633 30.1257C45.5663 30.1095 45.5703 30.0934 45.5753 30.0777L50.7115 13.8865C50.7372 13.7544 50.6583 13.5519 50.4764 13.2773C50.3002 13.016 50.1106 12.764 49.9084 12.5222Z" fill="#2C2C2C"/>
    <path d="M69.5401 27.9566L68.7541 27.634C68.6436 27.589 68.549 27.512 68.4823 27.413C68.4157 27.314 68.3801 27.1973 68.38 27.078V18.326C68.38 16.7563 68.1449 15.5259 67.6747 14.6347C67.2393 13.7797 66.5161 13.1058 65.6326 12.7316C64.6202 12.3316 63.5375 12.1402 62.4493 12.1687C62.256 12.2239 62.0757 12.3172 61.919 12.4433C61.6445 12.6269 61.3098 12.8551 60.9169 13.1297C60.5239 13.4043 60.1189 13.6926 59.7002 13.9877C59.6264 14.0392 59.556 14.0924 59.4857 14.1439C59.4026 14.2045 59.3044 14.2409 59.2019 14.2491C59.0994 14.2572 58.9966 14.2367 58.905 14.19C58.8134 14.1432 58.7366 14.0719 58.6831 13.9841C58.6296 13.8963 58.6015 13.7954 58.6019 13.6926C58.6019 13.5879 58.5024 13.418 58.3067 13.1778C58.1112 12.9426 57.9015 12.7196 57.6787 12.5102C57.4556 12.3008 57.2925 12.1962 57.1879 12.1962C57.0832 12.1962 56.7623 12.2356 56.2251 12.3129L54.4782 12.5686C53.9634 12.6441 53.3645 12.7402 52.6643 12.8568C52.524 12.88 52.3964 12.9522 52.3043 13.0607C52.2122 13.1691 52.1616 13.3067 52.1615 13.4489V14.6175C52.1621 14.7388 52.1992 14.8571 52.2681 14.9569C52.337 15.0568 52.4344 15.1335 52.5476 15.177L53.3078 15.4704C53.4213 15.5141 53.5189 15.591 53.5878 15.6912C53.6567 15.7913 53.6937 15.91 53.6939 16.0316V29.3998C53.6939 29.5045 53.8106 29.6813 54.0475 29.9301C54.2797 30.1757 54.5285 30.4051 54.7922 30.6165C55.0548 30.8259 55.2367 30.9306 55.3431 30.9306C55.6727 30.9042 56.0005 30.8583 56.3247 30.7933C56.8464 30.7006 57.4155 30.6091 58.0322 30.5187C58.5287 30.4443 59.1144 30.3488 59.7894 30.2321C59.9291 30.2082 60.0559 30.1357 60.1473 30.0273C60.2387 29.919 60.2888 29.7818 60.2888 29.6401V28.5178C60.2888 28.3973 60.2526 28.2796 60.185 28.1798C60.1174 28.0801 60.0215 28.0029 59.9095 27.9583L59.1888 27.67C59.0771 27.6255 58.9814 27.5486 58.9138 27.4492C58.8462 27.3498 58.8099 27.2325 58.8095 27.1123V17.4096C58.8098 17.2832 58.8529 17.1606 58.9317 17.0619C59.0106 16.9631 59.1205 16.8939 59.2437 16.8656C59.2915 16.8548 59.338 16.8393 59.3827 16.8193C60.0039 16.5001 60.5393 16.2518 60.9889 16.0745C61.182 15.9881 61.3867 15.9303 61.5964 15.9029C61.8103 15.9129 62.0217 15.9527 62.2245 16.0213C62.5333 16.1386 62.7909 16.361 62.9521 16.6494C63.1729 16.9926 63.2839 17.5818 63.285 18.4169V29.4101C63.285 29.5148 63.4086 29.6916 63.6591 29.9404C63.9045 30.1869 64.1665 30.4163 64.4434 30.6268C64.7179 30.8362 64.9084 30.9409 65.0131 30.9409C65.1178 30.9409 65.425 30.9014 65.9364 30.8224C66.4477 30.7435 67.0089 30.6508 67.6233 30.5479L69.4114 30.2338C69.5514 30.2096 69.6784 30.1368 69.7701 30.0282C69.8617 29.9196 69.9121 29.7822 69.9125 29.6401V28.5178C69.9134 28.3978 69.8784 28.2803 69.812 28.1803C69.7457 28.0803 69.651 28.0024 69.5401 27.9566Z" fill="#2C2C2C"/>
    <path d="M83.9946 27.1277H80.1249C79.8705 27.124 79.6198 27.066 79.3896 26.9577C79.1594 26.8494 78.9549 26.6932 78.7898 26.4997C78.3985 26.0809 78.0827 25.47 77.8476 24.6532C77.592 23.6802 77.473 22.6764 77.4941 21.6706C77.4941 20.5449 77.5336 19.5301 77.6125 18.6263C77.6693 17.8671 77.7806 17.1129 77.9455 16.3697C78.0896 15.7679 78.2532 15.3881 78.4363 15.2302C78.4975 15.174 78.5718 15.1339 78.6525 15.1135C78.7486 15.087 78.8479 15.0737 78.9476 15.074C79.2835 15.0835 79.6154 15.1496 79.9292 15.2697C80.1638 15.3527 80.3931 15.4501 80.6156 15.5614C80.6958 15.6018 80.7657 15.6598 80.8201 15.7312C80.8745 15.8025 80.912 15.8853 80.9297 15.9733L81.3999 18.2042C81.4286 18.339 81.5027 18.46 81.6098 18.5468C81.7169 18.6337 81.8506 18.6811 81.9885 18.6812H83.8968C84.054 18.6813 84.205 18.6196 84.3173 18.5096C84.4296 18.3995 84.4942 18.2498 84.4974 18.0926L84.5935 13.4867C84.5962 13.3533 84.5545 13.2227 84.475 13.1156C84.3955 13.0084 84.2826 12.9307 84.1542 12.8946C83.5158 12.7139 82.8214 12.5554 82.0709 12.4193C81.2883 12.2643 80.4935 12.1788 79.6958 12.1636C79.4327 12.1636 78.9877 12.3203 78.3607 12.6338C77.6694 12.9849 77.0006 13.3787 76.3581 13.8127C75.6511 14.2829 74.9967 14.7537 74.3949 15.2251C73.9553 15.5529 73.5525 15.9275 73.1937 16.3422C73.1621 16.3829 73.1357 16.4273 73.1147 16.4744C72.8055 17.2683 72.5856 18.0943 72.4592 18.9369C72.2584 20.1102 72.1602 21.2988 72.1657 22.4892C72.1657 24.2968 72.4403 25.8281 72.9895 27.0831C73.5386 28.3382 74.2977 29.2934 75.2667 29.949C76.2533 30.6086 77.4178 30.9511 78.6044 30.9306C78.9955 30.9138 79.3837 30.8563 79.7628 30.759C80.273 30.6446 80.829 30.4941 81.4308 30.3076C82.0325 30.1212 82.6217 29.9381 83.1983 29.7585C83.5793 29.6361 83.9151 29.5263 84.2057 29.429C84.3242 29.3882 84.4269 29.3113 84.4996 29.2091C84.5722 29.107 84.611 28.9846 84.6107 28.8593V27.7284C84.6107 27.6482 84.5946 27.5688 84.5635 27.4949C84.5324 27.421 84.4867 27.3541 84.4293 27.2981C84.3719 27.2421 84.3038 27.1982 84.2292 27.169C84.1545 27.1397 84.0748 27.1257 83.9946 27.1277Z" fill="#2C2C2C"/>
    <path d="M88.7188 8.5169C89.0289 8.8548 89.3566 9.17615 89.7004 9.47962C90.0145 9.75419 90.2358 9.89147 90.3679 9.89147C90.4709 9.89147 90.6871 9.78679 91.0149 9.57743C91.381 9.34021 91.735 9.08476 92.0754 8.81207C92.4547 8.51175 92.7876 8.23546 93.0759 7.98663C93.3642 7.7378 93.5204 7.56276 93.5478 7.45636L93.7829 6.47477C93.8092 6.34434 93.6983 6.11553 93.45 5.78834C93.1995 5.46057 92.906 5.10191 92.5662 4.70893C92.2622 4.35245 91.9268 4.02394 91.5641 3.72733C91.238 3.46649 91.008 3.33435 90.8776 3.33435C90.7987 3.33435 90.603 3.45276 90.289 3.68786C89.975 3.92296 89.6146 4.20268 89.2096 4.51158C88.8046 4.82047 88.4563 5.11563 88.168 5.36961C87.8797 5.62359 87.7372 5.78834 87.7372 5.83982L87.5793 6.78195C87.5536 6.88834 87.6514 7.10972 87.8745 7.4495C88.1241 7.82938 88.4066 8.18656 88.7188 8.5169Z" fill="#2C2C2C"/>
    <path d="M94.3149 27.972L93.6045 27.7352C93.4849 27.6955 93.3808 27.619 93.3072 27.5167C93.2336 27.4144 93.1941 27.2915 93.1944 27.1655V13.7801C93.1944 13.6754 93.0828 13.4918 92.8511 13.2309C92.6328 12.9727 92.3972 12.7296 92.1458 12.5033C91.8953 12.282 91.7185 12.1704 91.6156 12.1704C91.2926 12.1999 90.9712 12.2457 90.6529 12.3077C90.1152 12.4004 89.5329 12.4919 88.9059 12.5823C88.3911 12.6578 87.7905 12.7539 87.092 12.8706C86.9517 12.8937 86.8241 12.966 86.732 13.0744C86.64 13.1828 86.5894 13.3204 86.5892 13.4626V14.5935C86.5894 14.7218 86.6307 14.8466 86.7069 14.9498C86.7832 15.0529 86.8905 15.1289 87.0131 15.1667L87.6995 15.3778C87.8224 15.4152 87.9301 15.4911 88.0067 15.5942C88.0833 15.6974 88.1248 15.8224 88.1251 15.9509V29.3672C88.1251 29.4461 88.2487 29.616 88.4975 29.882C88.7505 30.148 89.0261 30.3914 89.3212 30.6096C89.6215 30.831 89.8257 30.9426 89.9304 30.9426C90.2471 30.9169 90.5617 30.8711 90.8725 30.8053C91.3702 30.7126 91.9199 30.6211 92.5217 30.5307C93.0033 30.4563 93.5708 30.362 94.224 30.2475C94.3629 30.2226 94.4887 30.1497 94.5793 30.0415C94.67 29.9333 94.7198 29.7967 94.7199 29.6555V28.5486C94.7218 28.4221 94.6836 28.2983 94.6109 28.1947C94.5381 28.0912 94.4346 28.0132 94.3149 27.972Z" fill="#2C2C2C"/>
    <path d="M111.235 14.4065C110.678 13.699 109.966 13.1284 109.154 12.7385C108.338 12.355 107.445 12.1603 106.544 12.1687C106.465 12.1687 106.216 12.3255 105.797 12.6389L104.383 13.6995L103.051 14.6982C103.027 14.7164 102.999 14.7285 102.969 14.7336C102.939 14.7386 102.909 14.7365 102.88 14.7274C102.84 14.7143 102.805 14.6885 102.781 14.6538C102.756 14.6191 102.744 14.5774 102.746 14.5352L103.017 6.27915C103.017 6.17447 102.911 6.00458 102.701 5.76433C102.496 5.53142 102.274 5.31456 102.036 5.11565C101.799 4.92002 101.643 4.8222 101.564 4.8222C101.431 4.8222 101.145 4.84794 100.706 4.89942C100.266 4.95091 99.7566 5.01783 99.1937 5.09677C98.6309 5.17571 98.0869 5.2598 97.5635 5.35075L96.8771 5.47431C96.7389 5.49959 96.614 5.5725 96.524 5.68035C96.434 5.7882 96.3847 5.92418 96.3845 6.06464V7.18696C96.3835 7.30946 96.4199 7.42937 96.4889 7.53059C96.5579 7.63181 96.6562 7.70951 96.7707 7.75326L97.5051 8.01754C97.6215 8.05922 97.7222 8.13581 97.7935 8.23686C97.8647 8.3379 97.9031 8.45848 97.9033 8.58212V29.2402C97.903 29.3775 97.9499 29.5108 98.0361 29.6176C98.1223 29.7244 98.2426 29.7984 98.3769 29.8271C98.7361 29.9026 99.1737 29.9844 99.6897 30.0725C100.462 30.203 101.267 30.334 102.104 30.4655C102.942 30.5971 103.681 30.7081 104.323 30.7984C104.965 30.8894 105.353 30.9357 105.481 30.9357C105.77 30.9357 106.221 30.779 106.835 30.4655C107.45 30.152 108.117 29.7659 108.838 29.3072C109.558 28.8495 110.225 28.3919 110.841 27.9343C111.279 27.624 111.687 27.2723 112.059 26.8841C112.098 26.8387 112.13 26.7878 112.153 26.7331C112.456 25.958 112.674 25.1525 112.804 24.3305C113.006 23.1701 113.104 21.9939 113.097 20.816C113.117 19.5687 112.951 18.3254 112.607 17.1265C112.329 16.1401 111.863 15.2166 111.235 14.4065ZM107.544 25.204C107.451 26.1994 107.321 26.9304 107.151 27.4023C107.065 27.7009 106.901 27.971 106.676 28.1849C106.596 28.2469 106.499 28.2839 106.398 28.2912C106.136 28.2987 105.874 28.2704 105.62 28.2072C105.159 28.1073 104.706 27.9696 104.266 27.7953C103.937 27.6683 103.635 27.5396 103.357 27.4126C103.254 27.3639 103.166 27.2866 103.106 27.1899C103.045 27.0932 103.013 26.9811 103.014 26.8669V17.4645C103.013 17.3564 103.042 17.2501 103.097 17.157C103.152 17.064 103.231 16.9876 103.326 16.936C103.498 16.8485 103.688 16.7506 103.916 16.6442C104.308 16.4623 104.687 16.2907 105.054 16.1294C105.266 16.0228 105.49 15.9432 105.722 15.8926C105.982 15.8926 106.269 16.1088 106.58 16.5413C106.891 16.9737 107.152 17.5955 107.364 18.4067C107.59 19.3714 107.696 20.3606 107.678 21.3514C107.68 22.9257 107.636 24.2099 107.544 25.204Z" fill="#2C2C2C"/>
    <path d="M122.855 27.9583L122.124 27.67C122.012 27.626 121.915 27.5492 121.847 27.4498C121.78 27.3503 121.743 27.2327 121.743 27.1123V6.27913C121.743 6.17388 121.638 6.00227 121.429 5.76431C121.219 5.52749 121.003 5.30612 120.782 5.09675C120.56 4.88739 120.409 4.78271 120.331 4.78271C120.074 4.79446 119.819 4.82024 119.565 4.85994C119.184 4.91314 118.747 4.97149 118.249 5.03155C117.751 5.09161 117.26 5.16883 116.777 5.24777L115.613 5.43997C115.473 5.46309 115.345 5.53525 115.252 5.64363C115.16 5.75202 115.109 5.88962 115.109 6.03202V7.17835C115.109 7.3027 115.147 7.42397 115.219 7.5254C115.291 7.62684 115.393 7.70345 115.51 7.74466L116.277 8.01237C116.395 8.0539 116.496 8.13082 116.568 8.23255C116.64 8.33428 116.679 8.45581 116.679 8.58039V29.405C116.679 29.5096 116.797 29.6864 117.032 29.9352C117.265 30.1813 117.514 30.4107 117.779 30.6217C118.04 30.831 118.223 30.9357 118.328 30.9357C118.644 30.9065 118.959 30.8607 119.27 30.7984C119.794 30.7057 120.366 30.6142 120.986 30.5238C121.483 30.4495 122.069 30.354 122.745 30.2373C122.885 30.213 123.011 30.1404 123.102 30.0321C123.194 29.9239 123.244 29.7869 123.244 29.6452V28.5178C123.244 28.396 123.206 28.2773 123.137 28.1774C123.067 28.0775 122.969 28.0011 122.855 27.9583Z" fill="#2C2C2C"/>
    <path d="M139.286 15.7811C138.763 14.4208 137.998 13.4781 136.99 12.953C135.982 12.4278 134.719 12.1664 133.201 12.1687C132.913 12.1687 132.455 12.3323 131.828 12.6595C131.201 12.9867 130.52 13.3791 129.786 13.8367C129.053 14.2944 128.379 14.7588 127.764 15.2302C127.314 15.5555 126.902 15.9302 126.536 16.3474C126.504 16.3877 126.477 16.4321 126.457 16.4795C126.147 17.2797 125.927 18.112 125.801 18.9609C125.601 20.1413 125.503 21.3366 125.508 22.5338C125.508 24.3391 125.815 25.8704 126.429 27.1277C126.981 28.3144 127.878 29.3067 129.003 29.9747C130.153 30.6286 131.457 30.9605 132.779 30.9357C133.171 30.9039 133.56 30.8314 133.937 30.7195C134.5 30.5753 135.129 30.4117 135.825 30.2287C136.52 30.0456 137.195 29.8494 137.848 29.6401C138.285 29.4994 138.664 29.385 138.986 29.2969C139.111 29.261 139.221 29.1852 139.299 29.0812C139.377 28.9771 139.419 28.8504 139.418 28.7203V27.6271C139.419 27.547 139.403 27.4677 139.372 27.3938C139.341 27.3199 139.295 27.253 139.238 27.197C139.181 27.1409 139.113 27.097 139.038 27.0677C138.964 27.0385 138.884 27.0244 138.804 27.0265C138.555 27.0265 138.275 27.0419 137.965 27.0557L136.12 27.1346C135.492 27.1603 134.955 27.1878 134.51 27.2135C134.066 27.2393 133.824 27.2513 133.764 27.2513C133.276 27.2246 132.808 27.0445 132.429 26.7365C131.959 26.3933 131.566 25.8373 131.252 25.0684C130.969 24.2981 130.816 23.4863 130.799 22.6659L139.475 21.7616C139.622 21.7456 139.759 21.6758 139.858 21.5657C139.958 21.4556 140.013 21.3127 140.014 21.1644C140.015 18.8397 139.772 17.0452 139.286 15.7811ZM134.503 19.7555L130.792 20.4007C130.815 19.2938 130.912 18.1896 131.082 17.0956C131.252 16.0774 131.449 15.415 131.674 15.1083C131.752 15.0051 131.864 14.9313 131.989 14.899C132.154 14.8571 132.324 14.8369 132.494 14.8389C132.704 14.8349 132.914 14.8481 133.122 14.8784C133.829 14.9562 134.32 15.4138 134.594 16.2513C134.836 16.988 134.971 17.9542 135.001 19.1497C135.004 19.2935 134.956 19.4335 134.864 19.5446C134.773 19.6557 134.645 19.7305 134.503 19.7555Z" fill="#2C2C2C"/>
    </g>
    <defs>
    <clipPath id="clip0_146_9912">
    <rect width="140" height="40" fill="white"/>
    </clipPath>
    </defs>
    </svg>
    