<svg width="112" height="32" viewBox="0 0 112 32" fill="none" xmlns="http://www.w3.org/2000/svg">
<g clip-path="url(#clip0_146_10098)">
<path fill-rule="evenodd" clip-rule="evenodd" d="M5.59711 22.4779L9.5166 20.214C9.68684 20.1161 9.82826 19.9749 9.92658 19.8049C10.0249 19.6349 10.0767 19.4419 10.0767 19.2455C10.0767 19.0491 10.0249 18.8561 9.92658 18.6861C9.82826 18.516 9.68684 18.3749 9.5166 18.2769L6.15724 16.3371C5.98717 16.2387 5.84591 16.0974 5.74761 15.9273C5.64931 15.7572 5.59741 15.5643 5.59711 15.3679V10.1963C5.59728 9.9998 5.64911 9.80681 5.74743 9.63668C5.84574 9.46656 5.98708 9.32529 6.15724 9.22705L11.1956 6.31795L15.2565 3.97311C15.4122 3.88323 15.5888 3.8359 15.7686 3.8359C15.9483 3.8359 16.1249 3.88321 16.2806 3.97309C16.4363 4.06297 16.5656 4.19225 16.6555 4.34793C16.7454 4.50361 16.7927 4.68021 16.7927 4.85998V8.90442C16.7929 9.10063 16.7413 9.29341 16.6432 9.46333C16.5451 9.63325 16.404 9.77431 16.234 9.87229L12.8732 11.8121C12.7034 11.9106 12.5624 12.0519 12.4643 12.2221C12.3663 12.3922 12.3147 12.5851 12.3147 12.7814C12.3147 12.9777 12.3663 13.1706 12.4643 13.3407C12.5624 13.5108 12.7034 13.6522 12.8732 13.7506L16.234 15.6905C16.4039 15.7889 16.5449 15.9302 16.643 16.1003C16.7411 16.2705 16.7927 16.4634 16.7927 16.6597V21.8313C16.7927 22.0276 16.7411 22.2205 16.643 22.3906C16.5449 22.5607 16.4039 22.7021 16.234 22.8005L11.1956 25.7096L7.27612 27.9721C7.10599 28.0705 6.91294 28.1223 6.71642 28.1224C6.51989 28.1225 6.32681 28.0708 6.15661 27.9725C5.98641 27.8743 5.84509 27.7329 5.74687 27.5627C5.64865 27.3925 5.597 27.1994 5.59711 27.0028V22.4724V22.4779ZM5.59711 28.9413L10.6355 31.8504C10.8055 31.9489 10.9985 32.0007 11.1949 32.0007C11.3914 32.0007 11.5844 31.9489 11.7544 31.8504L16.7927 28.9413L21.8311 26.0322C22.0014 25.9342 22.1429 25.793 22.2413 25.6228C22.3396 25.4526 22.3913 25.2595 22.3912 25.063V19.8914C22.3909 19.695 22.339 19.502 22.2407 19.3319C22.1424 19.1618 22.0012 19.0205 21.8311 18.9222L18.4717 16.9823C18.3018 16.8841 18.1608 16.7429 18.0627 16.5729C17.9646 16.4028 17.913 16.21 17.913 16.0138C17.913 15.8175 17.9646 15.6247 18.0627 15.4547C18.1608 15.2847 18.3018 15.1435 18.4717 15.0452L21.8311 13.1054C22.0012 13.007 22.1424 12.8657 22.2407 12.6956C22.339 12.5255 22.3909 12.3326 22.3912 12.1361V6.96457C22.3913 6.76803 22.3396 6.57493 22.2413 6.40476C22.1429 6.23459 22.0014 6.09336 21.8311 5.99533L16.7927 3.08624L11.6665 0.126354C11.5234 0.0434258 11.361 -0.000244141 11.1956 -0.000244141C11.0302 -0.000244141 10.8678 0.0434258 10.7247 0.126354L5.59711 3.08624L0.558746 5.99533C0.388557 6.09343 0.247277 6.23471 0.149169 6.40489C0.0510612 6.57507 -0.000392064 6.76813 2.24942e-06 6.96457V12.1361C2.59365e-05 12.3325 0.051656 12.5254 0.149722 12.6955C0.247788 12.8656 0.388838 13.007 0.558746 13.1054L3.91949 15.0452C4.08938 15.1435 4.23043 15.2847 4.3285 15.4547C4.42656 15.6247 4.47819 15.8175 4.47819 16.0138C4.47819 16.21 4.42656 16.4028 4.3285 16.5729C4.23043 16.7429 4.08938 16.8841 3.91949 16.9823L0.558746 18.9222C0.388838 19.0206 0.247788 19.1619 0.149722 19.3321C0.051656 19.5022 2.59365e-05 19.6951 2.24942e-06 19.8914V25.063C-0.000392064 25.2594 0.0510612 25.4525 0.149169 25.6227C0.247277 25.7929 0.388557 25.9341 0.558746 26.0322L5.59711 28.9413Z" fill="#A0A0A0"/>
<path d="M39.9266 10.0179C39.7701 9.8298 39.6603 9.73507 39.5971 9.73507C39.534 9.73507 39.3349 9.75018 38.9999 9.78175C38.665 9.81333 38.2668 9.8449 37.8069 9.87648L36.456 9.97121C36.1252 9.99455 35.7463 10.0261 35.3193 10.0687C35.2006 10.0803 35.0905 10.1356 35.0103 10.2239C34.9301 10.3122 34.8856 10.4272 34.8855 10.5464V11.5665C34.8857 11.6846 34.9294 11.7985 35.0081 11.8866C35.0868 11.9747 35.1951 12.0308 35.3125 12.0442L36.3174 12.1554C36.3854 12.1631 36.451 12.1853 36.5098 12.2205C36.5686 12.2556 36.6192 12.3029 36.6582 12.3592C36.6972 12.4155 36.7237 12.4795 36.7359 12.5469C36.7482 12.6142 36.7459 12.6835 36.7292 12.7499L34.67 20.987C34.6585 21.0269 34.6344 21.0619 34.6011 21.0867C34.5679 21.1115 34.5275 21.1247 34.486 21.1243C34.4401 21.1242 34.3958 21.1076 34.3611 21.0777C34.3263 21.0477 34.3034 21.0063 34.2965 20.961L33.8847 17.9695C33.8855 17.9581 33.8855 17.9466 33.8847 17.9352L32.3745 10.8224C32.3526 10.718 32.2373 10.5821 32.0286 10.4105C31.8199 10.2389 31.6044 10.0865 31.3847 9.93963C31.2594 9.83878 31.1152 9.76409 30.9605 9.71997C30.7184 9.73936 30.4773 9.77098 30.2384 9.8147L28.9342 10.0179C28.5539 10.0783 28.0954 10.1552 27.5613 10.2471C27.4499 10.2668 27.349 10.325 27.2762 10.4116C27.2034 10.4982 27.1634 10.6077 27.1632 10.7208V11.6502C27.163 11.7546 27.1968 11.8562 27.2594 11.9397C27.3221 12.0231 27.4102 12.0839 27.5105 12.1129L28.2203 12.3147C28.3001 12.3376 28.3726 12.3807 28.4308 12.4399C28.489 12.4991 28.5309 12.5723 28.5525 12.6524L31.5728 23.9812C31.6047 24.102 31.6825 24.2055 31.7897 24.2695C31.9334 24.3687 32.0883 24.4507 32.251 24.5139C32.3934 24.5 32.535 24.4789 32.6752 24.4508H32.6834C32.7656 24.4363 32.8501 24.4436 32.9286 24.4717C33.0071 24.4998 33.0769 24.5479 33.1312 24.6112C33.1855 24.6745 33.2224 24.7508 33.2382 24.8327C33.2541 24.9146 33.2484 24.9992 33.2216 25.0782L32.0629 28.5103C32.041 28.5721 32.0945 28.7396 32.2194 29.0128C32.3424 29.2788 32.4842 29.5357 32.6436 29.7816C32.8001 30.0218 32.9113 30.1426 32.9731 30.1426C33.0775 30.1426 33.3447 30.122 33.7749 30.0809C34.205 30.0397 34.6759 29.982 35.1875 29.9079C35.6049 29.8475 36.1083 29.7843 36.6977 29.7184C36.8135 29.7055 36.9207 29.6508 36.9992 29.5647C37.0778 29.4786 37.1223 29.3668 37.1246 29.2503L37.1411 28.4389C37.143 28.3402 37.1145 28.2433 37.0595 28.1612C37.0045 28.0792 36.9256 28.0161 36.8336 27.9804L36.0607 27.6852C35.9529 27.6433 35.8637 27.5642 35.8093 27.4622C35.7549 27.3602 35.7389 27.242 35.7641 27.1292L36.4505 24.1007C36.4529 24.0877 36.4561 24.0748 36.4602 24.0622L40.5691 11.1093C40.5897 11.0036 40.5265 10.8416 40.381 10.6219C40.2401 10.4129 40.0884 10.2113 39.9266 10.0179Z" fill="#303030"/>
<path d="M55.632 22.3652L55.0032 22.1071C54.9148 22.0711 54.8391 22.0095 54.7858 21.9303C54.7325 21.8511 54.704 21.7578 54.704 21.6623V14.6607C54.704 13.405 54.5159 12.4207 54.1397 11.7077C53.7913 11.0237 53.2128 10.4846 52.506 10.1852C51.6961 9.86521 50.8299 9.71205 49.9594 9.73489C49.8047 9.77901 49.6605 9.8537 49.5352 9.95455C49.3155 10.1014 49.0478 10.284 48.7334 10.5037C48.419 10.7233 48.095 10.954 47.7601 11.1901C47.701 11.2313 47.6447 11.2739 47.5885 11.3151C47.522 11.3635 47.4434 11.3927 47.3614 11.3992C47.2794 11.4057 47.1972 11.3893 47.1239 11.3519C47.0507 11.3145 46.9892 11.2575 46.9464 11.1872C46.9036 11.117 46.8811 11.0363 46.8814 10.954C46.8814 10.8702 46.8018 10.7343 46.6453 10.5421C46.4889 10.354 46.3211 10.1756 46.1428 10.0081C45.9644 9.8406 45.834 9.75686 45.7502 9.75686C45.6665 9.75686 45.4097 9.78843 44.98 9.85021L43.5825 10.0548C43.1706 10.1152 42.6915 10.1921 42.1314 10.2854C42.0191 10.3039 41.917 10.3617 41.8434 10.4485C41.7697 10.5352 41.7292 10.6453 41.7291 10.759V11.694C41.7296 11.791 41.7593 11.8856 41.8144 11.9655C41.8695 12.0453 41.9475 12.1067 42.038 12.1415L42.6462 12.3763C42.737 12.4112 42.8151 12.4728 42.8702 12.5529C42.9253 12.633 42.9549 12.7279 42.9551 12.8252V23.5198C42.9551 23.6035 43.0484 23.7449 43.2379 23.944C43.4237 24.1405 43.6227 24.324 43.8337 24.4931C44.0438 24.6606 44.1893 24.7444 44.2744 24.7444C44.5381 24.7233 44.8003 24.6866 45.0597 24.6345C45.477 24.5604 45.9323 24.4872 46.4257 24.4149C46.8229 24.3554 47.2915 24.279 47.8315 24.1856C47.9432 24.1665 48.0446 24.1085 48.1177 24.0218C48.1909 23.9351 48.231 23.8254 48.231 23.712V22.8141C48.2309 22.7177 48.202 22.6236 48.1479 22.5438C48.0939 22.464 48.0171 22.4023 47.9276 22.3666L47.351 22.1359C47.2616 22.1003 47.185 22.0388 47.131 21.9593C47.0769 21.8798 47.0478 21.7859 47.0476 21.6898V13.9276C47.0478 13.8265 47.0822 13.7284 47.1453 13.6494C47.2084 13.5704 47.2963 13.5151 47.3949 13.4924C47.4331 13.4838 47.4704 13.4714 47.5061 13.4553C48.0031 13.2 48.4314 13.0014 48.7911 12.8595C48.9455 12.7904 49.1093 12.7441 49.2771 12.7222C49.4482 12.7302 49.6173 12.7621 49.7795 12.817C50.0266 12.9108 50.2327 13.0887 50.3616 13.3194C50.5383 13.594 50.627 14.0654 50.628 14.7335V23.528C50.628 23.6118 50.7268 23.7532 50.9272 23.9522C51.1235 24.1494 51.3332 24.3329 51.5546 24.5014C51.7743 24.6689 51.9267 24.7526 52.0104 24.7526C52.0942 24.7526 52.3399 24.721 52.749 24.6579C53.1581 24.5947 53.607 24.5206 54.0985 24.4382L55.529 24.187C55.6411 24.1676 55.7427 24.1094 55.816 24.0225C55.8893 23.9356 55.9296 23.8257 55.9299 23.712V22.8141C55.9306 22.7181 55.9026 22.6241 55.8496 22.5441C55.7965 22.4642 55.7207 22.4019 55.632 22.3652Z" fill="#303030"/>
<path d="M67.1955 21.7023H64.0998C63.8962 21.6993 63.6957 21.6529 63.5115 21.5662C63.3274 21.4796 63.1638 21.3547 63.0317 21.1998C62.7187 20.8649 62.4661 20.3761 62.278 19.7226C62.0735 18.9443 61.9783 18.1412 61.9952 17.3366C61.9952 16.436 62.0268 15.6242 62.0899 14.9011C62.1353 14.2938 62.2243 13.6904 62.3562 13.0958C62.4716 12.6144 62.6024 12.3106 62.7489 12.1843C62.7979 12.1393 62.8573 12.1072 62.9219 12.0909C62.9988 12.0697 63.0782 12.059 63.158 12.0593C63.4267 12.0669 63.6922 12.1198 63.9433 12.2158C64.1309 12.2822 64.3143 12.3602 64.4924 12.4492C64.5565 12.4815 64.6124 12.528 64.656 12.585C64.6995 12.6421 64.7294 12.7083 64.7436 12.7787L65.1198 14.5634C65.1427 14.6713 65.202 14.7681 65.2877 14.8376C65.3734 14.907 65.4804 14.945 65.5907 14.9451H67.1173C67.2431 14.9451 67.3639 14.8958 67.4537 14.8078C67.5435 14.7197 67.5953 14.6 67.5978 14.4742L67.6747 10.7894C67.6768 10.6827 67.6435 10.5783 67.5799 10.4926C67.5163 10.4068 67.426 10.3447 67.3232 10.3158C66.8125 10.1712 66.257 10.0444 65.6566 9.93551C65.0305 9.81155 64.3947 9.7431 63.7565 9.73096C63.546 9.73096 63.19 9.85634 62.6885 10.1071C62.1354 10.388 61.6004 10.703 61.0864 11.0503C60.5207 11.4264 59.9972 11.8031 59.5158 12.1801C59.1641 12.4424 58.8419 12.7421 58.5548 13.0739C58.5296 13.1064 58.5084 13.1419 58.4917 13.1796C58.2443 13.8148 58.0684 14.4755 57.9672 15.1496C57.8066 16.0883 57.7281 17.0392 57.7325 17.9915C57.7325 19.4375 57.9521 20.6626 58.3914 21.6666C58.8308 22.6706 59.438 23.4348 60.2132 23.9593C61.0025 24.487 61.9341 24.761 62.8834 24.7446C63.1962 24.7312 63.5068 24.6852 63.8101 24.6073C64.2183 24.5157 64.6631 24.3954 65.1445 24.2462C65.6259 24.097 66.0973 23.9506 66.5585 23.8069C66.8633 23.709 67.1319 23.6211 67.3644 23.5433C67.4592 23.5106 67.5414 23.4491 67.5995 23.3674C67.6576 23.2857 67.6887 23.1878 67.6884 23.0875V22.1828C67.6884 22.1186 67.6756 22.0551 67.6507 21.996C67.6258 21.9369 67.5893 21.8834 67.5433 21.8386C67.4974 21.7938 67.4429 21.7587 67.3832 21.7353C67.3235 21.7119 67.2597 21.7006 67.1955 21.7023Z" fill="#303030"/>
<path d="M70.9751 6.81352C71.2232 7.08384 71.4853 7.34092 71.7604 7.58369C72.0116 7.80335 72.1887 7.91318 72.2944 7.91318C72.3768 7.91318 72.5498 7.82944 72.812 7.66195C73.1048 7.47217 73.388 7.26781 73.6604 7.04965C73.9638 6.8094 74.2301 6.58837 74.4608 6.3893C74.6914 6.19024 74.8163 6.05021 74.8383 5.96509L75.0264 5.17981C75.0474 5.07548 74.9587 4.89243 74.7601 4.63067C74.5596 4.36845 74.3249 4.08153 74.053 3.76714C73.8098 3.48196 73.5415 3.21915 73.2513 2.98187C72.9905 2.77319 72.8065 2.66748 72.7022 2.66748C72.639 2.66748 72.4825 2.76221 72.2313 2.95029C71.98 3.13837 71.6917 3.36215 71.3677 3.60926C71.0437 3.85638 70.7651 4.09251 70.5344 4.29569C70.3038 4.49887 70.1898 4.63067 70.1898 4.67186L70.0635 5.42556C70.0429 5.51067 70.1212 5.68777 70.2997 5.9596C70.4993 6.26351 70.7253 6.54925 70.9751 6.81352Z" fill="#303030"/>
<path d="M75.4519 22.3776L74.8836 22.1882C74.7879 22.1564 74.7047 22.0952 74.6457 22.0134C74.5868 21.9316 74.5552 21.8332 74.5555 21.7324V11.0241C74.5555 10.9403 74.4662 10.7934 74.2809 10.5848C74.1062 10.3782 73.9177 10.1837 73.7167 10.0027C73.5162 9.82556 73.3748 9.73633 73.2924 9.73633C73.034 9.75993 72.777 9.79659 72.5223 9.84616C72.0921 9.92029 71.6263 9.99351 71.1247 10.0658C70.7129 10.1262 70.2323 10.2031 69.6736 10.2965C69.5613 10.315 69.4593 10.3728 69.3856 10.4595C69.3119 10.5462 69.2715 10.6563 69.2714 10.7701V11.6748C69.2715 11.7774 69.3045 11.8773 69.3655 11.9598C69.4265 12.0423 69.5124 12.1031 69.6105 12.1333L70.1596 12.3022C70.2579 12.3322 70.3441 12.3929 70.4053 12.4754C70.4666 12.5579 70.4998 12.6579 70.5001 12.7607V23.4938C70.5001 23.5569 70.5989 23.6928 70.798 23.9056C71.0004 24.1184 71.2208 24.3131 71.4569 24.4877C71.6972 24.6648 71.8606 24.754 71.9443 24.754C72.1976 24.7336 72.4494 24.6969 72.698 24.6442C73.0961 24.5701 73.5359 24.4969 74.0173 24.4246C74.4026 24.3651 74.8566 24.2896 75.3792 24.198C75.4903 24.1781 75.5909 24.1197 75.6635 24.0332C75.736 23.9466 75.7758 23.8373 75.7759 23.7244V22.8389C75.7774 22.7377 75.7469 22.6386 75.6887 22.5558C75.6305 22.4729 75.5476 22.4106 75.4519 22.3776Z" fill="#303030"/>
<path d="M88.9882 11.5251C88.5422 10.9591 87.9726 10.5026 87.323 10.1907C86.67 9.8839 85.9563 9.72812 85.2348 9.73488C85.1717 9.73488 84.9726 9.86027 84.6377 10.111L83.5064 10.9595L82.4411 11.7585C82.4217 11.773 82.3992 11.7827 82.3753 11.7867C82.3514 11.7908 82.3269 11.7891 82.3038 11.7818C82.2716 11.7714 82.2438 11.7507 82.2244 11.7229C82.2051 11.6952 82.1954 11.6619 82.1967 11.6281L82.4136 5.02322C82.4136 4.93948 82.3285 4.80357 82.161 4.61136C81.997 4.42504 81.8189 4.25155 81.6284 4.09242C81.4389 3.93592 81.314 3.85767 81.2508 3.85767C81.1451 3.85767 80.9159 3.87826 80.5644 3.91944C80.213 3.96063 79.8052 4.01417 79.3549 4.07732C78.9046 4.14047 78.4694 4.20774 78.0507 4.28051L77.5016 4.37935C77.391 4.39958 77.2911 4.4579 77.2191 4.54418C77.1471 4.63047 77.1077 4.73925 77.1076 4.85162V5.74947C77.1067 5.84747 77.1358 5.9434 77.191 6.02437C77.2462 6.10535 77.3249 6.16751 77.4165 6.20251L78.004 6.41393C78.0972 6.44728 78.1777 6.50855 78.2347 6.58939C78.2917 6.67023 78.3224 6.76669 78.3225 6.8656V23.3921C78.3223 23.5019 78.3598 23.6085 78.4288 23.694C78.4978 23.7795 78.594 23.8386 78.7014 23.8616C78.9888 23.922 79.3389 23.9875 79.7517 24.0579C80.3695 24.1623 81.0133 24.2671 81.6833 24.3723C82.3532 24.4776 82.9449 24.5663 83.4584 24.6387C83.9718 24.7114 84.2821 24.7485 84.3851 24.7485C84.6157 24.7485 84.9768 24.6231 85.4682 24.3723C85.9597 24.1215 86.4937 23.8126 87.0703 23.4456C87.646 23.0795 88.1801 22.7134 88.6725 22.3473C89.0235 22.0991 89.3499 21.8177 89.6472 21.5072C89.6782 21.4708 89.7037 21.4301 89.7227 21.3863C89.9649 20.7663 90.1393 20.1219 90.243 19.4643C90.4045 18.536 90.4831 17.595 90.4778 16.6527C90.4933 15.6549 90.361 14.6602 90.0851 13.7011C89.8627 12.912 89.4903 12.1732 88.9882 11.5251ZM86.0352 20.1631C85.9611 20.9594 85.8567 21.5442 85.7208 21.9218C85.6521 22.1606 85.5208 22.3767 85.3406 22.5478C85.2764 22.5974 85.199 22.627 85.1181 22.6329C84.9088 22.6388 84.6995 22.6162 84.4962 22.5656C84.1267 22.4857 83.7645 22.3755 83.4131 22.2361C83.1495 22.1346 82.9079 22.0316 82.6855 21.93C82.6028 21.891 82.5331 21.8292 82.4844 21.7518C82.4358 21.6745 82.4103 21.5848 82.4109 21.4934V13.9715C82.4104 13.885 82.4333 13.8 82.4773 13.7255C82.5213 13.6511 82.5847 13.5899 82.6607 13.5487C82.798 13.4787 82.9504 13.4004 83.133 13.3153C83.446 13.1698 83.7494 13.0325 84.0432 12.9034C84.2126 12.8181 84.392 12.7545 84.5773 12.714C84.7859 12.714 85.0147 12.887 85.2637 13.2329C85.5126 13.5789 85.7217 14.0763 85.8911 14.7252C86.0722 15.497 86.1566 16.2884 86.1423 17.0811C86.1441 18.3404 86.1084 19.3678 86.0352 20.1631Z" fill="#303030"/>
<path d="M98.2838 22.3666L97.699 22.136C97.6093 22.1008 97.5323 22.0394 97.478 21.9598C97.4236 21.8803 97.3945 21.7862 97.3942 21.6898V5.02331C97.3942 4.9391 97.3105 4.80182 97.143 4.61145C96.9755 4.42199 96.8025 4.24489 96.6254 4.0774C96.4484 3.90991 96.3275 3.82617 96.2644 3.82617C96.0593 3.83557 95.8549 3.85619 95.6521 3.88795C95.3473 3.93051 94.9972 3.97719 94.5991 4.02524C94.201 4.07329 93.8083 4.13506 93.4212 4.19822L92.4904 4.35198C92.378 4.37047 92.2758 4.4282 92.2019 4.51491C92.128 4.60161 92.0872 4.7117 92.0868 4.82561V5.74268C92.0869 5.84216 92.1178 5.93917 92.1753 6.02032C92.2329 6.10147 92.3142 6.16276 92.408 6.19573L93.0217 6.4099C93.1157 6.44312 93.197 6.50466 93.2546 6.58604C93.3121 6.66742 93.343 6.76465 93.343 6.86431V23.524C93.343 23.6077 93.4377 23.7491 93.6258 23.9482C93.8117 24.145 94.0112 24.3285 94.223 24.4973C94.4316 24.6648 94.5785 24.7486 94.6623 24.7486C94.9152 24.7252 95.1668 24.6885 95.416 24.6387C95.8351 24.5646 96.2928 24.4914 96.7888 24.4191C97.186 24.3596 97.6551 24.2832 98.196 24.1898C98.3076 24.1704 98.4089 24.1123 98.482 24.0257C98.555 23.9391 98.5952 23.8295 98.5955 23.7162V22.8142C98.595 22.7168 98.565 22.6219 98.5093 22.5419C98.4537 22.462 98.375 22.4009 98.2838 22.3666Z" fill="#303030"/>
<path d="M111.429 12.6247C111.011 11.5365 110.398 10.7824 109.592 10.3623C108.786 9.94217 107.775 9.73304 106.561 9.73488C106.33 9.73488 105.964 9.86575 105.462 10.1275C104.961 10.3893 104.416 10.7032 103.829 11.0693C103.242 11.4354 102.703 11.807 102.212 12.1841C101.852 12.4443 101.522 12.7441 101.229 13.0778C101.203 13.11 101.182 13.1456 101.165 13.1835C100.918 13.8237 100.742 14.4895 100.641 15.1687C100.481 16.1129 100.402 17.0692 100.406 18.0269C100.406 19.4712 100.652 20.6962 101.143 21.7021C101.585 22.6514 102.303 23.4452 103.203 23.9797C104.122 24.5028 105.165 24.7683 106.223 24.7485C106.537 24.723 106.848 24.665 107.15 24.5755C107.6 24.4602 108.103 24.3293 108.66 24.1829C109.216 24.0364 109.756 23.8795 110.278 23.712C110.628 23.5994 110.931 23.5079 111.189 23.4374C111.289 23.4087 111.377 23.3481 111.439 23.2648C111.502 23.1816 111.535 23.0802 111.535 22.9761V22.1016C111.535 22.0375 111.522 21.974 111.497 21.9149C111.473 21.8558 111.436 21.8023 111.39 21.7575C111.345 21.7127 111.29 21.6775 111.231 21.6541C111.171 21.6307 111.107 21.6194 111.043 21.6211C110.844 21.6211 110.62 21.6335 110.372 21.6444L108.896 21.7076C108.394 21.7282 107.964 21.7501 107.608 21.7707C107.253 21.7913 107.059 21.8009 107.011 21.8009C106.621 21.7796 106.247 21.6355 105.943 21.3891C105.567 21.1145 105.253 20.6697 105.001 20.0547C104.775 19.4384 104.653 18.7889 104.639 18.1327L111.58 17.4092C111.698 17.3964 111.807 17.3406 111.887 17.2525C111.966 17.1644 112.01 17.0501 112.011 16.9314C112.012 15.0716 111.818 13.6361 111.429 12.6247ZM107.603 15.8043L104.633 16.3205C104.652 15.4349 104.729 14.5516 104.865 13.6764C105.002 12.8618 105.16 12.3319 105.339 12.0866C105.402 12.004 105.491 11.945 105.592 11.9191C105.723 11.8856 105.859 11.8694 105.995 11.871C106.163 11.8678 106.331 11.8783 106.498 11.9026C107.063 11.9649 107.456 12.331 107.676 13.0009C107.869 13.5903 107.977 14.3632 108.001 15.3197C108.003 15.4347 107.964 15.5467 107.891 15.6356C107.818 15.7245 107.716 15.7843 107.603 15.8043Z" fill="#303030"/>
</g>
<defs>
<clipPath id="clip0_146_10098">
<rect width="112" height="32" fill="white"/>
</clipPath>
</defs>
</svg>
