<svg width="2100" height="600" viewBox="0 0 2100 600" fill="none" xmlns="http://www.w3.org/2000/svg">
<g clip-path="url(#clip0_146_9950)">
<path fill-rule="evenodd" clip-rule="evenodd" d="M104.946 421.46L178.436 379.013C181.628 377.176 184.28 374.529 186.124 371.341C187.967 368.153 188.938 364.535 188.938 360.852C188.938 357.169 187.967 353.551 186.124 350.363C184.28 347.175 181.628 344.529 178.436 342.692L115.448 306.32C112.26 304.476 109.611 301.826 107.768 298.637C105.925 295.448 104.952 291.83 104.946 288.146V191.18C104.949 187.495 105.921 183.877 107.764 180.687C109.608 177.497 112.258 174.848 115.448 173.006L209.918 118.461L286.059 74.495C288.979 72.8097 292.29 71.9224 295.661 71.9223C299.031 71.9223 302.342 72.8094 305.262 74.4947C308.181 76.1799 310.605 78.6039 312.29 81.5229C313.976 84.4419 314.863 87.7531 314.864 91.1238V166.957C314.866 170.636 313.9 174.251 312.06 177.437C310.221 180.623 307.574 183.268 304.387 185.105L241.373 221.477C238.188 223.323 235.544 225.973 233.706 229.163C231.868 232.352 230.901 235.969 230.901 239.65C230.901 243.331 231.868 246.948 233.706 250.137C235.544 253.327 238.188 255.978 241.373 257.823L304.387 294.196C307.573 296.041 310.218 298.691 312.056 301.881C313.895 305.07 314.863 308.687 314.864 312.369V409.336C314.863 413.017 313.895 416.634 312.056 419.824C310.218 423.013 307.573 425.664 304.387 427.509L209.918 482.054L136.427 524.476C133.237 526.32 129.618 527.292 125.933 527.294C122.248 527.295 118.628 526.326 115.437 524.484C112.245 522.642 109.595 519.991 107.754 516.799C105.912 513.608 104.944 509.987 104.946 506.303V421.357V421.46ZM104.946 542.649L199.415 597.194C202.603 599.041 206.221 600.013 209.905 600.013C213.588 600.013 217.207 599.041 220.394 597.194L314.864 542.649L409.333 488.104C412.527 486.265 415.18 483.617 417.024 480.427C418.868 477.236 419.838 473.615 419.835 469.93V372.963C419.83 369.28 418.857 365.662 417.013 362.473C415.17 359.284 412.522 356.634 409.333 354.79L346.345 318.418C343.159 316.576 340.515 313.928 338.676 310.74C336.837 307.553 335.869 303.937 335.869 300.258C335.869 296.578 336.837 292.963 338.676 289.775C340.515 286.587 343.159 283.94 346.345 282.097L409.333 245.725C412.522 243.881 415.17 241.232 417.013 238.042C418.857 234.853 419.83 231.235 419.835 227.552V130.585C419.838 126.9 418.868 123.279 417.024 120.088C415.18 116.898 412.527 114.25 409.333 112.412L314.864 57.8662L218.747 2.36835C216.064 0.813439 213.018 -0.00537109 209.918 -0.00537109C206.817 -0.00537109 203.771 0.813439 201.089 2.36835L104.946 57.8662L10.4766 112.412C7.28556 114.251 4.63657 116.9 2.79704 120.091C0.95752 123.282 -0.00722913 126.902 0.000164247 130.585V227.552C0.00060838 231.233 0.968672 234.85 2.80741 238.04C4.64615 241.229 7.29084 243.88 10.4766 245.725L73.4906 282.097C76.6761 283.94 79.3208 286.587 81.1595 289.775C82.9982 292.963 83.9661 296.578 83.9661 300.258C83.9661 303.937 82.9982 307.553 81.1595 310.74C79.3208 313.928 76.6761 316.576 73.4906 318.418L10.4766 354.79C7.29084 356.636 4.64615 359.286 2.80741 362.475C0.968672 365.665 0.00060838 369.282 0.000164247 372.963V469.93C-0.00722913 473.613 0.95752 477.233 2.79704 480.424C4.63657 483.615 7.28556 486.264 10.4766 488.104L104.946 542.649Z" fill="#836EF9"/>
<path d="M748.625 187.833C745.69 184.306 743.631 182.53 742.447 182.53C741.263 182.53 737.53 182.813 731.25 183.405C724.969 183.997 717.504 184.59 708.881 185.182L683.552 186.958C677.348 187.395 670.243 187.987 662.238 188.785C660.012 189.003 657.947 190.04 656.443 191.696C654.94 193.351 654.106 195.507 654.104 197.743V216.869C654.108 219.084 654.926 221.22 656.402 222.871C657.878 224.523 659.909 225.574 662.109 225.827L680.952 227.912C682.228 228.057 683.458 228.472 684.56 229.131C685.662 229.79 686.61 230.677 687.341 231.733C688.073 232.788 688.57 233.988 688.8 235.251C689.03 236.515 688.987 237.812 688.674 239.058L650.063 393.505C649.849 394.252 649.395 394.908 648.772 395.373C648.149 395.838 647.391 396.086 646.613 396.079C645.753 396.076 644.922 395.766 644.271 395.204C643.619 394.642 643.19 393.866 643.061 393.015L635.339 336.926C635.353 336.711 635.353 336.496 635.339 336.282L607.024 202.917C606.612 200.961 604.45 198.412 600.537 195.195C596.624 191.977 592.583 189.12 588.464 186.366C586.115 184.475 583.41 183.074 580.51 182.247C575.97 182.611 571.451 183.203 566.971 184.023L542.517 187.833C535.386 188.966 526.789 190.407 516.776 192.132C514.687 192.5 512.795 193.592 511.43 195.216C510.065 196.839 509.315 198.891 509.311 201.012V218.439C509.307 220.396 509.94 222.301 511.115 223.866C512.29 225.432 513.943 226.571 515.823 227.114L529.132 230.898C530.627 231.327 531.987 232.136 533.078 233.246C534.169 234.355 534.956 235.728 535.361 237.23L591.991 449.646C592.588 451.91 594.048 453.851 596.058 455.052C598.753 456.91 601.655 458.448 604.707 459.634C607.377 459.373 610.031 458.978 612.661 458.449H612.815C614.355 458.179 615.939 458.314 617.411 458.842C618.883 459.369 620.193 460.271 621.211 461.458C622.229 462.644 622.921 464.076 623.218 465.611C623.515 467.146 623.407 468.732 622.906 470.213L601.18 534.566C600.769 535.724 601.773 538.865 604.115 543.987C606.421 548.975 609.079 553.792 612.069 558.402C615.003 562.907 617.088 565.172 618.247 565.172C620.203 565.172 625.214 564.786 633.279 564.014C641.345 563.242 650.174 562.16 659.767 560.77C667.592 559.638 677.031 558.454 688.082 557.218C690.254 556.975 692.264 555.951 693.736 554.336C695.209 552.721 696.045 550.626 696.087 548.44L696.396 533.227C696.432 531.376 695.898 529.559 694.867 528.021C693.835 526.483 692.357 525.299 690.63 524.63L676.138 519.096C674.118 518.31 672.445 516.827 671.425 514.914C670.405 513.001 670.104 510.786 670.578 508.67L683.449 451.885C683.493 451.642 683.554 451.401 683.629 451.165L760.671 208.297C761.058 206.315 759.873 203.278 757.145 199.159C754.502 195.239 751.658 191.459 748.625 187.833Z" fill="#2C2C2C"/>
<path d="M1043.1 419.349L1031.31 414.51C1029.65 413.834 1028.23 412.68 1027.23 411.195C1026.24 409.709 1025.7 407.96 1025.7 406.169V274.89C1025.7 251.345 1022.17 232.889 1015.12 219.521C1008.59 206.696 997.742 196.587 984.489 190.974C969.303 184.974 953.062 182.102 936.74 182.531C933.84 183.358 931.135 184.758 928.786 186.649C924.667 189.403 919.648 192.827 913.753 196.945C907.858 201.064 901.783 205.389 895.503 209.816C894.396 210.588 893.34 211.386 892.285 212.159C891.039 213.068 889.565 213.614 888.028 213.736C886.49 213.858 884.949 213.551 883.575 212.849C882.202 212.148 881.049 211.079 880.247 209.762C879.444 208.445 879.022 206.931 879.028 205.389C879.028 203.818 877.535 201.27 874.601 197.666C871.669 194.139 868.522 190.795 865.18 187.653C861.833 184.513 859.388 182.942 857.818 182.942C856.248 182.942 851.434 183.534 843.377 184.693L817.173 188.528C809.451 189.661 800.467 191.102 789.965 192.853C787.859 193.2 785.946 194.283 784.565 195.91C783.184 197.536 782.424 199.6 782.422 201.733V219.263C782.431 221.082 782.988 222.857 784.022 224.354C785.055 225.851 786.516 227.002 788.214 227.655L799.617 232.056C801.32 232.711 802.784 233.865 803.817 235.368C804.851 236.87 805.406 238.65 805.409 240.474V440.997C805.409 442.567 807.16 445.219 810.712 448.951C814.195 452.636 817.928 456.076 821.883 459.248C825.822 462.388 828.55 463.958 830.146 463.958C835.091 463.562 840.007 462.875 844.87 461.899C852.695 460.509 861.233 459.136 870.482 457.78C877.93 456.665 886.716 455.232 896.841 453.482C898.937 453.123 900.838 452.035 902.209 450.41C903.58 448.785 904.332 446.727 904.332 444.601V427.766C904.331 425.959 903.789 424.193 902.775 422.697C901.761 421.201 900.322 420.044 898.643 419.375L887.832 415.05C886.157 414.382 884.72 413.229 883.707 411.738C882.693 410.247 882.148 408.487 882.143 406.684V261.144C882.147 259.248 882.793 257.41 883.976 255.928C885.158 254.446 886.808 253.408 888.656 252.984C889.372 252.822 890.07 252.59 890.741 252.289C900.059 247.501 908.09 243.777 914.834 241.117C917.73 239.821 920.8 238.954 923.946 238.543C927.154 238.693 930.325 239.291 933.368 240.319C938 242.079 941.864 245.415 944.282 249.741C947.594 254.889 949.258 263.727 949.275 276.254V441.152C949.275 442.722 951.129 445.373 954.887 449.106C958.568 452.803 962.498 456.244 966.651 459.402C970.769 462.543 973.626 464.113 975.197 464.113C976.767 464.113 981.375 463.521 989.045 462.337C996.716 461.152 1005.13 459.762 1014.35 458.218L1041.17 453.507C1043.27 453.144 1045.18 452.052 1046.55 450.423C1047.93 448.794 1048.68 446.732 1048.69 444.601V427.766C1048.7 425.966 1048.18 424.204 1047.18 422.704C1046.19 421.204 1044.76 420.036 1043.1 419.349Z" fill="#2C2C2C"/>
<path d="M1259.92 406.916H1201.87C1198.06 406.859 1194.3 405.989 1190.84 404.365C1187.39 402.74 1184.32 400.398 1181.85 397.494C1175.98 391.214 1171.24 382.05 1167.71 369.797C1163.88 355.203 1162.09 340.145 1162.41 325.059C1162.41 308.173 1163 292.951 1164.19 279.394C1165.04 268.006 1166.71 256.694 1169.18 245.545C1171.34 236.518 1173.8 230.821 1176.54 228.453C1177.46 227.609 1178.58 227.007 1179.79 226.702C1181.23 226.304 1182.72 226.105 1184.21 226.11C1189.25 226.251 1194.23 227.243 1198.94 229.045C1202.46 230.29 1205.89 231.751 1209.23 233.421C1210.44 234.026 1211.48 234.897 1212.3 235.967C1213.12 237.037 1213.68 238.279 1213.94 239.598L1221 273.062C1221.43 275.085 1222.54 276.899 1224.15 278.202C1225.75 279.504 1227.76 280.216 1229.83 280.218H1258.45C1260.81 280.218 1263.07 279.294 1264.76 277.643C1266.44 275.992 1267.41 273.747 1267.46 271.389L1268.9 202.3C1268.94 200.298 1268.32 198.341 1267.12 196.733C1265.93 195.126 1264.24 193.96 1262.31 193.419C1252.74 190.707 1242.32 188.331 1231.06 186.289C1219.32 183.964 1207.4 182.681 1195.44 182.453C1191.49 182.453 1184.81 184.804 1175.41 189.506C1165.04 194.773 1155.01 200.679 1145.37 207.19C1134.76 214.243 1124.95 221.305 1115.92 228.375C1109.33 233.294 1103.29 238.912 1097.9 245.133C1097.43 245.744 1097.03 246.409 1096.72 247.115C1092.08 259.025 1088.78 271.414 1086.89 284.053C1083.88 301.653 1082.4 319.482 1082.48 337.337C1082.48 364.451 1086.6 387.421 1094.84 406.247C1103.08 425.072 1114.46 439.401 1129 449.234C1143.8 459.128 1161.27 464.266 1179.07 463.958C1184.93 463.707 1190.75 462.844 1196.44 461.384C1204.09 459.668 1212.43 457.411 1221.46 454.614C1230.49 451.817 1239.32 449.071 1247.97 446.377C1253.69 444.541 1258.72 442.893 1263.08 441.435C1264.86 440.822 1266.4 439.669 1267.49 438.136C1268.58 436.604 1269.16 434.769 1269.16 432.889V415.925C1269.16 414.722 1268.92 413.531 1268.45 412.423C1267.98 411.315 1267.3 410.311 1266.44 409.471C1265.58 408.632 1264.56 407.973 1263.44 407.534C1262.32 407.095 1261.12 406.885 1259.92 406.916Z" fill="#2C2C2C"/>
<path d="M1330.78 127.753C1335.43 132.822 1340.35 137.642 1345.51 142.194C1350.22 146.313 1353.54 148.372 1355.52 148.372C1357.06 148.372 1360.31 146.802 1365.22 143.661C1370.72 140.103 1376.02 136.271 1381.13 132.181C1386.82 127.676 1391.81 123.532 1396.14 119.799C1400.46 116.067 1402.81 113.441 1403.22 111.845L1406.74 97.1214C1407.14 95.165 1405.47 91.7329 1401.75 86.8249C1397.99 81.9084 1393.59 76.5285 1388.49 70.6338C1383.93 65.2866 1378.9 60.3589 1373.46 55.9099C1368.57 51.9972 1365.12 50.0151 1363.16 50.0151C1361.98 50.0151 1359.05 51.7913 1354.34 55.3178C1349.62 58.8443 1344.22 63.0401 1338.14 67.6735C1332.07 72.3069 1326.84 76.7344 1322.52 80.5441C1318.2 84.3538 1316.06 86.825 1316.06 87.5972L1313.69 101.729C1313.3 103.325 1314.77 106.646 1318.12 111.742C1321.86 117.441 1326.1 122.798 1330.78 127.753Z" fill="#2C2C2C"/>
<path d="M1414.72 419.581L1404.07 416.028C1402.27 415.432 1400.71 414.285 1399.61 412.751C1398.5 411.217 1397.91 409.373 1397.91 407.482V206.701C1397.91 205.131 1396.24 202.377 1392.77 198.464C1389.49 194.59 1385.96 190.944 1382.19 187.55C1378.43 184.229 1375.78 182.556 1374.23 182.556C1369.39 182.999 1364.57 183.686 1359.79 184.615C1351.73 186.006 1342.99 187.378 1333.59 188.734C1325.87 189.867 1316.86 191.308 1306.38 193.059C1304.27 193.406 1302.36 194.489 1300.98 196.116C1299.6 197.742 1298.84 199.806 1298.84 201.939V218.903C1298.84 220.827 1299.46 222.7 1300.6 224.247C1301.75 225.794 1303.36 226.934 1305.2 227.5L1315.49 230.666C1317.34 231.228 1318.95 232.366 1320.1 233.914C1321.25 235.461 1321.87 237.336 1321.88 239.264V440.508C1321.88 441.692 1323.73 444.241 1327.46 448.23C1331.26 452.22 1335.39 455.871 1339.82 459.145C1344.32 462.465 1347.39 464.138 1348.96 464.138C1353.71 463.754 1358.43 463.066 1363.09 462.079C1370.55 460.689 1378.8 459.316 1387.82 457.961C1395.05 456.845 1403.56 455.429 1413.36 453.713C1415.44 453.339 1417.33 452.245 1418.69 450.622C1420.05 448.999 1420.8 446.95 1420.8 444.833V428.229C1420.83 426.332 1420.25 424.474 1419.16 422.921C1418.07 421.367 1416.52 420.199 1414.72 419.581Z" fill="#2C2C2C"/>
<path d="M1668.53 216.097C1660.17 205.485 1649.49 196.926 1637.31 191.077C1625.06 185.325 1611.68 182.404 1598.15 182.531C1596.97 182.531 1593.24 184.882 1586.96 189.584L1565.75 205.492L1545.77 220.473C1545.41 220.745 1544.98 220.927 1544.54 221.003C1544.09 221.079 1543.63 221.048 1543.2 220.911C1542.59 220.715 1542.07 220.327 1541.71 219.807C1541.35 219.286 1541.16 218.661 1541.19 218.028L1545.26 94.1872C1545.26 92.617 1543.66 90.0686 1540.52 86.4649C1537.44 82.9712 1534.11 79.7183 1530.53 76.7347C1526.98 73.8002 1524.64 72.333 1523.45 72.333C1521.47 72.333 1517.17 72.7191 1510.58 73.4913C1503.99 74.2635 1496.35 75.2674 1487.91 76.4515C1479.46 77.6356 1471.3 78.897 1463.45 80.2612L1453.16 82.1146C1451.08 82.4938 1449.21 83.5874 1447.86 85.2052C1446.51 86.823 1445.77 88.8627 1445.77 90.9696V107.804C1445.75 109.642 1446.3 111.44 1447.33 112.959C1448.37 114.477 1449.84 115.643 1451.56 116.299L1462.58 120.263C1464.32 120.888 1465.83 122.037 1466.9 123.553C1467.97 125.069 1468.55 126.877 1468.55 128.732V438.603C1468.54 440.663 1469.25 442.661 1470.54 444.264C1471.83 445.867 1473.64 446.976 1475.65 447.407C1481.04 448.54 1487.61 449.767 1495.34 451.088C1506.93 453.044 1519 455.009 1531.56 456.983C1544.12 458.956 1555.22 460.621 1564.85 461.976C1574.47 463.341 1580.29 464.036 1582.22 464.036C1586.54 464.036 1593.31 461.685 1602.53 456.983C1611.75 452.281 1621.76 446.489 1632.57 439.607C1643.36 432.743 1653.38 425.879 1662.61 419.015C1669.19 414.359 1675.31 409.084 1680.89 403.261C1681.47 402.58 1681.94 401.817 1682.3 400.996C1686.84 389.37 1690.11 377.287 1692.06 364.958C1695.09 347.551 1696.56 329.909 1696.46 312.24C1696.75 293.53 1694.27 274.88 1689.1 256.897C1684.93 242.102 1677.94 228.249 1668.53 216.097ZM1613.16 378.06C1611.77 392.99 1609.81 403.956 1607.27 411.035C1605.98 415.513 1603.52 419.565 1600.14 422.773C1598.93 423.704 1597.48 424.259 1595.97 424.369C1592.04 424.48 1588.12 424.055 1584.31 423.107C1577.38 421.609 1570.58 419.543 1564 416.929C1559.05 415.025 1554.52 413.094 1550.35 411.189C1548.8 410.458 1547.5 409.298 1546.58 407.848C1545.67 406.398 1545.19 404.717 1545.2 403.004V261.968C1545.19 260.346 1545.63 258.752 1546.45 257.356C1547.28 255.959 1548.46 254.813 1549.89 254.04C1552.46 252.727 1555.32 251.26 1558.74 249.664C1564.61 246.935 1570.3 244.361 1575.81 241.941C1578.99 240.342 1582.35 239.148 1585.82 238.389C1589.74 238.389 1594.03 241.632 1598.69 248.119C1603.36 254.606 1607.28 263.933 1610.46 276.1C1613.86 290.571 1615.44 305.409 1615.17 320.271C1615.2 343.885 1614.53 363.148 1613.16 378.06Z" fill="#2C2C2C"/>
<path d="M1842.82 419.375L1831.86 415.05C1830.17 414.389 1828.73 413.238 1827.71 411.747C1826.69 410.255 1826.15 408.491 1826.14 406.684V94.187C1826.14 92.6082 1824.57 90.0341 1821.43 86.4647C1818.29 82.9124 1815.05 79.5917 1811.73 76.4513C1808.41 73.3109 1806.14 71.7407 1804.96 71.7407C1801.11 71.9169 1797.28 72.3036 1793.48 72.8991C1787.76 73.6971 1781.2 74.5723 1773.73 75.4732C1766.27 76.3742 1758.91 77.5325 1751.65 78.7165L1734.2 81.5995C1732.09 81.9464 1730.17 83.0287 1728.79 84.6545C1727.4 86.2802 1726.64 88.3443 1726.63 90.4803V107.675C1726.63 109.541 1727.21 111.36 1728.29 112.881C1729.37 114.403 1730.89 115.552 1732.65 116.17L1744.16 120.186C1745.92 120.808 1747.44 121.962 1748.52 123.488C1749.6 125.014 1750.18 126.837 1750.18 128.706V441.074C1750.18 442.645 1751.96 445.296 1755.48 449.028C1758.97 452.719 1762.71 456.16 1766.68 459.325C1770.59 462.465 1773.35 464.035 1774.92 464.035C1779.66 463.597 1784.38 462.91 1789.05 461.976C1796.91 460.586 1805.49 459.213 1814.79 457.858C1822.24 456.742 1831.03 455.309 1841.17 453.559C1843.27 453.196 1845.17 452.106 1846.54 450.482C1847.91 448.858 1848.66 446.803 1848.67 444.678V427.766C1848.66 425.94 1848.09 424.16 1847.05 422.661C1846.01 421.163 1844.53 420.016 1842.82 419.375Z" fill="#2C2C2C"/>
<path d="M2089.29 236.716C2081.45 216.311 2069.97 202.171 2054.85 194.294C2039.73 186.417 2020.79 182.496 1998.01 182.53C1993.69 182.53 1986.83 184.984 1977.42 189.892C1968.02 194.8 1957.81 200.687 1946.79 207.551C1935.79 214.415 1925.68 221.382 1916.47 228.453C1909.72 233.332 1903.53 238.953 1898.04 245.21C1897.55 245.815 1897.16 246.481 1896.85 247.192C1892.2 259.196 1888.91 271.68 1887.02 284.414C1884.02 302.119 1882.54 320.049 1882.62 338.007C1882.62 365.087 1887.22 388.056 1896.44 406.916C1904.72 424.715 1918.17 439.6 1935.05 449.62C1952.29 459.428 1971.85 464.408 1991.68 464.035C1997.57 463.558 2003.39 462.471 2009.06 460.792C2017.5 458.63 2026.94 456.176 2037.37 453.43C2047.81 450.684 2057.92 447.741 2067.72 444.601C2074.28 442.49 2079.96 440.774 2084.79 439.453C2086.66 438.914 2088.31 437.778 2089.48 436.217C2090.65 434.656 2091.28 432.755 2091.27 430.804V414.407C2091.28 413.205 2091.04 412.015 2090.58 410.906C2090.11 409.798 2089.43 408.794 2088.57 407.954C2087.71 407.114 2086.69 406.455 2085.57 406.016C2084.45 405.577 2083.26 405.366 2082.06 405.397C2078.33 405.397 2074.13 405.629 2069.47 405.835L2041.8 407.019C2032.38 407.405 2024.32 407.817 2017.65 408.203C2010.99 408.589 2007.36 408.769 2006.46 408.769C1999.13 408.369 1992.13 405.667 1986.43 401.047C1979.38 395.899 1973.49 387.559 1968.77 376.027C1964.53 364.471 1962.24 352.294 1961.98 339.989L2092.12 326.423C2094.34 326.183 2096.38 325.137 2097.87 323.485C2099.36 321.833 2100.19 319.691 2100.21 317.465C2100.22 282.595 2096.58 255.678 2089.29 236.716ZM2017.55 296.332L1961.87 306.011C1962.22 289.407 1963.67 272.844 1966.22 256.433C1968.78 241.16 1971.74 231.224 1975.1 226.625C1976.29 225.076 1977.95 223.97 1979.84 223.485C1982.31 222.857 1984.86 222.554 1987.41 222.584C1990.56 222.523 1993.71 222.721 1996.83 223.176C2007.44 224.343 2014.8 231.207 2018.92 243.769C2022.54 254.82 2024.57 269.312 2025.02 287.245C2025.06 289.402 2024.33 291.503 2022.96 293.169C2021.6 294.836 2019.68 295.958 2017.55 296.332Z" fill="#2C2C2C"/>
</g>
<defs>
<clipPath id="clip0_146_9950">
<rect width="2100" height="600" fill="white"/>
</clipPath>
</defs>
</svg>
