<svg width="401" height="351" viewBox="0 0 401 351" fill="none" xmlns="http://www.w3.org/2000/svg">
<g clip-path="url(#clip0_538_32718)">
<path d="M333.92 299.905L220.65 265.905C219.579 265.584 218.582 265.056 217.715 264.349C216.849 263.643 216.13 262.772 215.601 261.788C215.071 260.803 214.741 259.724 214.63 258.611C214.518 257.499 214.627 256.375 214.95 255.305L270.43 70.5951C270.751 69.524 271.279 68.5267 271.986 67.6603C272.692 66.7939 273.563 66.0754 274.547 65.5459C275.532 65.0165 276.612 64.6864 277.724 64.5748C278.836 64.4631 279.96 64.5719 281.03 64.895L394.29 98.895C395.361 99.2157 396.359 99.7443 397.225 100.451C398.092 101.157 398.811 102.027 399.342 103.012C399.872 103.996 400.203 105.075 400.316 106.188C400.429 107.3 400.322 108.424 400 109.495L344.54 294.245C344.217 295.315 343.685 296.311 342.975 297.176C342.266 298.04 341.393 298.756 340.406 299.282C339.419 299.808 338.338 300.133 337.225 300.24C336.112 300.347 334.989 300.233 333.92 299.905Z" fill="url(#paint0_linear_538_32718)"/>
<path d="M209.79 262.455L104.92 205.245C102.856 204.009 101.25 202.134 100.348 199.903C99.4458 197.673 99.2955 195.209 99.92 192.885L156.19 6.01507C156.44 4.9909 156.928 4.04017 157.615 3.24016C158.301 2.44016 159.167 1.81347 160.141 1.41104C161.116 1.00861 162.171 0.8418 163.222 0.924169C164.273 1.00654 165.29 1.33576 166.19 1.88508L271.02 59.0951C273.103 60.3149 274.726 62.1857 275.641 64.4193C276.555 66.6528 276.709 69.1251 276.08 71.4551L219.82 258.325C219.572 259.354 219.083 260.309 218.395 261.112C217.706 261.916 216.837 262.545 215.858 262.948C214.88 263.351 213.82 263.516 212.765 263.431C211.71 263.345 210.691 263.011 209.79 262.455Z" fill="#682D10"/>
<path d="M209.79 262.455L104.92 205.245C102.856 204.009 101.25 202.134 100.348 199.903C99.4458 197.673 99.2955 195.209 99.92 192.885L156.19 6.01507C156.44 4.9909 156.928 4.04017 157.615 3.24016C158.301 2.44016 159.167 1.81347 160.141 1.41104C161.116 1.00861 162.171 0.8418 163.222 0.924169C164.273 1.00654 165.29 1.33576 166.19 1.88508L271.02 59.0951C273.103 60.3149 274.726 62.1857 275.641 64.4193C276.555 66.6528 276.709 69.1251 276.08 71.4551L219.82 258.325C219.572 259.354 219.083 260.309 218.395 261.112C217.706 261.916 216.837 262.545 215.858 262.948C214.88 263.351 213.82 263.516 212.765 263.431C211.71 263.345 210.691 263.011 209.79 262.455Z" fill="url(#paint1_linear_538_32718)"/>
<path d="M207.92 250.965L112.33 198.805C110.436 197.688 108.959 195.982 108.125 193.947C107.291 191.912 107.145 189.66 107.71 187.535L158.97 17.1451C159.195 16.2065 159.638 15.3345 160.265 14.6008C160.892 13.8672 161.685 13.2927 162.577 12.9247C163.469 12.5567 164.436 12.4057 165.398 12.484C166.36 12.5623 167.289 12.8677 168.11 13.3751L263.7 65.5351C265.593 66.6528 267.069 68.3594 267.901 70.3944C268.734 72.4294 268.877 74.6809 268.31 76.8051L217.01 247.245C216.777 248.172 216.329 249.031 215.703 249.753C215.077 250.475 214.289 251.04 213.405 251.402C212.52 251.764 211.563 251.913 210.61 251.837C209.658 251.761 208.736 251.462 207.92 250.965Z" stroke="#F7B643" stroke-width="2" stroke-linecap="round" stroke-linejoin="round"/>
<path d="M268.62 255.325C268.501 255.7 268.274 256.031 267.968 256.277C267.662 256.523 267.29 256.674 266.899 256.711C266.508 256.747 266.115 256.667 265.769 256.482C265.422 256.296 265.139 256.012 264.953 255.666C264.766 255.32 264.686 254.927 264.723 254.536C264.759 254.144 264.909 253.772 265.155 253.466C265.401 253.16 265.732 252.933 266.107 252.814C266.481 252.694 266.882 252.688 267.26 252.795C267.518 252.868 267.758 252.992 267.967 253.16C268.176 253.328 268.349 253.536 268.476 253.772C268.603 254.008 268.681 254.267 268.706 254.534C268.73 254.801 268.701 255.07 268.62 255.325Z" fill="#FAFAFA"/>
<path d="M6.20007 170.485C6.20007 170.72 6.13028 170.95 5.99952 171.146C5.86876 171.342 5.68291 171.494 5.46546 171.584C5.24802 171.675 5.00875 171.698 4.77791 171.652C4.54707 171.606 4.33504 171.493 4.16861 171.327C4.00219 171.16 3.88885 170.948 3.84294 170.717C3.79702 170.486 3.82058 170.247 3.91065 170.03C4.00072 169.812 4.15325 169.626 4.34894 169.496C4.54463 169.365 4.77471 169.295 5.01007 169.295C5.32568 169.295 5.62836 169.42 5.85153 169.644C6.07469 169.867 6.20007 170.169 6.20007 170.485Z" fill="#FAFAFA"/>
<path d="M156.3 110.015C156.3 110.251 156.23 110.481 156.099 110.677C155.967 110.873 155.781 111.026 155.563 111.115C155.345 111.205 155.105 111.228 154.874 111.181C154.643 111.135 154.431 111.02 154.265 110.853C154.099 110.685 153.986 110.472 153.942 110.241C153.897 110.009 153.922 109.77 154.013 109.553C154.105 109.335 154.259 109.15 154.456 109.021C154.653 108.891 154.884 108.823 155.12 108.825C155.276 108.825 155.43 108.856 155.574 108.916C155.718 108.976 155.848 109.063 155.958 109.174C156.068 109.285 156.154 109.416 156.213 109.56C156.272 109.705 156.301 109.859 156.3 110.015Z" fill="#FAFAFA"/>
<path d="M223.25 270.135C223.101 270.63 222.809 271.069 222.41 271.397C222.011 271.725 221.524 271.928 221.01 271.979C220.496 272.031 219.979 271.928 219.523 271.685C219.067 271.442 218.694 271.069 218.45 270.614C218.206 270.159 218.103 269.641 218.153 269.127C218.204 268.613 218.406 268.126 218.733 267.727C219.061 267.327 219.5 267.034 219.994 266.884C220.488 266.735 221.016 266.735 221.51 266.885C221.838 266.983 222.144 267.146 222.409 267.362C222.674 267.579 222.894 267.846 223.056 268.148C223.217 268.45 223.318 268.781 223.351 269.122C223.384 269.463 223.35 269.807 223.25 270.135Z" fill="#C5874B"/>
<path d="M145.72 217.535C145.72 217.99 145.585 218.435 145.333 218.813C145.08 219.191 144.721 219.486 144.3 219.66C143.88 219.834 143.418 219.88 142.971 219.791C142.525 219.702 142.115 219.483 141.794 219.161C141.472 218.84 141.253 218.43 141.164 217.984C141.076 217.538 141.121 217.075 141.295 216.655C141.469 216.235 141.764 215.875 142.142 215.623C142.521 215.37 142.965 215.235 143.42 215.235C143.722 215.235 144.021 215.294 144.3 215.41C144.579 215.526 144.833 215.695 145.046 215.909C145.26 216.122 145.429 216.376 145.545 216.655C145.661 216.934 145.72 217.233 145.72 217.535Z" fill="#FAFAFA"/>
<path d="M4.58999 180.025C4.58999 180.48 4.45484 180.925 4.20167 181.304C3.94849 181.682 3.58869 181.977 3.16784 182.151C2.74698 182.325 2.28402 182.37 1.8376 182.28C1.39117 182.19 0.981368 181.97 0.660109 181.648C0.33885 181.325 0.120586 180.914 0.0329726 180.468C-0.0546408 180.021 -0.00766408 179.558 0.167952 179.138C0.343568 178.718 0.639922 178.359 1.01947 178.108C1.39901 177.856 1.84468 177.723 2.29999 177.725C2.60156 177.725 2.90016 177.785 3.17865 177.9C3.45714 178.016 3.71003 178.186 3.92281 178.399C4.13559 178.613 4.30406 178.867 4.41855 179.146C4.53305 179.425 4.59131 179.723 4.58999 180.025Z" fill="#FAFAFA"/>
<path d="M201.6 268.845C201.309 269.787 200.746 270.623 199.981 271.246C199.217 271.869 198.285 272.252 197.303 272.347C196.321 272.442 195.333 272.244 194.464 271.778C193.594 271.313 192.881 270.601 192.415 269.732C191.95 268.862 191.751 267.874 191.845 266.893C191.939 265.911 192.322 264.979 192.945 264.214C193.567 263.449 194.402 262.885 195.344 262.593C196.287 262.302 197.294 262.295 198.24 262.575C198.875 262.763 199.465 263.074 199.979 263.492C200.492 263.91 200.917 264.425 201.23 265.008C201.542 265.591 201.736 266.231 201.799 266.889C201.863 267.548 201.795 268.213 201.6 268.845Z" fill="#C5874B"/>
<path d="M282.266 72.7381L226.916 255.95L336.734 289.127L392.083 105.915L282.266 72.7381Z" fill="url(#paint2_linear_538_32718)"/>
<path d="M218.16 228.885C212.78 227.275 204.36 251.185 211.49 253.335L336.18 291.015L343.51 266.765L218.16 228.885Z" fill="url(#paint3_linear_538_32718)"/>
<path d="M343.23 266.955L336.18 290.305L332.74 289.305C330.27 286.605 329.49 281.615 331.01 276.595C333.01 269.845 338.48 265.595 343.17 266.975L343.23 266.955Z" fill="#CEB183"/>
<path d="M340.86 209.795C340.52 210.945 339.6 211.685 338.86 211.455L259.92 187.605C259.14 187.375 258.79 186.245 259.14 185.095C259.48 183.955 260.4 183.215 261.14 183.445L340.05 207.295C340.83 207.525 341.18 208.655 340.83 209.795H340.86Z" fill="#FBF1EB"/>
<path d="M344.86 198.465C344.52 199.615 343.6 200.355 342.86 200.115L263.92 176.245C263.14 176.005 262.79 174.885 263.14 173.735C263.48 172.585 264.4 171.845 265.14 172.085L344.05 195.925C344.83 196.165 345.18 197.285 344.83 198.435L344.86 198.465Z" fill="#FBF1EB"/>
<path d="M336.92 224.185C336.57 225.335 335.65 226.075 334.86 225.835L255.57 201.835C254.78 201.595 254.43 200.465 254.78 199.325C255.12 198.175 256.04 197.435 256.83 197.675L336.12 221.675C336.91 221.915 337.26 223.035 336.92 224.185Z" fill="#FBF1EB"/>
<path d="M332.42 237.725C332.07 238.875 331.16 239.615 330.42 239.375L251.52 215.535C250.73 215.295 250.38 214.175 250.73 213.025C251.07 211.875 251.99 211.135 252.73 211.375L331.63 235.245C332.42 235.485 332.77 236.605 332.42 237.755V237.725Z" fill="#FBF1EB"/>
<path d="M232.21 90.6951L226.16 80.9551L221.47 90.8051L212.03 96.2551L222.22 101.515L228.27 111.245L232.96 101.405L242.4 95.9451L232.21 90.6951Z" fill="#DEE5FD"/>
<path d="M209.08 115.685C210.33 115.656 211.518 115.134 212.386 114.233C213.253 113.333 213.729 112.125 213.71 110.875C213.684 109.628 213.166 108.441 212.268 107.574C211.371 106.706 210.168 106.229 208.92 106.245C207.669 106.271 206.479 106.792 205.612 107.694C204.744 108.595 204.269 109.804 204.29 111.055C204.319 112.302 204.838 113.487 205.734 114.353C206.631 115.22 207.833 115.699 209.08 115.685Z" fill="#DEE5FD"/>
<path d="M231.54 129.415C232.164 129.402 232.758 129.142 233.191 128.692C233.624 128.242 233.861 127.639 233.85 127.015C233.837 126.39 233.577 125.795 233.128 125.361C232.678 124.926 232.075 124.687 231.45 124.695C230.824 124.711 230.23 124.973 229.795 125.424C229.361 125.875 229.122 126.479 229.13 127.105C229.137 127.415 229.204 127.721 229.329 128.004C229.453 128.288 229.633 128.545 229.857 128.759C230.08 128.974 230.344 129.142 230.633 129.255C230.922 129.367 231.23 129.422 231.54 129.415Z" fill="#DEE5FD"/>
<path d="M379.87 45.8551L375.02 35.4651L369.19 44.6851L359.17 48.9851L368.66 55.4151L373.51 65.7951L379.34 56.5751L389.36 52.2751L379.87 45.8551Z" fill="#DEE5FD"/>
<path d="M353.92 67.925C355.166 68.0452 356.408 67.6679 357.377 66.8755C358.345 66.0831 358.961 64.9398 359.09 63.695C359.21 62.451 358.834 61.2098 358.044 60.2415C357.254 59.2733 356.113 58.6563 354.87 58.525C353.624 58.4022 352.38 58.7785 351.411 59.5714C350.442 60.3643 349.826 61.5092 349.7 62.755C349.58 63.9991 349.956 65.2403 350.746 66.2086C351.536 67.1768 352.677 67.7937 353.92 67.925Z" fill="#DEE5FD"/>
<path d="M374.6 84.2451C375.222 84.3065 375.842 84.1189 376.326 83.7234C376.81 83.3279 377.117 82.7567 377.18 82.1351C377.242 81.5123 377.054 80.8904 376.659 80.4051C376.264 79.9199 375.692 79.6107 375.07 79.5451C374.447 79.4865 373.826 79.6764 373.343 80.0736C372.86 80.4707 372.553 81.0428 372.49 81.6651C372.429 82.2869 372.616 82.9076 373.012 83.3913C373.407 83.8749 373.978 84.1819 374.6 84.2451Z" fill="#DEE5FD"/>
<path d="M323.08 146.935C323.357 147.112 323.584 147.358 323.737 147.649C323.889 147.94 323.963 148.266 323.95 148.595C325.867 149.252 327.906 149.474 329.92 149.245C329.397 148.704 328.992 148.061 328.73 147.355C328.186 145.656 328.237 143.823 328.873 142.157C329.509 140.49 330.693 139.09 332.23 138.185C332.402 138.746 332.606 139.297 332.84 139.835C333.732 142.649 333.846 145.652 333.17 148.525C334.908 147.941 336.547 147.094 338.03 146.015C336.03 144.965 335.12 142.385 336.03 139.785C336.535 138.29 337.556 137.025 338.91 136.215C340.45 138.375 340.14 141.765 339.37 144.845C339.342 144.907 339.319 144.97 339.3 145.035C340.662 143.866 341.862 142.521 342.87 141.035C340.8 140.115 339.96 137.465 341.02 134.985C341.561 133.696 342.553 132.647 343.81 132.035C344.99 134.105 344.46 137.125 343.56 139.805C343.49 139.955 343.43 140.115 343.36 140.265C343.46 140.115 343.56 139.975 343.65 139.815C345.229 137.136 346.167 134.127 346.39 131.025C345.934 131.231 345.44 131.339 344.939 131.343C344.439 131.348 343.943 131.248 343.483 131.051C343.023 130.853 342.61 130.562 342.268 130.196C341.927 129.83 341.665 129.397 341.5 128.925C341.091 127.707 341.166 126.379 341.71 125.215C343.88 125.465 345.4 127.445 346.43 129.565C346.418 127.794 346.128 126.036 345.57 124.355C345.243 124.581 344.874 124.74 344.484 124.823C344.095 124.905 343.693 124.909 343.302 124.835C342.912 124.76 342.539 124.609 342.208 124.389C341.876 124.169 341.591 123.886 341.37 123.555C340.775 122.75 340.504 121.751 340.61 120.755C342.25 120.605 343.85 121.815 345.14 123.205C344.365 121.379 343.202 119.745 341.73 118.415C341.478 118.524 341.205 118.573 340.931 118.559C340.657 118.545 340.39 118.469 340.15 118.335C339.729 117.987 339.446 117.502 339.35 116.964C339.255 116.427 339.354 115.873 339.629 115.402C339.904 114.931 340.338 114.573 340.853 114.392C341.368 114.211 341.93 114.219 342.44 114.415C342.802 114.659 343.075 115.015 343.215 115.429C343.356 115.842 343.358 116.291 343.22 116.705C344.249 117.642 345.141 118.719 345.87 119.905C345.61 119.025 345.588 118.092 345.808 117.201C346.027 116.31 346.48 115.493 347.12 114.835C347.546 114.364 348.066 113.987 348.646 113.729C349.227 113.471 349.855 113.337 350.49 113.335C350.353 115.939 349.314 118.414 347.55 120.335C347.23 120.625 346.92 120.915 346.62 121.215L346.55 121.125C346.935 121.862 347.269 122.623 347.55 123.405C348.99 121.405 350.82 119.625 352.87 119.315C353.124 120.555 352.899 121.845 352.24 122.925C351.836 123.676 351.238 124.304 350.508 124.744C349.777 125.184 348.942 125.419 348.09 125.425C348.424 127.009 348.562 128.628 348.5 130.245C350.33 127.715 352.66 125.395 355.27 124.995C355.59 126.56 355.308 128.189 354.48 129.555C353.908 130.656 352.995 131.543 351.878 132.084C350.761 132.624 349.499 132.79 348.28 132.555C348.061 134.056 347.689 135.53 347.17 136.955C349.17 135.315 351.33 134.155 353.5 134.175C353.615 136.106 353.022 138.012 351.83 139.535C351.045 140.682 349.916 141.55 348.606 142.013C347.295 142.477 345.872 142.513 344.54 142.115C343.663 143.403 342.658 144.599 341.54 145.685C344.54 144.845 347.67 144.685 349.84 146.275C349.067 148.037 347.682 149.458 345.94 150.275C344.681 150.928 343.215 151.055 341.863 150.627C340.511 150.2 339.384 149.253 338.73 147.995C337.315 148.987 335.78 149.794 334.16 150.395C337.16 151.665 340.05 153.685 340.74 156.965C340.021 157.468 339.203 157.812 338.341 157.972C337.478 158.133 336.591 158.106 335.74 157.895C332.95 157.105 331.44 154.205 331.97 151.065C329.015 151.79 325.914 151.644 323.04 150.645C322.749 150.89 322.393 151.043 322.015 151.083C321.637 151.124 321.256 151.052 320.92 150.875C320.499 150.527 320.216 150.042 320.12 149.504C320.025 148.967 320.124 148.413 320.399 147.942C320.674 147.471 321.108 147.113 321.623 146.932C322.138 146.751 322.701 146.759 323.21 146.955L323.08 146.935Z" fill="#FBF1EB"/>
<path d="M314.31 144.975C313.981 144.959 313.653 145.031 313.36 145.182C313.067 145.333 312.818 145.558 312.64 145.835C310.713 145.259 308.935 144.269 307.43 142.935C308.169 142.795 308.871 142.502 309.49 142.075C310.911 140.998 311.923 139.47 312.361 137.742C312.799 136.014 312.636 134.189 311.9 132.565C311.439 132.926 310.959 133.26 310.46 133.565C308.11 135.353 306.288 137.744 305.19 140.485C304.1 139.008 303.243 137.372 302.65 135.635C304.89 135.935 307.12 134.345 307.89 131.705C308.344 130.195 308.237 128.572 307.59 127.135C305.09 128.015 303.39 130.965 302.26 133.925L302.2 134.125C301.762 132.383 301.554 130.591 301.58 128.795C303.81 129.235 306.02 127.555 306.58 124.905C306.882 123.546 306.675 122.123 306 120.905C303.84 121.905 302.53 124.685 301.73 127.405C301.73 127.565 301.66 127.725 301.62 127.885C301.62 127.705 301.62 127.535 301.62 127.355C301.869 124.254 302.831 121.253 304.43 118.585C304.686 119.015 305.028 119.388 305.435 119.679C305.841 119.97 306.304 120.174 306.794 120.277C307.283 120.381 307.789 120.381 308.279 120.279C308.769 120.177 309.232 119.975 309.64 119.685C310.688 118.932 311.405 117.804 311.64 116.535C309.72 115.485 307.34 116.235 305.27 117.365C306.3 115.921 307.552 114.648 308.98 113.595C309.117 113.969 309.326 114.311 309.597 114.603C309.867 114.894 310.193 115.129 310.555 115.294C310.917 115.459 311.308 115.55 311.705 115.562C312.103 115.574 312.499 115.507 312.87 115.365C313.822 115.051 314.622 114.391 315.11 113.515C313.84 112.445 311.84 112.515 309.99 112.905C311.672 111.842 313.566 111.16 315.54 110.905C315.682 111.138 315.876 111.335 316.106 111.481C316.337 111.627 316.598 111.717 316.87 111.745C317.412 111.7 317.92 111.464 318.305 111.08C318.689 110.696 318.925 110.187 318.971 109.646C319.016 109.104 318.868 108.564 318.553 108.12C318.238 107.677 317.777 107.36 317.25 107.225C316.816 107.219 316.393 107.355 316.043 107.611C315.693 107.867 315.436 108.23 315.31 108.645C313.933 108.822 312.587 109.189 311.31 109.735C312.031 109.168 312.586 108.418 312.918 107.563C313.251 106.708 313.348 105.78 313.2 104.875C313.126 104.245 312.92 103.637 312.594 103.092C312.268 102.548 311.83 102.078 311.31 101.715C309.932 103.917 309.366 106.531 309.71 109.105C309.8 109.535 309.88 109.955 309.96 110.365H310.06C309.334 110.758 308.636 111.199 307.97 111.685C307.97 109.235 307.47 106.685 305.97 105.275C305.047 106.14 304.486 107.323 304.4 108.585C304.302 109.435 304.437 110.296 304.789 111.076C305.141 111.856 305.698 112.526 306.4 113.015C305.217 114.121 304.173 115.367 303.29 116.725C303.24 113.605 302.68 110.365 300.77 108.535C299.605 109.63 298.892 111.121 298.77 112.715C298.61 113.942 298.849 115.189 299.452 116.269C300.056 117.35 300.991 118.208 302.12 118.715C301.435 120.069 300.892 121.49 300.5 122.955C299.81 120.485 298.7 118.275 296.92 117.035C295.713 118.549 295.101 120.452 295.2 122.385C295.183 123.776 295.607 125.136 296.412 126.27C297.217 127.404 298.361 128.253 299.68 128.695C299.65 130.247 299.774 131.798 300.05 133.325C298.05 130.905 295.63 128.945 292.92 129.025C292.525 130.92 292.838 132.895 293.8 134.575C294.454 135.833 295.581 136.78 296.933 137.207C298.285 137.635 299.751 137.508 301.01 136.855C301.593 138.48 302.382 140.022 303.36 141.445C300.17 140.745 296.64 140.745 294.2 143.035C294.496 143.868 294.97 144.626 295.588 145.258C296.206 145.89 296.954 146.38 297.78 146.695C300.52 147.695 303.42 146.155 304.78 143.275C306.775 145.571 309.395 147.239 312.32 148.075C312.418 148.443 312.624 148.774 312.91 149.025C313.197 149.276 313.552 149.436 313.93 149.485C314.469 149.433 314.972 149.194 315.352 148.809C315.733 148.424 315.966 147.918 316.011 147.379C316.056 146.839 315.911 146.301 315.6 145.858C315.289 145.416 314.833 145.096 314.31 144.955V144.975Z" fill="#FBF1EB"/>
<path d="M197.92 279.645L191.04 346.345C190.69 349.715 185.95 351.405 184.04 348.845L183.36 347.925L177.26 339.745C176.15 338.255 173.78 338.085 172.01 339.385L161.85 346.735L161.36 347.095C158.65 349.035 155.18 347.525 155.57 344.555L164.08 278.305C164.275 277.244 164.849 276.289 165.695 275.62C166.542 274.95 167.602 274.611 168.68 274.665L180.43 275.415L193.55 276.255L194.97 276.345C195.386 276.35 195.797 276.441 196.176 276.614C196.555 276.786 196.894 277.035 197.172 277.345C197.449 277.656 197.659 278.021 197.788 278.416C197.917 278.812 197.962 279.231 197.92 279.645Z" fill="#FFD1EA"/>
<path d="M173.04 274.945C169.953 292.744 167.91 310.708 166.92 328.745C167.18 334.515 165.67 339.495 165.17 344.305L171.98 339.385C173.76 338.095 176.12 338.255 177.23 339.745L179.08 342.225C181.25 319.995 186.49 297.875 189.69 276.005L173.04 274.945Z" fill="#FCF6EB"/>
<path d="M193.72 275.125C193.66 275.505 193.61 275.875 193.55 276.255C189.99 299.835 186.25 323.945 183.36 347.925L177.26 339.745C176.15 338.255 173.78 338.085 172.01 339.385L161.85 346.735C168.67 297.575 166.08 298.945 170.31 275.635L180.43 275.415L193.72 275.125Z" fill="#EA94C3"/>
<path d="M177.65 287.975L223.65 336.805C225.97 339.265 230.77 337.735 230.73 334.535V333.405L230.61 323.185C230.61 321.335 232.37 319.765 234.56 319.715L247.09 319.395H247.71C251.04 319.305 252.88 315.995 250.77 313.875L203.77 266.395C202.971 265.669 201.935 265.258 200.856 265.238C199.776 265.218 198.726 265.59 197.9 266.285L189.02 274.015L179.1 282.645L178.02 283.585C177.694 283.839 177.424 284.159 177.227 284.522C177.03 284.886 176.91 285.287 176.875 285.699C176.84 286.111 176.891 286.526 177.025 286.918C177.158 287.31 177.371 287.67 177.65 287.975Z" fill="#FFD1EA"/>
<path d="M194.57 269.135C207.819 281.432 220.341 294.491 232.07 308.245C235.36 312.985 239.58 316.025 242.9 319.545L234.5 319.765C232.3 319.825 230.5 321.385 230.55 323.235V326.345C215.33 309.985 197.75 295.595 181.92 280.165L194.57 269.135Z" fill="#FCF6EB"/>
<path d="M178.24 281.835L179.06 282.625C196.21 299.205 213.81 316.105 230.67 333.405L230.55 323.185C230.55 321.335 232.31 319.765 234.5 319.715L247.03 319.395C211.78 284.465 214.67 283.985 197.15 268.025L188.98 274.025L178.24 281.835Z" fill="#EA94C3"/>
<path d="M224.34 243.125C232.72 266.885 219.64 293.125 195.12 301.825C170.6 310.525 143.92 298.245 135.53 274.475C127.14 250.705 140.22 224.475 164.74 215.775C189.26 207.075 215.92 219.365 224.34 243.125Z" fill="url(#paint4_linear_538_32718)"/>
<path d="M215.81 246.135C222.58 265.335 212.01 286.565 192.2 293.565C172.39 300.565 150.83 290.665 144.06 271.465C137.29 252.265 147.85 231.035 167.66 224.045C187.47 217.055 209.03 226.945 215.81 246.135Z" fill="#E1A252"/>
<path d="M145.33 262.455L148.03 268.915L152.87 272.405L148.12 276.025L145.57 282.555L142.87 276.085L138.03 272.595L142.79 268.985L145.33 262.455Z" fill="#DEE5FD"/>
<path opacity="0.72" d="M178.7 295.775C180.82 289.295 182.98 282.845 185.05 276.355C190.31 259.925 194.7 243.685 201.71 228.135C196.804 224.899 191.214 222.845 185.38 222.135C176.81 244.635 166.92 266.635 156.92 288.635C163.274 293.196 170.879 295.69 178.7 295.775Z" fill="url(#paint5_linear_538_32718)"/>
<path d="M203.73 207.135L208.29 218.575L216.71 224.855L208.24 231.075L203.57 242.485L199.01 231.045L190.6 224.755L199.07 218.545L203.73 207.135Z" fill="#DEE5FD"/>
<path d="M135.85 198.735L21.0801 211.245C11.9301 212.245 4.72006 203.635 7.59006 195.125L43.5901 88.4551C44.3531 86.2646 45.7171 84.3329 47.5261 82.8811C49.3352 81.4292 51.5163 80.5157 53.8201 80.2451L171.07 65.7551C180.37 64.6051 187.74 73.4151 184.69 82.0251L146.25 190.625C145.455 192.818 144.057 194.743 142.218 196.177C140.378 197.612 138.171 198.498 135.85 198.735Z" fill="url(#paint6_linear_538_32718)"/>
<path d="M19.6499 213.755C17.3727 213.761 15.1232 213.255 13.0684 212.274C11.0135 211.292 9.20603 209.86 7.77995 208.085C6.23608 206.193 5.19778 203.939 4.76228 201.536C4.32678 199.133 4.50834 196.659 5.28995 194.345L41.2399 87.675C42.1575 85.0442 43.7947 82.7236 45.9655 80.977C48.1364 79.2304 50.7537 78.128 53.5199 77.795L170.77 63.305C173.354 62.9694 175.981 63.3047 178.398 64.2784C180.815 65.2522 182.94 66.8317 184.57 68.865C186.133 70.7851 187.176 73.0751 187.598 75.5147C188.02 77.9543 187.807 80.4614 186.98 82.795L148.54 191.435C147.583 194.054 145.911 196.352 143.714 198.068C141.517 199.785 138.882 200.851 136.11 201.145L21.3499 213.665C20.7852 213.725 20.2178 213.755 19.6499 213.755ZM172.65 68.045C172.209 68.0417 171.768 68.0685 171.33 68.125L54.1199 82.615C52.2569 82.8324 50.4926 83.5693 49.0284 84.7417C47.5643 85.9141 46.4594 87.4746 45.8399 89.245L9.91995 195.905C9.39131 197.442 9.26726 199.09 9.55974 200.689C9.85223 202.288 10.5514 203.784 11.5899 205.035C12.6874 206.398 14.112 207.462 15.7311 208.126C17.3502 208.791 19.1112 209.034 20.8499 208.835L135.61 196.315C137.476 196.126 139.251 195.417 140.733 194.267C142.214 193.118 143.343 191.575 143.99 189.815L182.43 81.175C182.989 79.6224 183.134 77.9507 182.85 76.3251C182.566 74.6994 181.863 73.1759 180.81 71.905C179.835 70.6913 178.598 69.7137 177.192 69.0453C175.786 68.3769 174.247 68.0349 172.69 68.045H172.65Z" fill="url(#paint7_linear_538_32718)"/>
<path d="M173.56 152.765C178.98 159.245 165.76 178.435 144.03 195.615C122.3 212.795 100.29 221.485 94.86 215.005C89.43 208.525 102.66 189.335 124.39 172.145C146.12 154.955 168.13 146.245 173.56 152.765Z" fill="#FCF6EB"/>
<path d="M155.97 159.705C159.45 163.865 150.97 176.185 136.97 187.225C122.97 198.265 108.92 203.835 105.42 199.675C101.92 195.515 110.42 183.185 124.42 172.145C138.42 161.105 152.48 155.535 155.97 159.705Z" fill="#E2D0B5"/>
<path d="M179.52 146.485L162.52 126.195C162.203 124.66 161.517 123.225 160.52 122.015C152.36 112.265 125.04 120.715 99.52 140.905C76.61 159.025 62.94 180.425 66.27 191.685L66.14 191.785L66.39 192.075C66.7579 193.191 67.331 194.229 68.08 195.135C68.8478 196.041 69.7768 196.797 70.82 197.365L86.05 215.565C86.2673 217.456 87.0202 219.247 88.22 220.725C96.39 230.485 123.71 222.025 149.22 201.835C171.96 183.835 185.6 162.635 182.53 151.315L183.14 150.835L181.56 148.935C181.296 148.469 180.991 148.027 180.65 147.615C180.308 147.205 179.93 146.827 179.52 146.485Z" fill="url(#paint8_linear_538_32718)"/>
<path d="M94.7801 144.815C74.7801 162.015 63.1701 181.225 66.2701 191.685L66.1401 191.785L66.3901 192.075C66.758 193.191 67.3312 194.229 68.0801 195.135C68.8479 196.041 69.7769 196.797 70.8201 197.365L86.0501 215.565C86.2675 217.457 87.0203 219.247 88.2201 220.725C95.9601 229.965 120.84 222.875 145.13 204.965L94.7801 144.815Z" fill="url(#paint9_linear_538_32718)"/>
<path d="M127.21 123.805C124 125.245 120.69 126.915 117.31 128.805L165.69 186.595C168.168 183.891 170.504 181.06 172.69 178.115L127.21 123.805Z" fill="url(#paint10_linear_538_32718)"/>
<path d="M162.54 126.245C162.223 124.71 161.537 123.275 160.54 122.065C156.54 117.255 147.8 116.895 136.96 120.175L178.31 169.585C182.23 162.435 183.83 156.045 182.56 151.365L183.17 150.885L181.59 148.985C181.326 148.519 181.021 148.077 180.68 147.665C180.332 147.254 179.947 146.876 179.53 146.535L162.54 126.245Z" fill="url(#paint11_linear_538_32718)"/>
<path d="M173.55 152.765C178.98 159.245 165.77 178.425 144.03 195.625C122.29 212.825 100.28 221.485 94.8599 215.005C91.8599 211.445 94.5099 204.055 101.11 195.265C107.876 186.624 115.693 178.861 124.38 172.155C132.51 165.608 141.356 160.006 150.75 155.455C161.73 150.345 170.41 149.015 173.55 152.765Z" fill="#FCF6EB"/>
<path d="M125.75 171.085L145.38 194.535C166.3 177.635 178.87 159.115 173.56 152.765C168.25 146.415 147.03 154.615 125.75 171.085Z" fill="#F4E9D9"/>
<path d="M150.75 155.455C152.18 160.455 143.97 171.655 131.17 181.785C118.74 191.605 106.17 197.095 101.11 195.265C107.876 186.624 115.693 178.861 124.38 172.155C132.51 165.609 141.356 160.006 150.75 155.455Z" fill="#EBDCC6"/>
<path d="M213.57 146.005C213.278 146.207 212.922 146.293 212.57 146.245L199.33 144.155C198.971 144.1 198.648 143.906 198.43 143.615C198.32 143.475 198.241 143.314 198.198 143.142C198.155 142.969 198.149 142.79 198.18 142.615L200.18 129.735C200.209 129.56 200.272 129.392 200.367 129.242C200.461 129.091 200.585 128.961 200.73 128.859C200.875 128.756 201.039 128.684 201.212 128.645C201.386 128.607 201.565 128.604 201.74 128.635L214.98 130.715C215.335 130.769 215.655 130.961 215.87 131.25C216.085 131.538 216.179 131.899 216.13 132.255L214.13 145.125C214.102 145.302 214.038 145.472 213.941 145.623C213.845 145.775 213.719 145.905 213.57 146.005Z" fill="#F7B643"/>
<path d="M184.66 148.785C175.51 148.785 167.32 144.405 161.61 135.995C155.38 126.805 151.61 114.605 150.45 99.7351C150.25 97.2051 150.1 94.6151 149.95 92.1151C149.31 81.6351 148.66 70.8051 144.69 61.1151C140.3 50.4051 128.69 40.4851 115.69 43.1151C103.16 45.7351 95.5101 60.2451 95.6001 72.2451H91.7101C91.6101 58.4451 100.26 42.3551 114.89 39.3351C129.89 36.2251 143.3 47.4651 148.28 59.6251C152.5 69.9151 153.17 81.0751 153.83 91.8651C153.98 94.3551 154.13 96.9251 154.33 99.4151C155.45 113.605 158.98 125.175 164.83 133.805C172.66 145.355 185.38 148.095 198.88 141.135L200.66 144.595C195.738 147.25 190.252 148.687 184.66 148.785Z" fill="#F7B643"/>
<path d="M98.19 133.855L93.6 125.265L89.08 133.355L80.76 137.465L89.11 142.485L93.71 151.075L98.23 142.985L106.54 138.875L98.19 133.855Z" fill="#DEE5FD"/>
<path d="M77.1899 153.775C77.7161 153.801 78.2422 153.722 78.738 153.544C79.2337 153.365 79.6893 153.091 80.0786 152.736C80.468 152.381 80.7834 151.952 81.0067 151.475C81.23 150.998 81.3568 150.481 81.3799 149.955C81.4068 149.427 81.3288 148.899 81.1504 148.402C80.972 147.904 80.6968 147.447 80.3407 147.056C79.9846 146.666 79.5546 146.35 79.0755 146.126C78.5965 145.903 78.078 145.777 77.5499 145.755C77.0229 145.73 76.496 145.809 75.9996 145.988C75.5033 146.167 75.0472 146.442 74.6577 146.798C74.2683 147.154 73.9531 147.584 73.7303 148.062C73.5076 148.54 73.3817 149.058 73.3599 149.585C73.3344 150.112 73.4134 150.639 73.5924 151.135C73.7714 151.632 74.0468 152.088 74.4028 152.477C74.7588 152.867 75.1883 153.182 75.6667 153.405C76.145 153.627 76.6627 153.753 77.1899 153.775Z" fill="#DEE5FD"/>
<path d="M95.47 166.675C95.7335 166.688 95.9971 166.65 96.2455 166.561C96.494 166.472 96.7224 166.335 96.9176 166.157C97.1128 165.98 97.2709 165.765 97.3829 165.526C97.4949 165.287 97.5584 165.029 97.57 164.765C97.5834 164.502 97.5446 164.238 97.4557 163.99C97.3668 163.741 97.2297 163.513 97.0521 163.317C96.8746 163.122 96.6602 162.964 96.4212 162.852C96.1823 162.74 95.9236 162.677 95.66 162.665C95.3965 162.652 95.1329 162.69 94.8844 162.779C94.636 162.868 94.4076 163.005 94.2124 163.183C94.0172 163.36 93.859 163.575 93.7471 163.814C93.6351 164.053 93.5715 164.311 93.56 164.575C93.5465 164.839 93.5854 165.102 93.6742 165.351C93.7631 165.599 93.9003 165.827 94.0778 166.023C94.2554 166.218 94.4698 166.376 94.7087 166.488C94.9476 166.6 95.2064 166.664 95.47 166.675Z" fill="#DEE5FD"/>
<path d="M86.05 215.565C86.05 215.565 94.7201 153.325 169.74 141.885" stroke="#F7B643" stroke-width="3" stroke-linecap="round" stroke-linejoin="round"/>
</g>
<defs>
<linearGradient id="paint0_linear_538_32718" x1="307.473" y1="64.5322" x2="307.473" y2="300.279" gradientUnits="userSpaceOnUse">
<stop stop-color="#3EB7E4"/>
<stop offset="1" stop-color="#3854BF"/>
</linearGradient>
<linearGradient id="paint1_linear_538_32718" x1="188.001" y1="0.903687" x2="188.001" y2="263.452" gradientUnits="userSpaceOnUse">
<stop stop-color="#42B9E5"/>
<stop offset="1" stop-color="#3E62C6"/>
</linearGradient>
<linearGradient id="paint2_linear_538_32718" x1="337.174" y1="89.3265" x2="281.825" y2="272.538" gradientUnits="userSpaceOnUse">
<stop stop-color="#FFEDD1"/>
<stop offset="1" stop-color="#DDC299"/>
</linearGradient>
<linearGradient id="paint3_linear_538_32718" x1="276.13" y1="228.807" x2="276.13" y2="291.015" gradientUnits="userSpaceOnUse">
<stop stop-color="#ECDFD0"/>
<stop offset="1" stop-color="#E1C8A0"/>
</linearGradient>
<linearGradient id="paint4_linear_538_32718" x1="179.932" y1="212.979" x2="179.932" y2="304.622" gradientUnits="userSpaceOnUse">
<stop stop-color="#FBEBB6"/>
<stop offset="1" stop-color="#F08657"/>
</linearGradient>
<linearGradient id="paint5_linear_538_32718" x1="179.315" y1="222.135" x2="179.315" y2="295.775" gradientUnits="userSpaceOnUse">
<stop stop-color="#F9D99E"/>
<stop offset="1" stop-color="#DE6619"/>
</linearGradient>
<linearGradient id="paint6_linear_538_32718" x1="96.1702" y1="65.6534" x2="96.1702" y2="211.325" gradientUnits="userSpaceOnUse">
<stop stop-color="#313745"/>
<stop offset="1" stop-color="#33415D"/>
</linearGradient>
<linearGradient id="paint7_linear_538_32718" x1="96.17" y1="63.1786" x2="96.17" y2="213.755" gradientUnits="userSpaceOnUse">
<stop stop-color="#0D1B3E"/>
<stop offset="1" stop-color="#0B112F"/>
</linearGradient>
<linearGradient id="paint8_linear_538_32718" x1="124.457" y1="117.964" x2="124.457" y2="224.781" gradientUnits="userSpaceOnUse">
<stop stop-color="#3E4864"/>
<stop offset="1" stop-color="#353B49"/>
</linearGradient>
<linearGradient id="paint9_linear_538_32718" x1="105.451" y1="144.815" x2="105.451" y2="224.781" gradientUnits="userSpaceOnUse">
<stop stop-color="#3C4252"/>
<stop offset="1" stop-color="#1B2337"/>
</linearGradient>
<linearGradient id="paint10_linear_538_32718" x1="145" y1="123.805" x2="145" y2="186.595" gradientUnits="userSpaceOnUse">
<stop stop-color="#323641"/>
<stop offset="1" stop-color="#323D59"/>
</linearGradient>
<linearGradient id="paint11_linear_538_32718" x1="160.065" y1="118.027" x2="160.065" y2="169.585" gradientUnits="userSpaceOnUse">
<stop stop-color="#323641"/>
<stop offset="1" stop-color="#323D59"/>
</linearGradient>
<clipPath id="clip0_538_32718">
<rect width="400.39" height="349.17" fill="white" transform="translate(0 0.915039)"/>
</clipPath>
</defs>
</svg>
